{"glyphs":{"0":{"ha":961,"x_min":0,"x_max":0,"o":"m 481 -22 b 40 486 224 -22 40 164 b 481 994 40 808 224 994 b 921 486 738 994 921 808 b 481 -22 921 164 738 -22 m 481 240 b 592 486 544 240 592 299 b 481 732 592 674 544 732 b 369 486 417 732 369 674 b 481 240 369 299 417 240 "},"1":{"ha":581,"x_min":0,"x_max":0,"o":"m 501 972 l 501 0 l 174 0 l 174 725 l 7 725 l 7 972 "},"2":{"ha":844,"x_min":0,"x_max":0,"o":"m 818 254 l 818 0 l 39 0 l 39 201 l 390 526 b 467 660 457 589 467 626 b 372 736 467 707 435 736 b 229 646 314 736 258 704 l -18 769 b 403 994 53 903 193 994 b 796 690 633 994 796 875 b 629 381 796 594 771 508 l 490 254 "},"3":{"ha":853,"x_min":0,"x_max":0,"o":"m 586 588 b 819 311 739 550 819 446 b 375 -22 819 144 686 -22 b -8 65 242 -22 96 7 l 103 307 b 364 236 186 258 282 236 b 490 311 438 236 490 261 b 375 378 490 353 458 378 l 246 378 l 246 579 l 389 725 l 42 725 l 42 972 l 767 972 l 767 771 l 586 588 "},"4":{"ha":989,"x_min":0,"x_max":0,"o":"m 983 167 l 854 167 l 854 0 l 536 0 l 536 167 l 32 167 l 32 375 l 444 972 l 781 972 l 414 421 l 546 421 l 546 569 l 854 569 l 854 421 l 983 421 "},"5":{"ha":860,"x_min":0,"x_max":0,"o":"m 438 629 b 835 319 725 629 835 492 b 390 -22 835 146 701 -22 b 7 65 257 -22 111 7 l 118 307 b 378 236 201 258 296 236 b 506 313 451 236 506 263 b 358 382 506 354 476 382 l 76 382 l 125 972 l 771 972 l 771 725 l 394 725 l 388 629 l 438 629 "},"6":{"ha":918,"x_min":0,"x_max":0,"o":"m 568 629 b 901 318 746 629 901 508 b 507 -22 901 110 726 -22 b 40 456 229 -22 40 138 b 579 994 40 796 258 994 b 881 918 694 994 807 967 l 763 689 b 586 740 706 729 647 740 b 375 575 475 740 397 683 b 568 629 424 610 486 629 m 485 204 b 585 303 543 204 585 242 b 485 403 585 364 543 403 b 385 303 426 403 385 364 b 485 204 385 242 426 204 "},"7":{"ha":896,"x_min":0,"x_max":0,"o":"m 861 972 l 861 771 l 538 0 l 179 0 l 488 718 l 300 718 l 300 576 l 29 576 l 29 972 "},"8":{"ha":942,"x_min":0,"x_max":0,"o":"m 776 513 b 907 289 858 463 907 386 b 471 -22 907 100 728 -22 b 35 289 214 -22 35 100 b 165 513 35 386 83 463 b 69 704 106 560 69 624 b 471 994 69 881 235 994 b 872 704 707 994 872 881 b 776 513 872 624 836 560 m 471 774 b 393 690 426 774 393 743 b 471 607 393 638 426 607 b 549 690 515 607 549 638 b 471 774 549 743 515 774 m 471 199 b 578 300 533 199 578 238 b 471 401 578 363 533 401 b 364 300 408 401 364 363 b 471 199 364 238 408 199 "},"9":{"ha":918,"x_min":0,"x_max":0,"o":"m 411 994 b 878 517 689 994 878 835 b 339 -22 878 176 660 -22 b 38 54 224 -22 111 6 l 156 283 b 332 232 213 243 271 232 b 543 397 443 232 521 289 b 350 343 494 363 432 343 b 17 654 172 343 17 464 b 411 994 17 863 192 994 m 433 569 b 533 669 492 569 533 608 b 433 768 533 731 492 768 b 333 669 375 768 333 731 b 433 569 333 608 375 569 "},"A":{"ha":1119,"x_min":0,"x_max":0,"o":"m 742 169 l 372 169 l 307 0 l -26 0 l 399 972 l 721 972 l 1146 0 l 807 0 m 651 406 l 557 650 l 463 406 "},"Á":{"ha":1119,"x_min":0,"x_max":0,"o":"m 622 1051 l 414 1051 l 597 1274 l 896 1274 m 742 169 l 372 169 l 307 0 l -26 0 l 399 972 l 721 972 l 1146 0 l 807 0 m 651 406 l 557 650 l 463 406 "},"Ă":{"ha":1119,"x_min":0,"x_max":0,"o":"m 560 1038 b 269 1274 393 1038 276 1128 l 457 1274 b 560 1189 461 1222 503 1189 b 663 1274 617 1189 658 1222 l 850 1274 b 560 1038 843 1128 726 1038 m 742 169 l 372 169 l 307 0 l -26 0 l 399 972 l 721 972 l 1146 0 l 807 0 m 651 406 l 557 650 l 463 406 "},"Ắ":{"ha":1119,"x_min":0,"x_max":0,"o":"m 622 1285 l 414 1285 l 556 1465 l 854 1465 m 560 1038 b 269 1232 393 1038 278 1113 l 446 1232 b 560 1174 451 1197 496 1174 b 674 1232 624 1174 668 1197 l 850 1232 b 560 1038 842 1113 726 1038 m 742 169 l 372 169 l 307 0 l -26 0 l 399 972 l 721 972 l 1146 0 l 807 0 m 651 406 l 557 650 l 463 406 "},"Ặ":{"ha":1119,"x_min":0,"x_max":0,"o":"m 560 1038 b 269 1274 393 1038 276 1128 l 457 1274 b 560 1189 461 1222 503 1189 b 663 1274 617 1189 658 1222 l 850 1274 b 560 1038 843 1128 726 1038 m 807 0 l 742 169 l 372 169 l 307 0 l -26 0 l 399 972 l 721 972 l 1146 0 m 651 406 l 557 650 l 463 406 m 560 -69 b 685 -193 631 -69 685 -119 b 560 -314 685 -267 631 -314 b 435 -193 489 -314 435 -267 b 560 -69 435 -119 489 -69 "},"Ằ":{"ha":1119,"x_min":0,"x_max":0,"o":"m 497 1285 l 265 1465 l 564 1465 l 706 1285 m 560 1174 b 674 1232 624 1174 668 1197 l 850 1232 b 560 1038 842 1113 726 1038 b 269 1232 393 1038 278 1113 l 446 1232 b 560 1174 451 1197 496 1174 m 742 169 l 372 169 l 307 0 l -26 0 l 399 972 l 721 972 l 1146 0 l 807 0 m 651 406 l 557 650 l 463 406 "},"Ẳ":{"ha":1119,"x_min":0,"x_max":0,"o":"m 543 1392 b 479 1375 521 1392 501 1386 l 432 1460 b 569 1494 469 1483 518 1494 b 718 1372 658 1494 718 1449 b 608 1243 718 1311 667 1265 l 536 1306 b 583 1357 574 1325 583 1343 b 543 1392 583 1378 567 1392 m 560 1038 b 269 1232 393 1038 278 1113 l 446 1232 b 560 1174 451 1197 496 1174 b 674 1232 624 1174 668 1197 l 850 1232 b 560 1038 842 1113 726 1038 m 742 169 l 372 169 l 307 0 l -26 0 l 399 972 l 721 972 l 1146 0 l 807 0 m 651 406 l 557 650 l 463 406 "},"Ẵ":{"ha":1119,"x_min":0,"x_max":0,"o":"m 474 1340 b 415 1283 442 1340 418 1317 l 263 1283 b 454 1490 263 1415 335 1490 b 649 1421 554 1490 608 1421 b 708 1478 683 1421 706 1447 l 857 1478 b 665 1271 857 1350 790 1271 b 474 1340 565 1271 513 1340 m 560 1174 b 674 1232 624 1174 668 1197 l 850 1232 b 560 1038 842 1113 726 1038 b 269 1232 393 1038 278 1113 l 446 1232 b 560 1174 451 1197 496 1174 m 742 169 l 372 169 l 307 0 l -26 0 l 399 972 l 721 972 l 1146 0 l 807 0 m 651 406 l 557 650 l 463 406 "},"Ǎ":{"ha":1119,"x_min":0,"x_max":0,"o":"m 426 1051 l 249 1274 l 443 1274 l 560 1167 l 676 1274 l 871 1274 l 693 1051 m 742 169 l 372 169 l 307 0 l -26 0 l 399 972 l 721 972 l 1146 0 l 807 0 m 651 406 l 557 650 l 463 406 "},"Â":{"ha":1119,"x_min":0,"x_max":0,"o":"m 443 1051 l 249 1051 l 426 1274 l 693 1274 l 871 1051 l 676 1051 l 560 1158 m 742 169 l 372 169 l 307 0 l -26 0 l 399 972 l 721 972 l 1146 0 l 807 0 m 651 406 l 557 650 l 463 406 "},"Ấ":{"ha":1119,"x_min":0,"x_max":0,"o":"m 969 1197 l 761 1197 l 903 1378 l 1201 1378 m 443 1051 l 249 1051 l 428 1232 l 692 1232 l 871 1051 l 676 1051 l 560 1136 m 721 972 l 1146 0 l 807 0 l 742 169 l 372 169 l 307 0 l -26 0 l 399 972 m 651 406 l 557 650 l 463 406 "},"Ậ":{"ha":1119,"x_min":0,"x_max":0,"o":"m 443 1051 l 249 1051 l 426 1274 l 693 1274 l 871 1051 l 676 1051 l 560 1158 m 807 0 l 742 169 l 372 169 l 307 0 l -26 0 l 399 972 l 721 972 l 1146 0 m 651 406 l 557 650 l 463 406 m 560 -69 b 685 -193 631 -69 685 -119 b 560 -314 685 -267 631 -314 b 435 -193 489 -314 435 -267 b 560 -69 435 -119 489 -69 "},"Ầ":{"ha":1119,"x_min":0,"x_max":0,"o":"m 844 1197 l 613 1378 l 911 1378 l 1053 1197 m 443 1051 l 249 1051 l 428 1232 l 692 1232 l 871 1051 l 676 1051 l 560 1136 m 742 169 l 372 169 l 307 0 l -26 0 l 399 972 l 721 972 l 1146 0 l 807 0 m 651 406 l 557 650 l 463 406 "},"Ẩ":{"ha":1119,"x_min":0,"x_max":0,"o":"m 793 1318 b 729 1301 771 1318 751 1313 l 682 1386 b 819 1421 719 1410 768 1421 b 968 1299 908 1421 968 1375 b 858 1169 968 1238 917 1192 l 786 1232 b 833 1283 824 1251 833 1269 b 793 1318 833 1304 817 1318 m 443 1051 l 249 1051 l 428 1232 l 692 1232 l 871 1051 l 676 1051 l 560 1136 m 742 169 l 372 169 l 307 0 l -26 0 l 399 972 l 721 972 l 1146 0 l 807 0 m 651 406 l 557 650 l 463 406 "},"Ẫ":{"ha":1119,"x_min":0,"x_max":0,"o":"m 474 1350 b 415 1293 442 1350 418 1326 l 263 1293 b 454 1500 263 1425 335 1500 b 649 1431 554 1500 608 1431 b 708 1488 683 1431 706 1457 l 857 1488 b 665 1281 857 1360 790 1281 b 474 1350 565 1281 513 1350 m 443 1051 l 249 1051 l 428 1232 l 692 1232 l 871 1051 l 676 1051 l 560 1136 m 742 169 l 372 169 l 307 0 l -26 0 l 399 972 l 721 972 l 1146 0 l 807 0 m 651 406 l 557 650 l 463 406 "},"Ȁ":{"ha":1119,"x_min":0,"x_max":0,"o":"m 293 1051 l 158 1274 l 429 1274 l 501 1051 m 618 1051 l 483 1274 l 754 1274 l 826 1051 m 742 169 l 372 169 l 307 0 l -26 0 l 399 972 l 721 972 l 1146 0 l 807 0 m 651 406 l 557 650 l 463 406 "},"Ä":{"ha":1119,"x_min":0,"x_max":0,"o":"m 406 1040 b 281 1163 335 1040 281 1089 b 406 1286 281 1236 335 1286 b 531 1163 476 1286 531 1236 b 406 1040 531 1089 476 1040 m 714 1040 b 589 1163 643 1040 589 1089 b 714 1286 589 1236 643 1286 b 839 1163 785 1286 839 1236 b 714 1040 839 1089 785 1040 m 742 169 l 372 169 l 307 0 l -26 0 l 399 972 l 721 972 l 1146 0 l 807 0 m 651 406 l 557 650 l 463 406 "},"Ạ":{"ha":1119,"x_min":0,"x_max":0,"o":"m 807 0 l 742 169 l 372 169 l 307 0 l -26 0 l 399 972 l 721 972 l 1146 0 m 651 406 l 557 650 l 463 406 m 560 -69 b 685 -193 631 -69 685 -119 b 560 -314 685 -267 631 -314 b 435 -193 489 -314 435 -267 b 560 -69 435 -119 489 -69 "},"À":{"ha":1119,"x_min":0,"x_max":0,"o":"m 497 1051 l 224 1274 l 522 1274 l 706 1051 m 742 169 l 372 169 l 307 0 l -26 0 l 399 972 l 721 972 l 1146 0 l 807 0 m 651 406 l 557 650 l 463 406 "},"Ả":{"ha":1119,"x_min":0,"x_max":0,"o":"m 531 1256 b 451 1228 504 1256 479 1247 l 388 1344 b 567 1400 436 1382 500 1400 b 763 1229 683 1400 763 1331 b 619 1038 763 1139 711 1079 l 525 1128 b 589 1203 578 1153 589 1178 b 531 1256 589 1236 565 1256 m 742 169 l 372 169 l 307 0 l -26 0 l 399 972 l 721 972 l 1146 0 l 807 0 m 651 406 l 557 650 l 463 406 "},"Ȃ":{"ha":1119,"x_min":0,"x_max":0,"o":"m 560 1136 b 457 1051 503 1136 461 1103 l 269 1051 b 560 1288 276 1197 393 1288 b 850 1051 726 1288 843 1197 l 663 1051 b 560 1136 658 1103 617 1136 m 742 169 l 372 169 l 307 0 l -26 0 l 399 972 l 721 972 l 1146 0 l 807 0 m 651 406 l 557 650 l 463 406 "},"Ā":{"ha":1119,"x_min":0,"x_max":0,"o":"m 851 1081 l 268 1081 l 268 1244 l 851 1244 m 742 169 l 372 169 l 307 0 l -26 0 l 399 972 l 721 972 l 1146 0 l 807 0 m 651 406 l 557 650 l 463 406 "},"Ą":{"ha":1119,"x_min":0,"x_max":0,"o":"m 1181 -301 b 1024 -333 1147 -319 1083 -333 b 804 -162 885 -333 804 -267 b 896 0 804 -99 836 -44 l 807 0 l 742 169 l 372 169 l 307 0 l -26 0 l 399 972 l 721 972 l 1146 0 b 988 -135 1025 -53 988 -92 b 1061 -192 988 -167 1010 -192 b 1143 -172 1092 -192 1122 -182 m 651 406 l 557 650 l 463 406 "},"Å":{"ha":1119,"x_min":0,"x_max":0,"o":"m 560 1032 b 365 1218 450 1032 365 1114 b 560 1404 365 1322 450 1404 b 754 1218 669 1404 754 1322 b 560 1032 754 1114 669 1032 m 560 1293 b 485 1218 518 1293 485 1263 b 560 1143 485 1174 518 1143 b 635 1218 601 1143 635 1174 b 560 1293 635 1263 601 1293 m 742 169 l 372 169 l 307 0 l -26 0 l 399 972 l 721 972 l 1146 0 l 807 0 m 651 406 l 557 650 l 463 406 "},"Ǻ":{"ha":1119,"x_min":0,"x_max":0,"o":"m 560 1032 b 365 1218 450 1032 365 1114 b 560 1404 365 1322 450 1404 b 625 1394 582 1404 604 1400 l 753 1529 l 904 1417 l 732 1306 b 754 1218 746 1279 754 1250 b 560 1032 754 1114 669 1032 m 560 1293 b 485 1218 518 1293 485 1263 b 560 1143 485 1174 518 1143 b 635 1218 601 1143 635 1174 b 560 1293 635 1263 601 1293 m 742 169 l 372 169 l 307 0 l -26 0 l 399 972 l 721 972 l 1146 0 l 807 0 m 651 406 l 557 650 l 463 406 "},"Ã":{"ha":1119,"x_min":0,"x_max":0,"o":"m 467 1119 b 404 1051 431 1119 407 1093 l 256 1051 b 447 1292 258 1197 329 1292 b 653 1210 550 1292 603 1210 b 715 1274 689 1210 713 1235 l 864 1274 b 672 1038 861 1132 790 1038 b 467 1119 569 1038 517 1119 m 742 169 l 372 169 l 307 0 l -26 0 l 399 972 l 721 972 l 1146 0 l 807 0 m 651 406 l 557 650 l 463 406 "},"Æ":{"ha":1554,"x_min":0,"x_max":0,"o":"m 1507 247 l 1507 0 l 699 0 l 699 169 l 392 169 l 307 0 l -26 0 l 486 972 l 1489 972 l 1489 725 l 1021 725 l 1021 611 l 1432 611 l 1432 375 l 1021 375 l 1021 247 m 699 406 l 699 725 l 667 725 l 508 406 "},"Ǽ":{"ha":1554,"x_min":0,"x_max":0,"o":"m 922 1051 l 714 1051 l 897 1274 l 1196 1274 m 1507 247 l 1507 0 l 699 0 l 699 169 l 392 169 l 307 0 l -26 0 l 486 972 l 1489 972 l 1489 725 l 1021 725 l 1021 611 l 1432 611 l 1432 375 l 1021 375 l 1021 247 m 699 406 l 699 725 l 667 725 l 508 406 "},"B":{"ha":1074,"x_min":0,"x_max":0,"o":"m 857 508 b 1038 268 971 467 1038 383 b 626 0 1038 99 894 0 l 79 0 l 79 972 l 599 972 b 992 718 867 972 992 865 b 857 508 992 628 946 553 m 401 743 l 401 599 l 554 599 b 661 671 628 599 661 624 b 554 743 661 718 628 743 m 599 229 b 707 306 671 229 707 256 b 599 382 707 356 671 382 l 401 382 l 401 229 l 599 229 "},"C":{"ha":1033,"x_min":0,"x_max":0,"o":"m 582 -22 b 40 486 269 -22 40 188 b 582 994 40 785 269 994 b 1018 800 772 994 922 925 l 811 615 b 599 729 754 688 686 729 b 371 486 463 729 371 635 b 599 243 371 338 463 243 b 811 357 686 243 754 285 l 1018 172 b 582 -22 922 47 772 -22 "},"Ć":{"ha":1033,"x_min":0,"x_max":0,"o":"m 618 1275 l 917 1275 l 643 1053 l 435 1053 m 582 -22 b 40 486 269 -22 40 188 b 582 994 40 785 269 994 b 1018 800 772 994 922 925 l 811 615 b 599 729 754 688 686 729 b 371 486 463 729 371 635 b 599 243 371 338 463 243 b 811 357 686 243 754 285 l 1018 172 b 582 -22 922 47 772 -22 "},"Č":{"ha":1033,"x_min":0,"x_max":0,"o":"m 447 1053 l 269 1275 l 464 1275 l 581 1168 l 697 1275 l 892 1275 l 714 1053 m 599 243 b 811 357 686 243 754 285 l 1018 172 b 582 -22 922 47 772 -22 b 40 486 269 -22 40 188 b 582 994 40 785 269 994 b 1018 800 772 994 922 925 l 811 615 b 599 729 754 688 686 729 b 371 486 463 729 371 635 b 599 243 371 338 463 243 "},"Ç":{"ha":1033,"x_min":0,"x_max":0,"o":"m 599 243 b 811 357 686 243 754 285 l 1018 172 b 617 -21 928 56 790 -14 l 606 -72 b 724 -183 693 -83 724 -135 b 488 -333 724 -276 629 -333 b 351 -304 440 -333 382 -321 l 390 -189 b 474 -206 411 -197 440 -206 b 540 -172 521 -206 540 -192 b 483 -144 540 -156 524 -144 l 426 -144 l 458 -11 b 40 486 211 38 40 229 b 582 994 40 785 269 994 b 1018 800 772 994 922 925 l 811 615 b 599 729 754 688 686 729 b 371 486 463 729 371 635 b 599 243 371 338 463 243 "},"Ḉ":{"ha":1033,"x_min":0,"x_max":0,"o":"m 643 1053 l 435 1053 l 618 1275 l 917 1275 m 599 243 b 811 357 686 243 754 285 l 1018 172 b 617 -21 928 56 790 -14 l 606 -72 b 724 -183 693 -83 724 -135 b 488 -333 724 -276 629 -333 b 351 -304 440 -333 382 -321 l 390 -189 b 474 -206 411 -197 440 -206 b 540 -172 521 -206 540 -192 b 483 -144 540 -156 524 -144 l 426 -144 l 458 -11 b 40 486 211 38 40 229 b 582 994 40 785 269 994 b 1018 800 772 994 922 925 l 811 615 b 599 729 754 688 686 729 b 371 486 463 729 371 635 b 599 243 371 338 463 243 "},"Ĉ":{"ha":1033,"x_min":0,"x_max":0,"o":"m 464 1053 l 269 1053 l 447 1275 l 714 1275 l 892 1053 l 697 1053 l 581 1160 m 599 243 b 811 357 686 243 754 285 l 1018 172 b 582 -22 922 47 772 -22 b 40 486 269 -22 40 188 b 582 994 40 785 269 994 b 1018 800 772 994 922 925 l 811 615 b 599 729 754 688 686 729 b 371 486 463 729 371 635 b 599 243 371 338 463 243 "},"Ċ":{"ha":1033,"x_min":0,"x_max":0,"o":"m 581 1039 b 422 1197 488 1039 422 1104 b 581 1356 422 1290 488 1356 b 739 1197 674 1356 739 1290 b 581 1039 739 1104 674 1039 m 582 -22 b 40 486 269 -22 40 188 b 582 994 40 785 269 994 b 1018 800 772 994 922 925 l 811 615 b 599 729 754 688 686 729 b 371 486 463 729 371 635 b 599 243 371 338 463 243 b 811 357 686 243 754 285 l 1018 172 b 582 -22 922 47 772 -22 "},"D":{"ha":1147,"x_min":0,"x_max":0,"o":"m 79 972 l 558 972 b 1107 486 883 972 1107 788 b 558 0 1107 185 883 0 l 79 0 m 544 256 b 776 486 682 256 776 338 b 544 717 776 635 682 717 l 407 717 l 407 256 "},"Ǆ":{"ha":2003,"x_min":0,"x_max":0,"o":"m 1413 1051 l 1235 1274 l 1429 1274 l 1546 1167 l 1663 1274 l 1857 1274 l 1679 1051 m 558 972 b 1107 486 883 972 1107 788 b 558 0 1107 185 883 0 l 79 0 l 79 972 l 558 972 m 1992 254 l 1992 0 l 1099 0 l 1099 201 l 1543 718 l 1113 718 l 1113 972 l 1969 972 l 1969 771 l 1525 254 m 544 256 b 776 486 682 256 776 338 b 544 717 776 635 682 717 l 407 717 l 407 256 l 544 256 "},"Ð":{"ha":1175,"x_min":0,"x_max":0,"o":"m 586 972 b 1135 486 911 972 1135 788 b 586 0 1135 185 911 0 l 107 0 l 107 399 l -12 399 l -12 588 l 107 588 l 107 972 l 586 972 m 572 256 b 804 486 710 256 804 338 b 572 717 804 635 710 717 l 435 717 l 435 588 l 640 588 l 640 399 l 435 399 l 435 256 l 572 256 "},"Ď":{"ha":1147,"x_min":0,"x_max":0,"o":"m 365 1051 l 188 1274 l 382 1274 l 499 1167 l 615 1274 l 810 1274 l 632 1051 m 558 972 b 1107 486 883 972 1107 788 b 558 0 1107 185 883 0 l 79 0 l 79 972 l 558 972 m 544 256 b 776 486 682 256 776 338 b 544 717 776 635 682 717 l 407 717 l 407 256 l 544 256 "},"Đ":{"ha":1175,"x_min":0,"x_max":0,"o":"m 586 972 b 1135 486 911 972 1135 788 b 586 0 1135 185 911 0 l 107 0 l 107 399 l -12 399 l -12 588 l 107 588 l 107 972 l 586 972 m 572 256 b 804 486 710 256 804 338 b 572 717 804 635 710 717 l 435 717 l 435 588 l 640 588 l 640 399 l 435 399 l 435 256 l 572 256 "},"Ḍ":{"ha":1147,"x_min":0,"x_max":0,"o":"m 79 972 l 558 972 b 1107 486 883 972 1107 788 b 558 0 1107 185 883 0 l 79 0 m 544 256 b 776 486 682 256 776 338 b 544 717 776 635 682 717 l 407 717 l 407 256 m 501 -314 b 376 -193 431 -314 376 -267 b 501 -69 376 -119 431 -69 b 626 -193 572 -69 626 -119 b 501 -314 626 -267 572 -314 "},"Ḏ":{"ha":1147,"x_min":0,"x_max":0,"o":"m 79 972 l 558 972 b 1107 486 883 972 1107 788 b 558 0 1107 185 883 0 l 79 0 m 544 256 b 776 486 682 256 776 338 b 544 717 776 635 682 717 l 407 717 l 407 256 m 210 -103 l 793 -103 l 793 -267 l 210 -267 "},"ǅ":{"ha":1939,"x_min":0,"x_max":0,"o":"m 1417 843 l 1239 1065 l 1433 1065 l 1550 958 l 1667 1065 l 1861 1065 l 1683 843 m 558 972 b 1107 486 883 972 1107 788 b 558 0 1107 185 883 0 l 79 0 l 79 972 l 558 972 m 1914 229 l 1914 0 l 1189 0 l 1189 181 l 1503 531 l 1200 531 l 1200 760 l 1899 760 l 1899 579 l 1585 229 m 544 256 b 776 486 682 256 776 338 b 544 717 776 635 682 717 l 407 717 l 407 256 l 544 256 "},"E":{"ha":935,"x_min":0,"x_max":0,"o":"m 888 247 l 888 0 l 79 0 l 79 972 l 869 972 l 869 725 l 401 725 l 401 611 l 813 611 l 813 375 l 401 375 l 401 247 "},"É":{"ha":935,"x_min":0,"x_max":0,"o":"m 538 1051 l 329 1051 l 513 1274 l 811 1274 m 888 247 l 888 0 l 79 0 l 79 972 l 869 972 l 869 725 l 401 725 l 401 611 l 813 611 l 813 375 l 401 375 l 401 247 "},"Ĕ":{"ha":935,"x_min":0,"x_max":0,"o":"m 475 1038 b 185 1274 308 1038 192 1128 l 372 1274 b 475 1189 376 1222 418 1189 b 578 1274 532 1189 574 1222 l 765 1274 b 475 1038 758 1128 642 1038 m 888 247 l 888 0 l 79 0 l 79 972 l 869 972 l 869 725 l 401 725 l 401 611 l 813 611 l 813 375 l 401 375 l 401 247 "},"Ě":{"ha":935,"x_min":0,"x_max":0,"o":"m 342 1051 l 164 1274 l 358 1274 l 475 1167 l 592 1274 l 786 1274 l 608 1051 m 888 247 l 888 0 l 79 0 l 79 972 l 869 972 l 869 725 l 401 725 l 401 611 l 813 611 l 813 375 l 401 375 l 401 247 "},"Ḝ":{"ha":935,"x_min":0,"x_max":0,"o":"m 475 1038 b 185 1274 308 1038 192 1128 l 372 1274 b 475 1189 376 1222 418 1189 b 578 1274 532 1189 574 1222 l 765 1274 b 475 1038 758 1128 642 1038 m 553 0 l 536 -72 b 654 -183 624 -83 654 -135 b 418 -333 654 -276 560 -333 b 282 -304 371 -333 313 -321 l 321 -189 b 404 -206 342 -197 371 -206 b 471 -172 451 -206 471 -192 b 414 -144 471 -156 454 -144 l 357 -144 l 392 0 l 79 0 l 79 972 l 869 972 l 869 725 l 401 725 l 401 611 l 813 611 l 813 375 l 401 375 l 401 247 l 888 247 l 888 0 "},"Ê":{"ha":935,"x_min":0,"x_max":0,"o":"m 358 1051 l 164 1051 l 342 1274 l 608 1274 l 786 1051 l 592 1051 l 475 1158 m 888 247 l 888 0 l 79 0 l 79 972 l 869 972 l 869 725 l 401 725 l 401 611 l 813 611 l 813 375 l 401 375 l 401 247 "},"Ế":{"ha":935,"x_min":0,"x_max":0,"o":"m 885 1197 l 676 1197 l 818 1378 l 1117 1378 m 358 1051 l 164 1051 l 343 1232 l 607 1232 l 786 1051 l 592 1051 l 475 1136 m 401 247 l 888 247 l 888 0 l 79 0 l 79 972 l 869 972 l 869 725 l 401 725 l 401 611 l 813 611 l 813 375 l 401 375 "},"Ệ":{"ha":935,"x_min":0,"x_max":0,"o":"m 358 1051 l 164 1051 l 342 1274 l 608 1274 l 786 1051 l 592 1051 l 475 1158 m 888 247 l 888 0 l 79 0 l 79 972 l 869 972 l 869 725 l 401 725 l 401 611 l 813 611 l 813 375 l 401 375 l 401 247 m 475 -69 b 600 -193 546 -69 600 -119 b 475 -314 600 -267 546 -314 b 350 -193 404 -314 350 -267 b 475 -69 350 -119 404 -69 "},"Ề":{"ha":935,"x_min":0,"x_max":0,"o":"m 760 1197 l 528 1378 l 826 1378 l 968 1197 m 358 1051 l 164 1051 l 343 1232 l 607 1232 l 786 1051 l 592 1051 l 475 1136 m 401 247 l 888 247 l 888 0 l 79 0 l 79 972 l 869 972 l 869 725 l 401 725 l 401 611 l 813 611 l 813 375 l 401 375 "},"Ể":{"ha":935,"x_min":0,"x_max":0,"o":"m 708 1318 b 644 1301 686 1318 667 1313 l 597 1386 b 735 1421 635 1410 683 1421 b 883 1299 824 1421 883 1375 b 774 1169 883 1238 832 1192 l 701 1232 b 749 1283 739 1251 749 1269 b 708 1318 749 1304 732 1318 m 358 1051 l 164 1051 l 343 1232 l 607 1232 l 786 1051 l 592 1051 l 475 1136 m 888 247 l 888 0 l 79 0 l 79 972 l 869 972 l 869 725 l 401 725 l 401 611 l 813 611 l 813 375 l 401 375 l 401 247 "},"Ễ":{"ha":935,"x_min":0,"x_max":0,"o":"m 389 1350 b 331 1293 357 1350 333 1326 l 178 1293 b 369 1500 178 1425 250 1500 b 564 1431 469 1500 524 1431 b 624 1488 599 1431 621 1457 l 772 1488 b 581 1281 772 1360 706 1281 b 389 1350 481 1281 428 1350 m 358 1051 l 164 1051 l 343 1232 l 607 1232 l 786 1051 l 592 1051 l 475 1136 m 888 247 l 888 0 l 79 0 l 79 972 l 869 972 l 869 725 l 401 725 l 401 611 l 813 611 l 813 375 l 401 375 l 401 247 "},"Ȅ":{"ha":935,"x_min":0,"x_max":0,"o":"m 208 1051 l 74 1274 l 344 1274 l 417 1051 m 533 1051 l 399 1274 l 669 1274 l 742 1051 m 888 247 l 888 0 l 79 0 l 79 972 l 869 972 l 869 725 l 401 725 l 401 611 l 813 611 l 813 375 l 401 375 l 401 247 "},"Ë":{"ha":935,"x_min":0,"x_max":0,"o":"m 321 1040 b 196 1163 250 1040 196 1089 b 321 1286 196 1236 250 1286 b 446 1163 392 1286 446 1236 b 321 1040 446 1089 392 1040 m 629 1040 b 504 1163 558 1040 504 1089 b 629 1286 504 1236 558 1286 b 754 1163 700 1286 754 1236 b 629 1040 754 1089 700 1040 m 888 247 l 888 0 l 79 0 l 79 972 l 869 972 l 869 725 l 401 725 l 401 611 l 813 611 l 813 375 l 401 375 l 401 247 "},"Ė":{"ha":935,"x_min":0,"x_max":0,"o":"m 475 1038 b 317 1196 382 1038 317 1103 b 475 1354 317 1289 382 1354 b 633 1196 568 1354 633 1289 b 475 1038 633 1103 568 1038 m 888 247 l 888 0 l 79 0 l 79 972 l 869 972 l 869 725 l 401 725 l 401 611 l 813 611 l 813 375 l 401 375 l 401 247 "},"Ẹ":{"ha":935,"x_min":0,"x_max":0,"o":"m 888 247 l 888 0 l 79 0 l 79 972 l 869 972 l 869 725 l 401 725 l 401 611 l 813 611 l 813 375 l 401 375 l 401 247 m 475 -69 b 600 -193 546 -69 600 -119 b 475 -314 600 -267 546 -314 b 350 -193 404 -314 350 -267 b 475 -69 350 -119 404 -69 "},"È":{"ha":935,"x_min":0,"x_max":0,"o":"m 413 1051 l 139 1274 l 438 1274 l 621 1051 m 888 247 l 888 0 l 79 0 l 79 972 l 869 972 l 869 725 l 401 725 l 401 611 l 813 611 l 813 375 l 401 375 l 401 247 "},"Ẻ":{"ha":935,"x_min":0,"x_max":0,"o":"m 446 1256 b 367 1228 419 1256 394 1247 l 303 1344 b 482 1400 351 1382 415 1400 b 678 1229 599 1400 678 1331 b 535 1038 678 1139 626 1079 l 440 1128 b 504 1203 493 1153 504 1178 b 446 1256 504 1236 481 1256 m 888 247 l 888 0 l 79 0 l 79 972 l 869 972 l 869 725 l 401 725 l 401 611 l 813 611 l 813 375 l 401 375 l 401 247 "},"Ȇ":{"ha":935,"x_min":0,"x_max":0,"o":"m 475 1136 b 372 1051 418 1136 376 1103 l 185 1051 b 475 1288 192 1197 308 1288 b 765 1051 642 1288 758 1197 l 578 1051 b 475 1136 574 1103 532 1136 m 888 247 l 888 0 l 79 0 l 79 972 l 869 972 l 869 725 l 401 725 l 401 611 l 813 611 l 813 375 l 401 375 l 401 247 "},"Ē":{"ha":935,"x_min":0,"x_max":0,"o":"m 767 1081 l 183 1081 l 183 1244 l 767 1244 m 888 247 l 888 0 l 79 0 l 79 972 l 869 972 l 869 725 l 401 725 l 401 611 l 813 611 l 813 375 l 401 375 l 401 247 "},"Ḗ":{"ha":935,"x_min":0,"x_max":0,"o":"m 538 1306 l 329 1306 l 471 1486 l 769 1486 m 767 1064 l 183 1064 l 183 1219 l 767 1219 m 888 247 l 888 0 l 79 0 l 79 972 l 869 972 l 869 725 l 401 725 l 401 611 l 813 611 l 813 375 l 401 375 l 401 247 "},"Ḕ":{"ha":935,"x_min":0,"x_max":0,"o":"m 413 1306 l 181 1486 l 479 1486 l 621 1306 m 183 1219 l 767 1219 l 767 1064 l 183 1064 m 888 247 l 888 0 l 79 0 l 79 972 l 869 972 l 869 725 l 401 725 l 401 611 l 813 611 l 813 375 l 401 375 l 401 247 "},"Ę":{"ha":935,"x_min":0,"x_max":0,"o":"m 922 -301 b 765 -333 889 -319 825 -333 b 546 -162 626 -333 546 -267 b 638 0 546 -99 578 -44 l 79 0 l 79 972 l 869 972 l 869 725 l 401 725 l 401 611 l 813 611 l 813 375 l 401 375 l 401 247 l 888 247 l 888 0 b 729 -135 767 -53 729 -92 b 803 -192 729 -167 751 -192 b 885 -172 833 -192 864 -182 "},"Ẽ":{"ha":935,"x_min":0,"x_max":0,"o":"m 382 1119 b 319 1051 346 1119 322 1093 l 171 1051 b 363 1292 174 1197 244 1292 b 568 1210 465 1292 518 1210 b 631 1274 604 1210 628 1235 l 779 1274 b 588 1038 776 1132 706 1038 b 382 1119 485 1038 432 1119 m 888 247 l 888 0 l 79 0 l 79 972 l 869 972 l 869 725 l 401 725 l 401 611 l 813 611 l 813 375 l 401 375 l 401 247 "},"Ʒ":{"ha":908,"x_min":0,"x_max":0,"o":"m 633 589 b 878 313 793 550 878 446 b 417 -22 878 143 740 -22 b 22 65 281 -22 128 7 l 128 307 b 406 236 215 258 319 236 b 547 311 489 236 547 261 b 418 378 547 353 508 378 l 288 378 l 288 579 l 439 725 l 68 725 l 68 972 l 822 972 l 822 771 l 633 589 "},"Ǯ":{"ha":908,"x_min":0,"x_max":0,"o":"m 307 1051 l 129 1274 l 324 1274 l 440 1167 l 557 1274 l 751 1274 l 574 1051 m 633 589 b 878 313 793 550 878 446 b 417 -22 878 143 740 -22 b 22 65 281 -22 128 7 l 128 307 b 406 236 215 258 319 236 b 547 311 489 236 547 261 b 418 378 547 353 508 378 l 288 378 l 288 579 l 439 725 l 68 725 l 68 972 l 822 972 l 822 771 l 633 589 "},"F":{"ha":894,"x_min":0,"x_max":0,"o":"m 407 725 l 407 558 l 813 558 l 813 311 l 407 311 l 407 0 l 79 0 l 79 972 l 869 972 l 869 725 "},"G":{"ha":1068,"x_min":0,"x_max":0,"o":"m 722 513 l 1007 513 l 1007 101 b 583 -22 889 21 726 -22 b 40 486 269 -22 40 188 b 590 994 40 785 269 994 b 1035 807 782 994 936 928 l 825 622 b 607 729 764 693 693 729 b 371 486 463 729 371 636 b 603 243 371 340 463 243 b 722 267 643 243 682 250 "},"Ğ":{"ha":1068,"x_min":0,"x_max":0,"o":"m 589 1039 b 299 1275 422 1039 306 1129 l 486 1275 b 589 1190 490 1224 532 1190 b 692 1275 646 1190 688 1224 l 879 1275 b 589 1039 872 1129 756 1039 m 722 513 l 1007 513 l 1007 101 b 583 -22 889 21 726 -22 b 40 486 269 -22 40 188 b 590 994 40 785 269 994 b 1035 807 782 994 936 928 l 825 622 b 607 729 764 693 693 729 b 371 486 463 729 371 636 b 603 243 371 340 463 243 b 722 267 643 243 682 250 "},"Ǧ":{"ha":1068,"x_min":0,"x_max":0,"o":"m 456 1053 l 278 1275 l 472 1275 l 589 1168 l 706 1275 l 900 1275 l 722 1053 m 722 513 l 1007 513 l 1007 101 b 583 -22 889 21 726 -22 b 40 486 269 -22 40 188 b 590 994 40 785 269 994 b 1035 807 782 994 936 928 l 825 622 b 607 729 764 693 693 729 b 371 486 463 729 371 636 b 603 243 371 340 463 243 b 722 267 643 243 682 250 "},"Ĝ":{"ha":1068,"x_min":0,"x_max":0,"o":"m 472 1053 l 278 1053 l 456 1275 l 722 1275 l 900 1053 l 706 1053 l 589 1160 m 722 513 l 1007 513 l 1007 101 b 583 -22 889 21 726 -22 b 40 486 269 -22 40 188 b 590 994 40 785 269 994 b 1035 807 782 994 936 928 l 825 622 b 607 729 764 693 693 729 b 371 486 463 729 371 636 b 603 243 371 340 463 243 b 722 267 643 243 682 250 "},"Ģ":{"ha":1068,"x_min":0,"x_max":0,"o":"m 722 513 l 1007 513 l 1007 101 b 583 -22 889 21 726 -22 b 40 486 269 -22 40 188 b 590 994 40 785 269 994 b 1035 807 782 994 936 928 l 825 622 b 607 729 764 693 693 729 b 371 486 463 729 371 636 b 603 243 371 340 463 243 b 722 267 643 243 682 250 m 569 -69 b 694 -174 647 -69 694 -111 b 660 -285 694 -200 689 -235 l 606 -375 l 468 -375 l 504 -265 b 444 -174 464 -250 444 -218 b 569 -69 444 -111 492 -69 "},"Ġ":{"ha":1068,"x_min":0,"x_max":0,"o":"m 589 1039 b 431 1197 496 1039 431 1104 b 589 1356 431 1290 496 1356 b 747 1197 682 1356 747 1290 b 589 1039 747 1104 682 1039 m 722 513 l 1007 513 l 1007 101 b 583 -22 889 21 726 -22 b 40 486 269 -22 40 188 b 590 994 40 785 269 994 b 1035 807 782 994 936 928 l 825 622 b 607 729 764 693 693 729 b 371 486 463 729 371 636 b 603 243 371 340 463 243 b 722 267 643 243 682 250 "},"Ḡ":{"ha":1068,"x_min":0,"x_max":0,"o":"m 881 1082 l 297 1082 l 297 1246 l 881 1246 m 722 513 l 1007 513 l 1007 101 b 583 -22 889 21 726 -22 b 40 486 269 -22 40 188 b 590 994 40 785 269 994 b 1035 807 782 994 936 928 l 825 622 b 607 729 764 693 693 729 b 371 486 463 729 371 636 b 603 243 371 340 463 243 b 722 267 643 243 682 250 "},"Ǥ":{"ha":1133,"x_min":0,"x_max":0,"o":"m 1114 285 l 1007 285 l 1007 101 b 583 -22 889 21 726 -22 b 40 486 269 -22 40 188 b 590 994 40 785 269 994 b 1035 807 782 994 936 928 l 825 622 b 607 729 764 693 693 729 b 371 486 463 729 371 636 b 603 243 371 340 463 243 b 722 267 643 243 682 250 l 722 285 l 539 285 l 539 471 l 722 471 l 722 513 l 1007 513 l 1007 471 l 1114 471 "},"H":{"ha":1117,"x_min":0,"x_max":0,"o":"m 1038 972 l 1038 0 l 710 0 l 710 358 l 407 358 l 407 0 l 79 0 l 79 972 l 407 972 l 407 628 l 710 628 l 710 972 "},"Ħ":{"ha":1172,"x_min":0,"x_max":0,"o":"m 1185 704 l 1065 704 l 1065 0 l 738 0 l 738 358 l 435 358 l 435 0 l 107 0 l 107 704 l -12 704 l -12 893 l 107 893 l 107 972 l 435 972 l 435 893 l 738 893 l 738 972 l 1065 972 l 1065 893 l 1185 893 m 738 704 l 435 704 l 435 628 l 738 628 "},"Ḫ":{"ha":1117,"x_min":0,"x_max":0,"o":"m 1038 972 l 1038 0 l 710 0 l 710 358 l 407 358 l 407 0 l 79 0 l 79 972 l 407 972 l 407 628 l 710 628 l 710 972 m 558 -172 b 672 -93 622 -172 667 -140 l 849 -93 b 558 -312 840 -225 725 -312 b 268 -93 392 -312 276 -225 l 444 -93 b 558 -172 450 -140 494 -172 "},"Ȟ":{"ha":1117,"x_min":0,"x_max":0,"o":"m 425 1051 l 247 1274 l 442 1274 l 558 1167 l 675 1274 l 869 1274 l 692 1051 m 1038 972 l 1038 0 l 710 0 l 710 358 l 407 358 l 407 0 l 79 0 l 79 972 l 407 972 l 407 628 l 710 628 l 710 972 "},"Ĥ":{"ha":1117,"x_min":0,"x_max":0,"o":"m 442 1051 l 247 1051 l 425 1274 l 692 1274 l 869 1051 l 675 1051 l 558 1158 m 1038 972 l 1038 0 l 710 0 l 710 358 l 407 358 l 407 0 l 79 0 l 79 972 l 407 972 l 407 628 l 710 628 l 710 972 "},"Ḥ":{"ha":1117,"x_min":0,"x_max":0,"o":"m 1038 972 l 1038 0 l 710 0 l 710 358 l 407 358 l 407 0 l 79 0 l 79 972 l 407 972 l 407 628 l 710 628 l 710 972 m 558 -69 b 683 -193 629 -69 683 -119 b 558 -314 683 -267 629 -314 b 433 -193 488 -314 433 -267 b 558 -69 433 -119 488 -69 "},"I":{"ha":486,"x_min":0,"x_max":0,"o":"m 79 972 l 407 972 l 407 0 l 79 0 "},"Ĳ":{"ha":1013,"x_min":0,"x_max":0,"o":"m 456 -22 b 43 96 289 -22 144 24 l 163 328 b 440 239 254 269 358 239 b 614 433 561 239 614 299 l 614 972 l 942 972 l 942 451 b 456 -22 942 146 747 -22 m 71 972 l 399 972 l 399 467 l 71 467 "},"Í":{"ha":486,"x_min":0,"x_max":0,"o":"m 281 1274 l 579 1274 l 306 1051 l 97 1051 m 79 972 l 407 972 l 407 0 l 79 0 "},"Ĭ":{"ha":486,"x_min":0,"x_max":0,"o":"m 243 1038 b -47 1274 76 1038 -40 1128 l 140 1274 b 243 1189 144 1222 186 1189 b 346 1274 300 1189 342 1222 l 533 1274 b 243 1038 526 1128 410 1038 m 79 972 l 407 972 l 407 0 l 79 0 "},"Î":{"ha":486,"x_min":0,"x_max":0,"o":"m 126 1051 l -68 1051 l 110 1274 l 376 1274 l 554 1051 l 360 1051 l 243 1158 m 79 972 l 407 972 l 407 0 l 79 0 "},"Ȉ":{"ha":486,"x_min":0,"x_max":0,"o":"m -158 1274 l 113 1274 l 185 1051 l -24 1051 m 167 1274 l 438 1274 l 510 1051 l 301 1051 m 79 972 l 407 972 l 407 0 l 79 0 "},"Ï":{"ha":486,"x_min":0,"x_max":0,"o":"m 89 1040 b -36 1163 18 1040 -36 1089 b 89 1286 -36 1236 18 1286 b 214 1163 160 1286 214 1236 b 89 1040 214 1089 160 1040 m 397 1040 b 272 1163 326 1040 272 1089 b 397 1286 272 1236 326 1286 b 522 1163 468 1286 522 1236 b 397 1040 522 1089 468 1040 m 79 972 l 407 972 l 407 0 l 79 0 "},"Ḯ":{"ha":486,"x_min":0,"x_max":0,"o":"m 239 1485 l 538 1485 l 306 1304 l 97 1304 m 96 1039 b -22 1154 29 1039 -22 1085 b 96 1271 -22 1224 29 1271 b 214 1154 163 1271 214 1224 b 96 1039 214 1085 163 1039 m 390 1039 b 272 1154 324 1039 272 1085 b 390 1271 272 1224 324 1271 b 508 1154 457 1271 508 1224 b 390 1039 508 1085 457 1039 m 79 972 l 407 972 l 407 0 l 79 0 "},"İ":{"ha":486,"x_min":0,"x_max":0,"o":"m 243 1038 b 85 1196 150 1038 85 1103 b 243 1354 85 1289 150 1354 b 401 1196 336 1354 401 1289 b 243 1038 401 1103 336 1038 m 79 972 l 407 972 l 407 0 l 79 0 "},"Ị":{"ha":486,"x_min":0,"x_max":0,"o":"m 79 972 l 407 972 l 407 0 l 79 0 m 243 -314 b 118 -193 172 -314 118 -267 b 243 -69 118 -119 172 -69 b 368 -193 314 -69 368 -119 b 243 -314 368 -267 314 -314 "},"Ì":{"ha":486,"x_min":0,"x_max":0,"o":"m -93 1274 l 206 1274 l 389 1051 l 181 1051 m 79 972 l 407 972 l 407 0 l 79 0 "},"Ỉ":{"ha":486,"x_min":0,"x_max":0,"o":"m 208 1128 b 272 1203 261 1153 272 1178 b 214 1256 272 1236 249 1256 b 135 1228 188 1256 163 1247 l 71 1344 b 250 1400 119 1382 183 1400 b 446 1229 367 1400 446 1331 b 303 1038 446 1139 394 1079 m 79 972 l 407 972 l 407 0 l 79 0 "},"Ȋ":{"ha":486,"x_min":0,"x_max":0,"o":"m -47 1051 b 243 1288 -40 1197 76 1288 b 533 1051 410 1288 526 1197 l 346 1051 b 243 1136 342 1103 300 1136 b 140 1051 186 1136 144 1103 l -47 1051 m 79 972 l 407 972 l 407 0 l 79 0 "},"Ī":{"ha":486,"x_min":0,"x_max":0,"o":"m 7 1243 l 479 1243 l 479 1079 l 7 1079 m 79 972 l 407 972 l 407 0 l 79 0 "},"Į":{"ha":486,"x_min":0,"x_max":0,"o":"m 442 -301 b 324 -333 413 -321 369 -333 b 124 -160 203 -333 124 -265 b 199 0 124 -99 150 -43 l 79 0 l 79 972 l 407 972 l 407 0 b 308 -132 333 -47 308 -85 b 361 -192 308 -168 332 -192 b 406 -176 378 -192 393 -186 "},"Ĩ":{"ha":486,"x_min":0,"x_max":0,"o":"m 356 1038 b 150 1119 253 1038 200 1119 b 88 1051 114 1119 90 1093 l -61 1051 b 131 1292 -58 1197 13 1292 b 336 1210 233 1292 286 1210 b 399 1274 372 1210 396 1235 l 547 1274 b 356 1038 544 1132 474 1038 m 79 972 l 407 972 l 407 0 l 79 0 "},"J":{"ha":797,"x_min":0,"x_max":0,"o":"m 325 -22 b -33 122 174 -22 47 28 l 143 331 b 297 235 194 267 243 235 b 403 356 365 235 403 276 l 403 725 l 72 725 l 72 972 l 726 972 l 726 375 b 325 -22 726 108 586 -22 "},"Ĵ":{"ha":797,"x_min":0,"x_max":0,"o":"m 283 1051 l 89 1051 l 267 1274 l 533 1274 l 711 1051 l 517 1051 l 400 1158 m 726 972 l 726 375 b 325 -22 726 108 586 -22 b -33 122 174 -22 47 28 l 143 331 b 297 235 194 267 243 235 b 403 356 365 235 403 276 l 403 725 l 72 725 l 72 972 "},"K":{"ha":1063,"x_min":0,"x_max":0,"o":"m 475 322 l 401 240 l 401 0 l 79 0 l 79 972 l 401 972 l 401 619 l 721 972 l 1078 972 l 689 544 l 1097 0 l 718 0 "},"Ǩ":{"ha":1063,"x_min":0,"x_max":0,"o":"m 400 1051 l 222 1274 l 417 1274 l 533 1167 l 650 1274 l 844 1274 l 667 1051 m 475 322 l 401 240 l 401 0 l 79 0 l 79 972 l 401 972 l 401 619 l 721 972 l 1078 972 l 689 544 l 1097 0 l 718 0 "},"Ķ":{"ha":1063,"x_min":0,"x_max":0,"o":"m 1097 0 l 718 0 l 475 322 l 401 240 l 401 0 l 79 0 l 79 972 l 401 972 l 401 619 l 721 972 l 1078 972 l 689 544 m 533 -69 b 658 -174 611 -69 658 -111 b 624 -285 658 -200 653 -235 l 569 -375 l 432 -375 l 468 -265 b 408 -174 428 -250 408 -218 b 533 -69 408 -111 456 -69 "},"L":{"ha":857,"x_min":0,"x_max":0,"o":"m 79 972 l 407 972 l 407 254 l 846 254 l 846 0 l 79 0 "},"Ǉ":{"ha":1654,"x_min":0,"x_max":0,"o":"m 1583 972 l 1583 375 b 1182 -22 1583 108 1443 -22 b 846 99 1044 -22 926 19 l 846 0 l 79 0 l 79 972 l 407 972 l 407 254 l 846 254 l 846 149 l 1000 331 b 1154 235 1051 267 1100 235 b 1260 356 1222 235 1260 276 l 1260 725 l 929 725 l 929 972 "},"Ĺ":{"ha":857,"x_min":0,"x_max":0,"o":"m 281 1274 l 579 1274 l 306 1051 l 97 1051 m 79 972 l 407 972 l 407 254 l 846 254 l 846 0 l 79 0 "},"Ľ":{"ha":857,"x_min":0,"x_max":0,"o":"m 588 1042 l 807 1042 l 765 750 l 588 750 m 79 972 l 407 972 l 407 254 l 846 254 l 846 0 l 79 0 "},"Ļ":{"ha":857,"x_min":0,"x_max":0,"o":"m 846 254 l 846 0 l 79 0 l 79 972 l 407 972 l 407 254 m 479 -69 b 604 -174 557 -69 604 -111 b 569 -285 604 -200 599 -235 l 515 -375 l 378 -375 l 414 -265 b 354 -174 374 -250 354 -218 b 479 -69 354 -111 401 -69 "},"Ŀ":{"ha":857,"x_min":0,"x_max":0,"o":"m 79 972 l 407 972 l 407 254 l 846 254 l 846 0 l 79 0 m 672 454 b 514 613 579 454 514 519 b 672 771 514 706 579 771 b 831 613 765 771 831 706 b 672 454 831 519 765 454 "},"Ḷ":{"ha":857,"x_min":0,"x_max":0,"o":"m 79 972 l 407 972 l 407 254 l 846 254 l 846 0 l 79 0 m 479 -314 b 354 -193 408 -314 354 -267 b 479 -69 354 -119 408 -69 b 604 -193 550 -69 604 -119 b 479 -314 604 -267 550 -314 "},"ǈ":{"ha":1321,"x_min":0,"x_max":0,"o":"m 1094 821 b 906 981 979 821 906 890 b 1094 1140 906 1071 979 1140 b 1283 986 1210 1140 1283 1076 b 1094 821 1283 890 1210 821 m 79 972 l 407 972 l 407 254 l 846 254 l 846 0 l 79 0 m 919 -283 b 726 -246 846 -283 775 -271 l 801 -28 b 872 -46 822 -39 847 -46 b 938 42 910 -46 938 -19 l 938 760 l 1251 760 l 1251 39 b 919 -283 1251 -157 1129 -283 "},"Ḻ":{"ha":857,"x_min":0,"x_max":0,"o":"m 79 972 l 407 972 l 407 254 l 846 254 l 846 0 l 79 0 m 188 -103 l 771 -103 l 771 -267 l 188 -267 "},"Ł":{"ha":885,"x_min":0,"x_max":0,"o":"m 874 254 l 874 0 l 107 0 l 107 328 l 47 283 l -50 422 l 107 539 l 107 972 l 435 972 l 435 782 l 568 881 l 665 742 l 435 571 l 435 254 "},"M":{"ha":1325,"x_min":0,"x_max":0,"o":"m 947 0 l 944 443 l 733 88 l 589 88 l 378 428 l 378 0 l 79 0 l 79 972 l 349 972 l 665 454 l 974 972 l 1243 972 l 1246 0 "},"Ṃ":{"ha":1325,"x_min":0,"x_max":0,"o":"m 947 0 l 944 443 l 733 88 l 589 88 l 378 428 l 378 0 l 79 0 l 79 972 l 349 972 l 665 454 l 974 972 l 1243 972 l 1246 0 m 661 -69 b 786 -193 732 -69 786 -119 b 661 -314 786 -267 732 -314 b 536 -193 590 -314 536 -267 b 661 -69 536 -119 590 -69 "},"N":{"ha":1117,"x_min":0,"x_max":0,"o":"m 1038 972 l 1038 0 l 768 0 l 399 442 l 399 0 l 79 0 l 79 972 l 349 972 l 718 531 l 718 972 "},"Ǌ":{"ha":1914,"x_min":0,"x_max":0,"o":"m 718 972 l 1038 972 l 1038 0 l 768 0 l 399 442 l 399 0 l 79 0 l 79 972 l 349 972 l 718 531 m 1843 972 l 1843 375 b 1442 -22 1843 108 1703 -22 b 1083 122 1290 -22 1164 28 l 1260 331 b 1414 235 1311 267 1360 235 b 1519 356 1482 235 1519 276 l 1519 725 l 1189 725 l 1189 972 "},"Ń":{"ha":1117,"x_min":0,"x_max":0,"o":"m 621 1051 l 413 1051 l 596 1274 l 894 1274 m 1038 972 l 1038 0 l 768 0 l 399 442 l 399 0 l 79 0 l 79 972 l 349 972 l 718 531 l 718 972 "},"Ň":{"ha":1117,"x_min":0,"x_max":0,"o":"m 425 1051 l 247 1274 l 442 1274 l 558 1167 l 675 1274 l 869 1274 l 692 1051 m 1038 972 l 1038 0 l 768 0 l 399 442 l 399 0 l 79 0 l 79 972 l 349 972 l 718 531 l 718 972 "},"Ņ":{"ha":1117,"x_min":0,"x_max":0,"o":"m 1038 972 l 1038 0 l 768 0 l 399 442 l 399 0 l 79 0 l 79 972 l 349 972 l 718 531 l 718 972 m 558 -69 b 683 -174 636 -69 683 -111 b 649 -285 683 -200 678 -235 l 594 -375 l 457 -375 l 493 -265 b 433 -174 453 -250 433 -218 b 558 -69 433 -111 481 -69 "},"Ṅ":{"ha":1117,"x_min":0,"x_max":0,"o":"m 558 1038 b 400 1196 465 1038 400 1103 b 558 1354 400 1289 465 1354 b 717 1196 651 1354 717 1289 b 558 1038 717 1103 651 1038 m 1038 972 l 1038 0 l 768 0 l 399 442 l 399 0 l 79 0 l 79 972 l 349 972 l 718 531 l 718 972 "},"Ṇ":{"ha":1117,"x_min":0,"x_max":0,"o":"m 1038 972 l 1038 0 l 768 0 l 399 442 l 399 0 l 79 0 l 79 972 l 349 972 l 718 531 l 718 972 m 558 -69 b 683 -193 629 -69 683 -119 b 558 -314 683 -267 629 -314 b 433 -193 488 -314 433 -267 b 558 -69 433 -119 488 -69 "},"Ŋ":{"ha":1117,"x_min":0,"x_max":0,"o":"m 1038 972 l 1038 142 b 640 -283 1038 -153 901 -283 b 367 -212 535 -283 442 -262 l 517 7 b 613 -28 549 -15 579 -28 b 715 63 671 -28 707 3 l 399 442 l 399 0 l 79 0 l 79 972 l 349 972 l 718 531 l 718 972 "},"ǋ":{"ha":1581,"x_min":0,"x_max":0,"o":"m 1354 821 b 1165 981 1239 821 1165 890 b 1354 1140 1165 1071 1239 1140 b 1543 986 1469 1140 1543 1076 b 1354 821 1543 890 1469 821 m 768 0 l 399 442 l 399 0 l 79 0 l 79 972 l 349 972 l 718 531 l 718 972 l 1038 972 l 1038 0 m 1197 760 l 1511 760 l 1511 39 b 1179 -283 1511 -157 1389 -283 b 986 -246 1106 -283 1035 -271 l 1061 -28 b 1132 -46 1082 -39 1107 -46 b 1197 42 1169 -46 1197 -19 "},"Ṉ":{"ha":1117,"x_min":0,"x_max":0,"o":"m 1038 972 l 1038 0 l 768 0 l 399 442 l 399 0 l 79 0 l 79 972 l 349 972 l 718 531 l 718 972 m 267 -103 l 850 -103 l 850 -267 l 267 -267 "},"Ñ":{"ha":1117,"x_min":0,"x_max":0,"o":"m 465 1119 b 403 1051 429 1119 406 1093 l 254 1051 b 446 1292 257 1197 328 1292 b 651 1210 549 1292 601 1210 b 714 1274 688 1210 711 1235 l 863 1274 b 671 1038 860 1132 789 1038 b 465 1119 568 1038 515 1119 m 1038 972 l 1038 0 l 768 0 l 399 442 l 399 0 l 79 0 l 79 972 l 349 972 l 718 531 l 718 972 "},"O":{"ha":1178,"x_min":0,"x_max":0,"o":"m 589 -22 b 40 486 272 -22 40 192 b 589 994 40 781 272 994 b 1138 486 906 994 1138 781 b 589 -22 1138 192 906 -22 m 589 243 b 807 486 710 243 807 335 b 589 729 807 638 710 729 b 371 486 468 729 371 638 b 589 243 371 335 468 243 "},"Ó":{"ha":1178,"x_min":0,"x_max":0,"o":"m 626 1274 l 925 1274 l 651 1051 l 443 1051 m 589 -22 b 40 486 272 -22 40 192 b 589 994 40 781 272 994 b 1138 486 906 994 1138 781 b 589 -22 1138 192 906 -22 m 589 243 b 807 486 710 243 807 335 b 589 729 807 638 710 729 b 371 486 468 729 371 638 b 589 243 371 335 468 243 "},"Ŏ":{"ha":1178,"x_min":0,"x_max":0,"o":"m 589 1038 b 299 1274 422 1038 306 1128 l 486 1274 b 589 1189 490 1222 532 1189 b 692 1274 646 1189 688 1222 l 879 1274 b 589 1038 872 1128 756 1038 m 589 -22 b 40 486 272 -22 40 192 b 589 994 40 781 272 994 b 1138 486 906 994 1138 781 b 589 -22 1138 192 906 -22 m 589 243 b 807 486 710 243 807 335 b 589 729 807 638 710 729 b 371 486 468 729 371 638 b 589 243 371 335 468 243 "},"Ô":{"ha":1178,"x_min":0,"x_max":0,"o":"m 472 1051 l 278 1051 l 456 1274 l 722 1274 l 900 1051 l 706 1051 l 589 1158 m 589 994 b 1138 486 906 994 1138 781 b 589 -22 1138 192 906 -22 b 40 486 272 -22 40 192 b 589 994 40 781 272 994 m 589 243 b 807 486 710 243 807 335 b 589 729 807 638 710 729 b 371 486 468 729 371 638 b 589 243 371 335 468 243 "},"Ố":{"ha":1178,"x_min":0,"x_max":0,"o":"m 999 1197 l 790 1197 l 932 1378 l 1231 1378 m 472 1051 l 278 1051 l 457 1232 l 721 1232 l 900 1051 l 706 1051 l 589 1136 m 589 994 b 1138 486 906 994 1138 781 b 589 -22 1138 192 906 -22 b 40 486 272 -22 40 192 b 589 994 40 781 272 994 m 589 243 b 807 486 710 243 807 335 b 589 729 807 638 710 729 b 371 486 468 729 371 638 b 589 243 371 335 468 243 "},"Ộ":{"ha":1178,"x_min":0,"x_max":0,"o":"m 472 1051 l 278 1051 l 456 1274 l 722 1274 l 900 1051 l 706 1051 l 589 1158 m 589 994 b 1138 486 906 994 1138 781 b 589 -22 1138 192 906 -22 b 40 486 272 -22 40 192 b 589 994 40 781 272 994 m 589 243 b 807 486 710 243 807 335 b 589 729 807 638 710 729 b 371 486 468 729 371 638 b 589 243 371 335 468 243 m 589 -69 b 714 -193 660 -69 714 -119 b 589 -314 714 -267 660 -314 b 464 -193 518 -314 464 -267 b 589 -69 464 -119 518 -69 "},"Ồ":{"ha":1178,"x_min":0,"x_max":0,"o":"m 874 1197 l 642 1378 l 940 1378 l 1082 1197 m 472 1051 l 278 1051 l 457 1232 l 721 1232 l 900 1051 l 706 1051 l 589 1136 m 589 994 b 1138 486 906 994 1138 781 b 589 -22 1138 192 906 -22 b 40 486 272 -22 40 192 b 589 994 40 781 272 994 m 589 243 b 807 486 710 243 807 335 b 589 729 807 638 710 729 b 371 486 468 729 371 638 b 589 243 371 335 468 243 "},"Ổ":{"ha":1178,"x_min":0,"x_max":0,"o":"m 822 1318 b 758 1301 800 1318 781 1313 l 711 1386 b 849 1421 749 1410 797 1421 b 997 1299 938 1421 997 1375 b 888 1169 997 1238 946 1192 l 815 1232 b 863 1283 853 1251 863 1269 b 822 1318 863 1304 846 1318 m 472 1051 l 278 1051 l 457 1232 l 721 1232 l 900 1051 l 706 1051 l 589 1136 m 589 994 b 1138 486 906 994 1138 781 b 589 -22 1138 192 906 -22 b 40 486 272 -22 40 192 b 589 994 40 781 272 994 m 589 243 b 807 486 710 243 807 335 b 589 729 807 638 710 729 b 371 486 468 729 371 638 b 589 243 371 335 468 243 "},"Ỗ":{"ha":1178,"x_min":0,"x_max":0,"o":"m 503 1350 b 444 1293 471 1350 447 1326 l 292 1293 b 483 1500 292 1425 364 1500 b 678 1431 583 1500 638 1431 b 738 1488 713 1431 735 1457 l 886 1488 b 694 1281 886 1360 819 1281 b 503 1350 594 1281 542 1350 m 472 1051 l 278 1051 l 457 1232 l 721 1232 l 900 1051 l 706 1051 l 589 1136 m 589 994 b 1138 486 906 994 1138 781 b 589 -22 1138 192 906 -22 b 40 486 272 -22 40 192 b 589 994 40 781 272 994 m 589 243 b 807 486 710 243 807 335 b 589 729 807 638 710 729 b 371 486 468 729 371 638 b 589 243 371 335 468 243 "},"Ȍ":{"ha":1178,"x_min":0,"x_max":0,"o":"m 188 1274 l 458 1274 l 531 1051 l 322 1051 m 513 1274 l 783 1274 l 856 1051 l 647 1051 m 589 -22 b 40 486 272 -22 40 192 b 589 994 40 781 272 994 b 1138 486 906 994 1138 781 b 589 -22 1138 192 906 -22 m 589 243 b 807 486 710 243 807 335 b 589 729 807 638 710 729 b 371 486 468 729 371 638 b 589 243 371 335 468 243 "},"Ö":{"ha":1178,"x_min":0,"x_max":0,"o":"m 435 1040 b 310 1163 364 1040 310 1089 b 435 1286 310 1236 364 1286 b 560 1163 506 1286 560 1236 b 435 1040 560 1089 506 1040 m 743 1040 b 618 1163 672 1040 618 1089 b 743 1286 618 1236 672 1286 b 868 1163 814 1286 868 1236 b 743 1040 868 1089 814 1040 m 589 -22 b 40 486 272 -22 40 192 b 589 994 40 781 272 994 b 1138 486 906 994 1138 781 b 589 -22 1138 192 906 -22 m 589 243 b 807 486 710 243 807 335 b 589 729 807 638 710 729 b 371 486 468 729 371 638 b 589 243 371 335 468 243 "},"Ȫ":{"ha":1178,"x_min":0,"x_max":0,"o":"m 297 1474 l 881 1474 l 881 1318 l 297 1318 m 442 1040 b 324 1156 375 1040 324 1086 b 442 1272 324 1225 375 1272 b 560 1156 508 1272 560 1225 b 442 1040 560 1086 508 1040 m 736 1040 b 618 1156 669 1040 618 1086 b 736 1272 618 1225 669 1272 b 854 1156 803 1272 854 1225 b 736 1040 854 1086 803 1040 m 589 -22 b 40 486 272 -22 40 192 b 589 994 40 781 272 994 b 1138 486 906 994 1138 781 b 589 -22 1138 192 906 -22 m 589 243 b 807 486 710 243 807 335 b 589 729 807 638 710 729 b 371 486 468 729 371 638 b 589 243 371 335 468 243 "},"Ȱ":{"ha":1178,"x_min":0,"x_max":0,"o":"m 297 1488 l 881 1488 l 881 1332 l 297 1332 m 589 1038 b 464 1158 518 1038 464 1085 b 589 1282 464 1232 518 1282 b 714 1158 660 1282 714 1232 b 589 1038 714 1085 660 1038 m 589 -22 b 40 486 272 -22 40 192 b 589 994 40 781 272 994 b 1138 486 906 994 1138 781 b 589 -22 1138 192 906 -22 m 589 243 b 807 486 710 243 807 335 b 589 729 807 638 710 729 b 371 486 468 729 371 638 b 589 243 371 335 468 243 "},"Ọ":{"ha":1178,"x_min":0,"x_max":0,"o":"m 589 -22 b 40 486 272 -22 40 192 b 589 994 40 781 272 994 b 1138 486 906 994 1138 781 b 589 -22 1138 192 906 -22 m 589 243 b 807 486 710 243 807 335 b 589 729 807 638 710 729 b 371 486 468 729 371 638 b 589 243 371 335 468 243 m 589 -314 b 464 -193 518 -314 464 -267 b 589 -69 464 -119 518 -69 b 714 -193 660 -69 714 -119 b 589 -314 714 -267 660 -314 "},"Ò":{"ha":1178,"x_min":0,"x_max":0,"o":"m 253 1274 l 551 1274 l 735 1051 l 526 1051 m 589 -22 b 40 486 272 -22 40 192 b 589 994 40 781 272 994 b 1138 486 906 994 1138 781 b 589 -22 1138 192 906 -22 m 589 243 b 807 486 710 243 807 335 b 589 729 807 638 710 729 b 371 486 468 729 371 638 b 589 243 371 335 468 243 "},"Ỏ":{"ha":1178,"x_min":0,"x_max":0,"o":"m 554 1128 b 618 1203 607 1153 618 1178 b 560 1256 618 1236 594 1256 b 481 1228 533 1256 508 1247 l 417 1344 b 596 1400 465 1382 529 1400 b 792 1229 713 1400 792 1331 b 649 1038 792 1139 740 1079 m 589 -22 b 40 486 272 -22 40 192 b 589 994 40 781 272 994 b 1138 486 906 994 1138 781 b 589 -22 1138 192 906 -22 m 589 243 b 807 486 710 243 807 335 b 589 729 807 638 710 729 b 371 486 468 729 371 638 b 589 243 371 335 468 243 "},"Ơ":{"ha":1178,"x_min":0,"x_max":0,"o":"m 999 826 b 1138 486 1085 743 1138 625 b 589 -22 1138 192 906 -22 b 40 486 272 -22 40 192 b 603 994 40 781 272 994 b 844 976 701 994 788 976 b 938 1057 900 976 938 1006 b 910 1136 938 1088 926 1117 l 1088 1199 b 1139 1044 1119 1158 1139 1107 b 999 826 1139 936 1086 864 m 589 243 b 807 486 710 243 807 335 b 589 729 807 638 710 729 b 371 486 468 729 371 638 b 589 243 371 335 468 243 "},"Ớ":{"ha":1178,"x_min":0,"x_max":0,"o":"m 651 1051 l 443 1051 l 626 1274 l 925 1274 m 999 826 b 1138 486 1085 743 1138 625 b 589 -22 1138 192 906 -22 b 40 486 272 -22 40 192 b 603 994 40 781 272 994 b 844 976 701 994 788 976 b 938 1057 900 976 938 1006 b 910 1136 938 1088 926 1117 l 1088 1199 b 1139 1044 1119 1158 1139 1107 b 999 826 1139 936 1086 864 m 589 243 b 807 486 710 243 807 335 b 589 729 807 638 710 729 b 371 486 468 729 371 638 b 589 243 371 335 468 243 "},"Ợ":{"ha":1178,"x_min":0,"x_max":0,"o":"m 999 826 b 1138 486 1085 743 1138 625 b 589 -22 1138 192 906 -22 b 40 486 272 -22 40 192 b 603 994 40 781 272 994 b 844 976 701 994 788 976 b 938 1057 900 976 938 1006 b 910 1136 938 1088 926 1117 l 1088 1199 b 1139 1044 1119 1158 1139 1107 b 999 826 1139 936 1086 864 m 589 243 b 807 486 710 243 807 335 b 589 729 807 638 710 729 b 371 486 468 729 371 638 b 589 243 371 335 468 243 m 589 -69 b 714 -193 660 -69 714 -119 b 589 -314 714 -267 660 -314 b 464 -193 518 -314 464 -267 b 589 -69 464 -119 518 -69 "},"Ờ":{"ha":1178,"x_min":0,"x_max":0,"o":"m 526 1051 l 253 1274 l 551 1274 l 735 1051 m 999 826 b 1138 486 1085 743 1138 625 b 589 -22 1138 192 906 -22 b 40 486 272 -22 40 192 b 603 994 40 781 272 994 b 844 976 701 994 788 976 b 938 1057 900 976 938 1006 b 910 1136 938 1088 926 1117 l 1088 1199 b 1139 1044 1119 1158 1139 1107 b 999 826 1139 936 1086 864 m 589 243 b 807 486 710 243 807 335 b 589 729 807 638 710 729 b 371 486 468 729 371 638 b 589 243 371 335 468 243 "},"Ở":{"ha":1178,"x_min":0,"x_max":0,"o":"m 560 1256 b 481 1228 533 1256 508 1247 l 417 1344 b 596 1400 465 1382 529 1400 b 792 1229 713 1400 792 1331 b 649 1038 792 1139 740 1079 l 554 1128 b 618 1203 607 1153 618 1178 b 560 1256 618 1236 594 1256 m 999 826 b 1138 486 1085 743 1138 625 b 589 -22 1138 192 906 -22 b 40 486 272 -22 40 192 b 603 994 40 781 272 994 b 844 976 701 994 788 976 b 938 1057 900 976 938 1006 b 910 1136 938 1088 926 1117 l 1088 1199 b 1139 1044 1119 1158 1139 1107 b 999 826 1139 936 1086 864 m 589 243 b 807 486 710 243 807 335 b 589 729 807 638 710 729 b 371 486 468 729 371 638 b 589 243 371 335 468 243 "},"Ỡ":{"ha":1178,"x_min":0,"x_max":0,"o":"m 496 1119 b 433 1051 460 1119 436 1093 l 285 1051 b 476 1292 288 1197 358 1292 b 682 1210 579 1292 632 1210 b 744 1274 718 1210 742 1235 l 893 1274 b 701 1038 890 1132 819 1038 b 496 1119 599 1038 546 1119 m 999 826 b 1138 486 1085 743 1138 625 b 589 -22 1138 192 906 -22 b 40 486 272 -22 40 192 b 603 994 40 781 272 994 b 844 976 701 994 788 976 b 938 1057 900 976 938 1006 b 910 1136 938 1088 926 1117 l 1088 1199 b 1139 1044 1119 1158 1139 1107 b 999 826 1139 936 1086 864 m 589 243 b 807 486 710 243 807 335 b 589 729 807 638 710 729 b 371 486 468 729 371 638 b 589 243 371 335 468 243 "},"Ő":{"ha":1178,"x_min":0,"x_max":0,"o":"m 394 1274 l 665 1274 l 531 1051 l 322 1051 m 719 1274 l 990 1274 l 856 1051 l 647 1051 m 589 -22 b 40 486 272 -22 40 192 b 589 994 40 781 272 994 b 1138 486 906 994 1138 781 b 589 -22 1138 192 906 -22 m 589 243 b 807 486 710 243 807 335 b 589 729 807 638 710 729 b 371 486 468 729 371 638 b 589 243 371 335 468 243 "},"Ȏ":{"ha":1178,"x_min":0,"x_max":0,"o":"m 299 1051 b 589 1288 306 1197 422 1288 b 879 1051 756 1288 872 1197 l 692 1051 b 589 1136 688 1103 646 1136 b 486 1051 532 1136 490 1103 l 299 1051 m 589 -22 b 40 486 272 -22 40 192 b 589 994 40 781 272 994 b 1138 486 906 994 1138 781 b 589 -22 1138 192 906 -22 m 589 243 b 807 486 710 243 807 335 b 589 729 807 638 710 729 b 371 486 468 729 371 638 b 589 243 371 335 468 243 "},"Ō":{"ha":1178,"x_min":0,"x_max":0,"o":"m 297 1244 l 881 1244 l 881 1081 l 297 1081 m 589 -22 b 40 486 272 -22 40 192 b 589 994 40 781 272 994 b 1138 486 906 994 1138 781 b 589 -22 1138 192 906 -22 m 589 243 b 807 486 710 243 807 335 b 589 729 807 638 710 729 b 371 486 468 729 371 638 b 589 243 371 335 468 243 "},"Ṓ":{"ha":1178,"x_min":0,"x_max":0,"o":"m 585 1486 l 883 1486 l 651 1306 l 443 1306 m 297 1219 l 881 1219 l 881 1064 l 297 1064 m 589 -22 b 40 486 272 -22 40 192 b 589 994 40 781 272 994 b 1138 486 906 994 1138 781 b 589 -22 1138 192 906 -22 m 589 243 b 807 486 710 243 807 335 b 589 729 807 638 710 729 b 371 486 468 729 371 638 b 589 243 371 335 468 243 "},"Ṑ":{"ha":1178,"x_min":0,"x_max":0,"o":"m 294 1486 l 593 1486 l 735 1306 l 526 1306 m 297 1219 l 881 1219 l 881 1064 l 297 1064 m 589 -22 b 40 486 272 -22 40 192 b 589 994 40 781 272 994 b 1138 486 906 994 1138 781 b 589 -22 1138 192 906 -22 m 589 243 b 807 486 710 243 807 335 b 589 729 807 638 710 729 b 371 486 468 729 371 638 b 589 243 371 335 468 243 "},"Ǫ":{"ha":1178,"x_min":0,"x_max":0,"o":"m 783 7 b 601 -135 643 -40 601 -89 b 675 -192 601 -167 624 -192 b 757 -172 706 -192 736 -182 l 794 -301 b 638 -333 761 -319 697 -333 b 418 -162 499 -333 418 -267 b 490 -15 418 -107 443 -57 b 40 486 225 25 40 224 b 589 994 40 781 272 994 b 1138 486 906 994 1138 781 b 783 7 1138 247 986 75 m 371 486 b 589 243 371 335 468 243 b 807 486 710 243 807 335 b 589 729 807 638 710 729 b 371 486 468 729 371 638 "},"Ø":{"ha":1178,"x_min":0,"x_max":0,"o":"m 954 874 b 1138 486 1068 783 1138 647 b 589 -22 1138 192 906 -22 b 351 24 503 -22 422 -6 l 265 -97 l 85 -97 l 224 99 b 40 486 110 189 40 325 b 589 994 40 781 272 994 b 826 949 675 994 756 978 l 913 1069 l 1093 1069 l 954 874 m 371 486 b 403 351 371 433 382 388 l 663 717 b 589 729 639 725 615 729 b 371 486 468 729 371 638 m 589 243 b 807 486 710 243 807 335 b 775 621 807 539 796 585 l 515 256 b 589 243 539 247 563 243 "},"Ǿ":{"ha":1178,"x_min":0,"x_max":0,"o":"m 651 1051 l 443 1051 l 626 1274 l 925 1274 m 954 874 b 1138 486 1068 783 1138 647 b 589 -22 1138 192 906 -22 b 351 24 503 -22 422 -6 l 265 -97 l 85 -97 l 224 99 b 40 486 110 189 40 325 b 589 994 40 781 272 994 b 826 949 675 994 756 978 l 913 1069 l 1093 1069 l 954 874 m 371 486 b 403 351 371 433 382 388 l 663 717 b 589 729 639 725 615 729 b 371 486 468 729 371 638 m 589 243 b 807 486 710 243 807 335 b 775 621 807 539 796 585 l 515 256 b 589 243 539 247 563 243 "},"Õ":{"ha":1178,"x_min":0,"x_max":0,"o":"m 701 1038 b 496 1119 599 1038 546 1119 b 433 1051 460 1119 436 1093 l 285 1051 b 476 1292 288 1197 358 1292 b 682 1210 579 1292 632 1210 b 744 1274 718 1210 742 1235 l 893 1274 b 701 1038 890 1132 819 1038 m 589 -22 b 40 486 272 -22 40 192 b 589 994 40 781 272 994 b 1138 486 906 994 1138 781 b 589 -22 1138 192 906 -22 m 589 243 b 807 486 710 243 807 335 b 589 729 807 638 710 729 b 371 486 468 729 371 638 b 589 243 371 335 468 243 "},"Ṍ":{"ha":1178,"x_min":0,"x_max":0,"o":"m 585 1486 l 883 1486 l 651 1306 l 443 1306 m 694 1038 b 503 1107 594 1038 542 1107 b 444 1050 471 1107 447 1083 l 292 1050 b 483 1257 292 1182 364 1257 b 678 1188 583 1257 638 1188 b 738 1244 713 1188 735 1214 l 886 1244 b 694 1038 886 1117 819 1038 m 589 -22 b 40 486 272 -22 40 192 b 589 994 40 781 272 994 b 1138 486 906 994 1138 781 b 589 -22 1138 192 906 -22 m 589 243 b 807 486 710 243 807 335 b 589 729 807 638 710 729 b 371 486 468 729 371 638 b 589 243 371 335 468 243 "},"Ṏ":{"ha":1178,"x_min":0,"x_max":0,"o":"m 442 1294 b 324 1410 375 1294 324 1340 b 442 1526 324 1479 375 1526 b 560 1410 508 1526 560 1479 b 442 1294 560 1340 508 1294 m 736 1294 b 618 1410 669 1294 618 1340 b 736 1526 618 1479 669 1526 b 854 1410 803 1526 854 1479 b 736 1294 854 1340 803 1294 m 694 1038 b 503 1107 594 1038 542 1107 b 444 1050 471 1107 447 1083 l 292 1050 b 483 1257 292 1182 364 1257 b 678 1188 583 1257 638 1188 b 738 1244 713 1188 735 1214 l 886 1244 b 694 1038 886 1117 819 1038 m 589 -22 b 40 486 272 -22 40 192 b 589 994 40 781 272 994 b 1138 486 906 994 1138 781 b 589 -22 1138 192 906 -22 m 589 243 b 807 486 710 243 807 335 b 589 729 807 638 710 729 b 371 486 468 729 371 638 b 589 243 371 335 468 243 "},"Ȭ":{"ha":1178,"x_min":0,"x_max":0,"o":"m 297 1474 l 881 1474 l 881 1318 l 297 1318 m 694 1038 b 503 1107 594 1038 542 1107 b 444 1050 471 1107 447 1083 l 292 1050 b 483 1257 292 1182 364 1257 b 678 1188 583 1257 638 1188 b 738 1244 713 1188 735 1214 l 886 1244 b 694 1038 886 1117 819 1038 m 589 -22 b 40 486 272 -22 40 192 b 589 994 40 781 272 994 b 1138 486 906 994 1138 781 b 589 -22 1138 192 906 -22 m 589 243 b 807 486 710 243 807 335 b 589 729 807 638 710 729 b 371 486 468 729 371 638 b 589 243 371 335 468 243 "},"Œ":{"ha":1596,"x_min":0,"x_max":0,"o":"m 1549 247 l 1549 0 l 589 0 b 40 486 264 0 40 185 b 589 972 40 788 264 972 l 1531 972 l 1531 725 l 1063 725 l 1063 611 l 1474 611 l 1474 375 l 1063 375 l 1063 247 m 740 256 l 740 717 l 603 717 b 371 486 465 717 371 635 b 603 256 371 338 465 256 "},"P":{"ha":1032,"x_min":0,"x_max":0,"o":"m 547 972 b 990 606 818 972 990 831 b 547 239 990 381 818 239 l 407 239 l 407 0 l 79 0 l 79 972 l 547 972 m 526 492 b 660 606 617 492 660 535 b 526 719 660 676 617 719 l 407 719 l 407 492 l 526 492 "},"Þ":{"ha":1032,"x_min":0,"x_max":0,"o":"m 547 879 b 990 513 818 879 990 738 b 547 146 990 288 818 146 l 407 146 l 407 0 l 79 0 l 79 974 l 407 974 l 407 879 l 547 879 m 526 399 b 660 513 617 399 660 442 b 526 626 660 583 617 626 l 407 626 l 407 399 l 526 399 "},"Q":{"ha":1178,"x_min":0,"x_max":0,"o":"m 1190 -122 b 907 -246 1122 -203 1024 -246 b 453 -8 735 -246 628 -192 b 40 486 208 43 40 236 b 589 994 40 781 272 994 b 1138 486 906 994 1138 781 b 824 22 1138 271 1014 99 b 914 -18 853 -8 879 -18 b 1049 44 961 -18 1008 4 m 589 729 b 371 486 468 729 371 638 b 589 243 371 335 468 243 b 807 486 710 243 807 335 b 589 729 807 638 710 729 "},"R":{"ha":1035,"x_min":0,"x_max":0,"o":"m 496 244 l 407 244 l 407 0 l 79 0 l 79 972 l 547 972 b 990 606 818 972 990 831 b 807 300 990 465 924 360 l 1011 0 l 661 0 m 660 606 b 526 719 660 676 617 719 l 407 719 l 407 492 l 526 492 b 660 606 617 492 660 535 "},"Ŕ":{"ha":1035,"x_min":0,"x_max":0,"o":"m 589 1051 l 381 1051 l 564 1274 l 863 1274 m 496 244 l 407 244 l 407 0 l 79 0 l 79 972 l 547 972 b 990 606 818 972 990 831 b 807 300 990 465 924 360 l 1011 0 l 661 0 m 660 606 b 526 719 660 676 617 719 l 407 719 l 407 492 l 526 492 b 660 606 617 492 660 535 "},"Ř":{"ha":1035,"x_min":0,"x_max":0,"o":"m 393 1051 l 215 1274 l 410 1274 l 526 1167 l 643 1274 l 838 1274 l 660 1051 m 496 244 l 407 244 l 407 0 l 79 0 l 79 972 l 547 972 b 990 606 818 972 990 831 b 807 300 990 465 924 360 l 1011 0 l 661 0 m 660 606 b 526 719 660 676 617 719 l 407 719 l 407 492 l 526 492 b 660 606 617 492 660 535 "},"Ŗ":{"ha":1035,"x_min":0,"x_max":0,"o":"m 1011 0 l 661 0 l 496 244 l 407 244 l 407 0 l 79 0 l 79 972 l 547 972 b 990 606 818 972 990 831 b 807 300 990 465 924 360 m 660 606 b 526 719 660 676 617 719 l 407 719 l 407 492 l 526 492 b 660 606 617 492 660 535 m 526 -69 b 651 -174 604 -69 651 -111 b 617 -285 651 -200 646 -235 l 563 -375 l 425 -375 l 461 -265 b 401 -174 421 -250 401 -218 b 526 -69 401 -111 449 -69 "},"Ȑ":{"ha":1035,"x_min":0,"x_max":0,"o":"m 260 1051 l 125 1274 l 396 1274 l 468 1051 m 585 1051 l 450 1274 l 721 1274 l 793 1051 m 496 244 l 407 244 l 407 0 l 79 0 l 79 972 l 547 972 b 990 606 818 972 990 831 b 807 300 990 465 924 360 l 1011 0 l 661 0 m 660 606 b 526 719 660 676 617 719 l 407 719 l 407 492 l 526 492 b 660 606 617 492 660 535 "},"Ṛ":{"ha":1035,"x_min":0,"x_max":0,"o":"m 1011 0 l 661 0 l 496 244 l 407 244 l 407 0 l 79 0 l 79 972 l 547 972 b 990 606 818 972 990 831 b 807 300 990 465 924 360 m 660 606 b 526 719 660 676 617 719 l 407 719 l 407 492 l 526 492 b 660 606 617 492 660 535 m 526 -69 b 651 -193 597 -69 651 -119 b 526 -314 651 -267 597 -314 b 401 -193 456 -314 401 -267 b 526 -69 401 -119 456 -69 "},"Ȓ":{"ha":1035,"x_min":0,"x_max":0,"o":"m 526 1136 b 424 1051 469 1136 428 1103 l 236 1051 b 526 1288 243 1197 360 1288 b 817 1051 693 1288 810 1197 l 629 1051 b 526 1136 625 1103 583 1136 m 496 244 l 407 244 l 407 0 l 79 0 l 79 972 l 547 972 b 990 606 818 972 990 831 b 807 300 990 465 924 360 l 1011 0 l 661 0 m 660 606 b 526 719 660 676 617 719 l 407 719 l 407 492 l 526 492 b 660 606 617 492 660 535 "},"Ṟ":{"ha":1035,"x_min":0,"x_max":0,"o":"m 407 0 l 79 0 l 79 972 l 547 972 b 990 606 818 972 990 831 b 807 300 990 465 924 360 l 1011 0 l 661 0 l 496 244 l 407 244 m 660 606 b 526 719 660 676 617 719 l 407 719 l 407 492 l 526 492 b 660 606 617 492 660 535 m 235 -103 l 818 -103 l 818 -267 l 235 -267 "},"S":{"ha":913,"x_min":0,"x_max":0,"o":"m 442 -22 b 18 78 279 -22 115 18 l 124 317 b 444 228 215 263 338 228 b 571 281 538 228 571 247 b 33 667 571 403 33 304 b 486 994 33 847 185 994 b 853 910 617 994 751 967 l 754 672 b 483 744 658 721 568 744 b 357 683 388 744 357 717 b 894 306 357 567 894 664 b 442 -22 894 128 743 -22 "},"Ś":{"ha":913,"x_min":0,"x_max":0,"o":"m 494 1274 l 793 1274 l 519 1051 l 311 1051 m 442 -22 b 18 78 279 -22 115 18 l 124 317 b 444 228 215 263 338 228 b 571 281 538 228 571 247 b 33 667 571 403 33 304 b 486 994 33 847 185 994 b 853 910 617 994 751 967 l 754 672 b 483 744 658 721 568 744 b 357 683 388 744 357 717 b 894 306 357 567 894 664 b 442 -22 894 128 743 -22 "},"Ṥ":{"ha":913,"x_min":0,"x_max":0,"o":"m 457 1292 b 332 1413 386 1292 332 1339 b 457 1536 332 1486 386 1536 b 582 1413 528 1536 582 1486 b 457 1292 582 1339 528 1292 m 453 1232 l 751 1232 l 519 1051 l 311 1051 m 442 -22 b 18 78 279 -22 115 18 l 124 317 b 444 228 215 263 338 228 b 571 281 538 228 571 247 b 33 667 571 403 33 304 b 486 994 33 847 185 994 b 853 910 617 994 751 967 l 754 672 b 483 744 658 721 568 744 b 357 683 388 744 357 717 b 894 306 357 567 894 664 b 442 -22 894 128 743 -22 "},"Ꞌ":{"ha":475,"x_min":0,"x_max":0,"o":"m 76 974 l 399 974 l 357 411 l 76 411 "},"Š":{"ha":913,"x_min":0,"x_max":0,"o":"m 324 1051 l 146 1274 l 340 1274 l 457 1167 l 574 1274 l 768 1274 l 590 1051 m 357 683 b 894 306 357 567 894 664 b 442 -22 894 128 743 -22 b 18 78 279 -22 115 18 l 124 317 b 444 228 215 263 338 228 b 571 281 538 228 571 247 b 33 667 571 403 33 304 b 486 994 33 847 185 994 b 853 910 617 994 751 967 l 754 672 b 483 744 658 721 568 744 b 357 683 388 744 357 717 "},"Ṧ":{"ha":913,"x_min":0,"x_max":0,"o":"m 457 1260 b 332 1381 386 1260 332 1307 b 457 1504 332 1454 386 1504 b 582 1381 528 1504 582 1454 b 457 1260 582 1307 528 1260 m 325 1051 l 146 1232 l 340 1232 l 457 1147 l 574 1232 l 768 1232 l 589 1051 m 357 683 b 894 306 357 567 894 664 b 442 -22 894 128 743 -22 b 18 78 279 -22 115 18 l 124 317 b 444 228 215 263 338 228 b 571 281 538 228 571 247 b 33 667 571 403 33 304 b 486 994 33 847 185 994 b 853 910 617 994 751 967 l 754 672 b 483 744 658 721 568 744 b 357 683 388 744 357 717 "},"Ş":{"ha":913,"x_min":0,"x_max":0,"o":"m 894 306 b 531 -18 894 146 772 10 l 518 -72 b 636 -183 606 -83 636 -135 b 400 -333 636 -276 542 -333 b 264 -304 353 -333 294 -321 l 303 -189 b 386 -206 324 -197 353 -206 b 453 -172 433 -206 453 -192 b 396 -144 453 -156 436 -144 l 339 -144 l 368 -19 b 18 78 232 -10 100 26 l 124 317 b 444 228 215 263 338 228 b 571 281 538 228 571 247 b 33 667 571 403 33 304 b 486 994 33 847 185 994 b 853 910 617 994 751 967 l 754 672 b 483 744 658 721 568 744 b 357 683 388 744 357 717 b 894 306 357 567 894 664 "},"Ŝ":{"ha":913,"x_min":0,"x_max":0,"o":"m 340 1051 l 146 1051 l 324 1274 l 590 1274 l 768 1051 l 574 1051 l 457 1158 m 357 683 b 894 306 357 567 894 664 b 442 -22 894 128 743 -22 b 18 78 279 -22 115 18 l 124 317 b 444 228 215 263 338 228 b 571 281 538 228 571 247 b 33 667 571 403 33 304 b 486 994 33 847 185 994 b 853 910 617 994 751 967 l 754 672 b 483 744 658 721 568 744 b 357 683 388 744 357 717 "},"Ș":{"ha":913,"x_min":0,"x_max":0,"o":"m 357 683 b 894 306 357 567 894 664 b 442 -22 894 128 743 -22 b 18 78 279 -22 115 18 l 124 317 b 444 228 215 263 338 228 b 571 281 538 228 571 247 b 33 667 571 403 33 304 b 486 994 33 847 185 994 b 853 910 617 994 751 967 l 754 672 b 483 744 658 721 568 744 b 357 683 388 744 357 717 m 457 -69 b 582 -174 535 -69 582 -111 b 547 -285 582 -200 576 -235 l 493 -375 l 356 -375 l 392 -265 b 332 -174 351 -250 332 -218 b 457 -69 332 -111 379 -69 "},"Ṡ":{"ha":913,"x_min":0,"x_max":0,"o":"m 457 1038 b 299 1196 364 1038 299 1103 b 457 1354 299 1289 364 1354 b 615 1196 550 1354 615 1289 b 457 1038 615 1103 550 1038 m 442 -22 b 18 78 279 -22 115 18 l 124 317 b 444 228 215 263 338 228 b 571 281 538 228 571 247 b 33 667 571 403 33 304 b 486 994 33 847 185 994 b 853 910 617 994 751 967 l 754 672 b 483 744 658 721 568 744 b 357 683 388 744 357 717 b 894 306 357 567 894 664 b 442 -22 894 128 743 -22 "},"Ṣ":{"ha":913,"x_min":0,"x_max":0,"o":"m 442 -22 b 18 78 279 -22 115 18 l 124 317 b 444 228 215 263 338 228 b 571 281 538 228 571 247 b 33 667 571 403 33 304 b 486 994 33 847 185 994 b 853 910 617 994 751 967 l 754 672 b 483 744 658 721 568 744 b 357 683 388 744 357 717 b 894 306 357 567 894 664 b 442 -22 894 128 743 -22 m 457 -314 b 332 -193 386 -314 332 -267 b 457 -69 332 -119 386 -69 b 582 -193 528 -69 582 -119 b 457 -314 582 -267 528 -314 "},"Ṩ":{"ha":913,"x_min":0,"x_max":0,"o":"m 457 1038 b 299 1196 364 1038 299 1103 b 457 1354 299 1289 364 1354 b 615 1196 550 1354 615 1289 b 457 1038 615 1103 550 1038 m 442 -22 b 18 78 279 -22 115 18 l 124 317 b 444 228 215 263 338 228 b 571 281 538 228 571 247 b 33 667 571 403 33 304 b 486 994 33 847 185 994 b 853 910 617 994 751 967 l 754 672 b 483 744 658 721 568 744 b 357 683 388 744 357 717 b 894 306 357 567 894 664 b 442 -22 894 128 743 -22 m 457 -314 b 332 -193 386 -314 332 -267 b 457 -69 332 -119 386 -69 b 582 -193 528 -69 582 -119 b 457 -314 582 -267 528 -314 "},"ẞ":{"ha":1108,"x_min":0,"x_max":0,"o":"m 856 582 b 1072 293 979 538 1072 438 b 686 -22 1072 94 899 -22 b 468 10 594 -22 525 -11 l 513 254 b 631 228 546 239 593 228 b 742 307 707 228 742 256 b 635 386 742 358 707 386 b 549 372 603 386 572 381 l 493 504 l 692 736 b 603 744 664 742 635 744 b 399 519 467 744 399 661 l 399 0 l 71 0 l 71 526 b 599 994 71 814 260 994 b 969 903 721 994 876 961 l 969 715 l 856 582 "},"Ə":{"ha":1136,"x_min":0,"x_max":0,"o":"m 540 994 b 1096 486 867 994 1096 785 b 568 -22 1096 185 872 -22 b 40 500 256 -22 40 185 l 40 553 l 760 553 b 538 729 739 658 656 729 b 289 615 461 729 349 688 l 96 814 b 540 994 188 914 364 994 m 568 218 b 760 372 678 218 743 275 l 376 372 b 568 218 393 275 458 218 "},"T":{"ha":908,"x_min":0,"x_max":0,"o":"m 290 718 l 6 718 l 6 972 l 903 972 l 903 718 l 618 718 l 618 0 l 290 0 "},"Ŧ":{"ha":908,"x_min":0,"x_max":0,"o":"m 618 718 l 618 532 l 781 532 l 781 343 l 618 343 l 618 0 l 290 0 l 290 343 l 128 343 l 128 532 l 290 532 l 290 718 l 6 718 l 6 972 l 903 972 l 903 718 "},"Ť":{"ha":908,"x_min":0,"x_max":0,"o":"m 321 1051 l 143 1274 l 338 1274 l 454 1167 l 571 1274 l 765 1274 l 588 1051 m 903 972 l 903 718 l 618 718 l 618 0 l 290 0 l 290 718 l 6 718 l 6 972 "},"Ţ":{"ha":908,"x_min":0,"x_max":0,"o":"m 532 0 l 515 -72 b 633 -183 603 -83 633 -135 b 397 -333 633 -276 539 -333 b 261 -304 350 -333 292 -321 l 300 -189 b 383 -206 321 -197 350 -206 b 450 -172 431 -206 450 -192 b 393 -144 450 -156 433 -144 l 336 -144 l 371 0 l 290 0 l 290 718 l 6 718 l 6 972 l 903 972 l 903 718 l 618 718 l 618 0 "},"Ț":{"ha":908,"x_min":0,"x_max":0,"o":"m 903 972 l 903 718 l 618 718 l 618 0 l 290 0 l 290 718 l 6 718 l 6 972 m 454 -69 b 579 -174 532 -69 579 -111 b 544 -285 579 -200 574 -235 l 490 -375 l 353 -375 l 389 -265 b 329 -174 349 -250 329 -218 b 454 -69 329 -111 376 -69 "},"Ṭ":{"ha":908,"x_min":0,"x_max":0,"o":"m 290 718 l 6 718 l 6 972 l 903 972 l 903 718 l 618 718 l 618 0 l 290 0 m 454 -314 b 329 -193 383 -314 329 -267 b 454 -69 329 -119 383 -69 b 579 -193 525 -69 579 -119 b 454 -314 579 -267 525 -314 "},"Ṯ":{"ha":908,"x_min":0,"x_max":0,"o":"m 290 718 l 6 718 l 6 972 l 903 972 l 903 718 l 618 718 l 618 0 l 290 0 m 163 -103 l 746 -103 l 746 -267 l 163 -267 "},"U":{"ha":1089,"x_min":0,"x_max":0,"o":"m 544 -22 b 71 438 246 -22 71 146 l 71 972 l 399 972 l 399 447 b 547 243 399 299 456 243 b 696 447 639 243 696 299 l 696 972 l 1018 972 l 1018 438 b 544 -22 1018 146 843 -22 "},"Ú":{"ha":1089,"x_min":0,"x_max":0,"o":"m 585 1274 l 883 1274 l 610 1051 l 401 1051 m 544 -22 b 71 438 246 -22 71 146 l 71 972 l 399 972 l 399 447 b 547 243 399 299 456 243 b 696 447 639 243 696 299 l 696 972 l 1018 972 l 1018 438 b 544 -22 1018 146 843 -22 "},"Ŭ":{"ha":1089,"x_min":0,"x_max":0,"o":"m 547 1038 b 257 1274 381 1038 264 1128 l 444 1274 b 547 1189 449 1222 490 1189 b 650 1274 604 1189 646 1222 l 838 1274 b 547 1038 831 1128 714 1038 m 544 -22 b 71 438 246 -22 71 146 l 71 972 l 399 972 l 399 447 b 547 243 399 299 456 243 b 696 447 639 243 696 299 l 696 972 l 1018 972 l 1018 438 b 544 -22 1018 146 843 -22 "},"Ǔ":{"ha":1089,"x_min":0,"x_max":0,"o":"m 414 1051 l 236 1274 l 431 1274 l 547 1167 l 664 1274 l 858 1274 l 681 1051 m 1018 972 l 1018 438 b 544 -22 1018 146 843 -22 b 71 438 246 -22 71 146 l 71 972 l 399 972 l 399 447 b 547 243 399 299 456 243 b 696 447 639 243 696 299 l 696 972 "},"Û":{"ha":1089,"x_min":0,"x_max":0,"o":"m 431 1051 l 236 1051 l 414 1274 l 681 1274 l 858 1051 l 664 1051 l 547 1158 m 1018 972 l 1018 438 b 544 -22 1018 146 843 -22 b 71 438 246 -22 71 146 l 71 972 l 399 972 l 399 447 b 547 243 399 299 456 243 b 696 447 639 243 696 299 l 696 972 "},"Ȕ":{"ha":1089,"x_min":0,"x_max":0,"o":"m 146 1274 l 417 1274 l 489 1051 l 281 1051 m 471 1274 l 742 1274 l 814 1051 l 606 1051 m 544 -22 b 71 438 246 -22 71 146 l 71 972 l 399 972 l 399 447 b 547 243 399 299 456 243 b 696 447 639 243 696 299 l 696 972 l 1018 972 l 1018 438 b 544 -22 1018 146 843 -22 "},"Ü":{"ha":1089,"x_min":0,"x_max":0,"o":"m 393 1040 b 268 1163 322 1040 268 1089 b 393 1286 268 1236 322 1286 b 518 1163 464 1286 518 1236 b 393 1040 518 1089 464 1040 m 701 1040 b 576 1163 631 1040 576 1089 b 701 1286 576 1236 631 1286 b 826 1163 772 1286 826 1236 b 701 1040 826 1089 772 1040 m 544 -22 b 71 438 246 -22 71 146 l 71 972 l 399 972 l 399 447 b 547 243 399 299 456 243 b 696 447 639 243 696 299 l 696 972 l 1018 972 l 1018 438 b 544 -22 1018 146 843 -22 "},"Ụ":{"ha":1089,"x_min":0,"x_max":0,"o":"m 544 -22 b 71 438 246 -22 71 146 l 71 972 l 399 972 l 399 447 b 547 243 399 299 456 243 b 696 447 639 243 696 299 l 696 972 l 1018 972 l 1018 438 b 544 -22 1018 146 843 -22 m 547 -314 b 422 -193 476 -314 422 -267 b 547 -69 422 -119 476 -69 b 672 -193 618 -69 672 -119 b 547 -314 672 -267 618 -314 "},"Ù":{"ha":1089,"x_min":0,"x_max":0,"o":"m 211 1274 l 510 1274 l 693 1051 l 485 1051 m 544 -22 b 71 438 246 -22 71 146 l 71 972 l 399 972 l 399 447 b 547 243 399 299 456 243 b 696 447 639 243 696 299 l 696 972 l 1018 972 l 1018 438 b 544 -22 1018 146 843 -22 "},"Ủ":{"ha":1089,"x_min":0,"x_max":0,"o":"m 513 1128 b 576 1203 565 1153 576 1178 b 518 1256 576 1236 553 1256 b 439 1228 492 1256 467 1247 l 375 1344 b 554 1400 424 1382 488 1400 b 750 1229 671 1400 750 1331 b 607 1038 750 1139 699 1079 m 544 -22 b 71 438 246 -22 71 146 l 71 972 l 399 972 l 399 447 b 547 243 399 299 456 243 b 696 447 639 243 696 299 l 696 972 l 1018 972 l 1018 438 b 544 -22 1018 146 843 -22 "},"Ư":{"ha":1117,"x_min":0,"x_max":0,"o":"m 1181 1044 b 1018 800 1181 919 1122 836 l 1018 438 b 544 -22 1018 146 843 -22 b 71 438 246 -22 71 146 l 71 972 l 399 972 l 399 447 b 547 243 399 299 456 243 b 696 447 639 243 696 299 l 696 972 l 903 972 b 979 1057 942 972 979 1006 b 951 1136 979 1088 968 1117 l 1129 1199 b 1181 1044 1161 1158 1181 1107 "},"Ứ":{"ha":1117,"x_min":0,"x_max":0,"o":"m 610 1051 l 401 1051 l 585 1274 l 883 1274 m 1181 1044 b 1018 800 1181 919 1122 836 l 1018 438 b 544 -22 1018 146 843 -22 b 71 438 246 -22 71 146 l 71 972 l 399 972 l 399 447 b 547 243 399 299 456 243 b 696 447 639 243 696 299 l 696 972 l 903 972 b 979 1057 942 972 979 1006 b 951 1136 979 1088 968 1117 l 1129 1199 b 1181 1044 1161 1158 1181 1107 "},"Ự":{"ha":1117,"x_min":0,"x_max":0,"o":"m 1181 1044 b 1018 800 1181 919 1122 836 l 1018 438 b 544 -22 1018 146 843 -22 b 71 438 246 -22 71 146 l 71 972 l 399 972 l 399 447 b 547 243 399 299 456 243 b 696 447 639 243 696 299 l 696 972 l 903 972 b 979 1057 942 972 979 1006 b 951 1136 979 1088 968 1117 l 1129 1199 b 1181 1044 1161 1158 1181 1107 m 547 -69 b 672 -193 618 -69 672 -119 b 547 -314 672 -267 618 -314 b 422 -193 476 -314 422 -267 b 547 -69 422 -119 476 -69 "},"Ừ":{"ha":1117,"x_min":0,"x_max":0,"o":"m 485 1051 l 211 1274 l 510 1274 l 693 1051 m 1181 1044 b 1018 800 1181 919 1122 836 l 1018 438 b 544 -22 1018 146 843 -22 b 71 438 246 -22 71 146 l 71 972 l 399 972 l 399 447 b 547 243 399 299 456 243 b 696 447 639 243 696 299 l 696 972 l 903 972 b 979 1057 942 972 979 1006 b 951 1136 979 1088 968 1117 l 1129 1199 b 1181 1044 1161 1158 1181 1107 "},"Ử":{"ha":1117,"x_min":0,"x_max":0,"o":"m 518 1256 b 439 1228 492 1256 467 1247 l 375 1344 b 554 1400 424 1382 488 1400 b 750 1229 671 1400 750 1331 b 607 1038 750 1139 699 1079 l 513 1128 b 576 1203 565 1153 576 1178 b 518 1256 576 1236 553 1256 m 1181 1044 b 1018 800 1181 919 1122 836 l 1018 438 b 544 -22 1018 146 843 -22 b 71 438 246 -22 71 146 l 71 972 l 399 972 l 399 447 b 547 243 399 299 456 243 b 696 447 639 243 696 299 l 696 972 l 903 972 b 979 1057 942 972 979 1006 b 951 1136 979 1088 968 1117 l 1129 1199 b 1181 1044 1161 1158 1181 1107 "},"Ữ":{"ha":1117,"x_min":0,"x_max":0,"o":"m 454 1119 b 392 1051 418 1119 394 1093 l 243 1051 b 435 1292 246 1197 317 1292 b 640 1210 538 1292 590 1210 b 703 1274 676 1210 700 1235 l 851 1274 b 660 1038 849 1132 778 1038 b 454 1119 557 1038 504 1119 m 1181 1044 b 1018 800 1181 919 1122 836 l 1018 438 b 544 -22 1018 146 843 -22 b 71 438 246 -22 71 146 l 71 972 l 399 972 l 399 447 b 547 243 399 299 456 243 b 696 447 639 243 696 299 l 696 972 l 903 972 b 979 1057 942 972 979 1006 b 951 1136 979 1088 968 1117 l 1129 1199 b 1181 1044 1161 1158 1181 1107 "},"Ű":{"ha":1089,"x_min":0,"x_max":0,"o":"m 353 1274 l 624 1274 l 489 1051 l 281 1051 m 678 1274 l 949 1274 l 814 1051 l 606 1051 m 544 -22 b 71 438 246 -22 71 146 l 71 972 l 399 972 l 399 447 b 547 243 399 299 456 243 b 696 447 639 243 696 299 l 696 972 l 1018 972 l 1018 438 b 544 -22 1018 146 843 -22 "},"Ȗ":{"ha":1089,"x_min":0,"x_max":0,"o":"m 257 1051 b 547 1288 264 1197 381 1288 b 838 1051 714 1288 831 1197 l 650 1051 b 547 1136 646 1103 604 1136 b 444 1051 490 1136 449 1103 l 257 1051 m 544 -22 b 71 438 246 -22 71 146 l 71 972 l 399 972 l 399 447 b 547 243 399 299 456 243 b 696 447 639 243 696 299 l 696 972 l 1018 972 l 1018 438 b 544 -22 1018 146 843 -22 "},"Ū":{"ha":1089,"x_min":0,"x_max":0,"o":"m 256 1244 l 839 1244 l 839 1081 l 256 1081 m 544 -22 b 71 438 246 -22 71 146 l 71 972 l 399 972 l 399 447 b 547 243 399 299 456 243 b 696 447 639 243 696 299 l 696 972 l 1018 972 l 1018 438 b 544 -22 1018 146 843 -22 "},"Ṻ":{"ha":1089,"x_min":0,"x_max":0,"o":"m 400 1294 b 282 1410 333 1294 282 1340 b 400 1526 282 1479 333 1526 b 518 1410 467 1526 518 1479 b 400 1294 518 1340 467 1294 m 694 1294 b 576 1410 628 1294 576 1340 b 694 1526 576 1479 628 1526 b 813 1410 761 1526 813 1479 b 694 1294 813 1340 761 1294 m 256 1219 l 839 1219 l 839 1064 l 256 1064 m 544 -22 b 71 438 246 -22 71 146 l 71 972 l 399 972 l 399 447 b 547 243 399 299 456 243 b 696 447 639 243 696 299 l 696 972 l 1018 972 l 1018 438 b 544 -22 1018 146 843 -22 "},"Ų":{"ha":1089,"x_min":0,"x_max":0,"o":"m 1018 972 l 1018 438 b 750 10 1018 207 910 72 b 558 -135 601 -49 558 -92 b 632 -192 558 -167 581 -192 b 714 -172 663 -192 693 -182 l 751 -301 b 594 -333 718 -319 654 -333 b 375 -162 456 -333 375 -267 b 447 -15 375 -107 400 -57 b 71 438 208 18 71 179 l 71 972 l 399 972 l 399 447 b 547 243 399 299 456 243 b 696 447 639 243 696 299 l 696 972 "},"Ů":{"ha":1089,"x_min":0,"x_max":0,"o":"m 547 1032 b 353 1218 438 1032 353 1114 b 547 1404 353 1322 438 1404 b 742 1218 657 1404 742 1322 b 547 1032 742 1114 657 1032 m 547 1143 b 622 1218 589 1143 622 1174 b 547 1293 622 1263 589 1293 b 472 1218 506 1293 472 1263 b 547 1143 472 1174 506 1143 m 544 -22 b 71 438 246 -22 71 146 l 71 972 l 399 972 l 399 447 b 547 243 399 299 456 243 b 696 447 639 243 696 299 l 696 972 l 1018 972 l 1018 438 b 544 -22 1018 146 843 -22 "},"Ũ":{"ha":1089,"x_min":0,"x_max":0,"o":"m 660 1038 b 454 1119 557 1038 504 1119 b 392 1051 418 1119 394 1093 l 243 1051 b 435 1292 246 1197 317 1292 b 640 1210 538 1292 590 1210 b 703 1274 676 1210 700 1235 l 851 1274 b 660 1038 849 1132 778 1038 m 544 -22 b 71 438 246 -22 71 146 l 71 972 l 399 972 l 399 447 b 547 243 399 299 456 243 b 696 447 639 243 696 299 l 696 972 l 1018 972 l 1018 438 b 544 -22 1018 146 843 -22 "},"Ṹ":{"ha":1089,"x_min":0,"x_max":0,"o":"m 543 1486 l 842 1486 l 610 1306 l 401 1306 m 653 1038 b 461 1107 553 1038 500 1107 b 403 1050 429 1107 406 1083 l 250 1050 b 442 1257 250 1182 322 1257 b 636 1188 542 1257 596 1188 b 696 1244 671 1188 693 1214 l 844 1244 b 653 1038 844 1117 778 1038 m 544 -22 b 71 438 246 -22 71 146 l 71 972 l 399 972 l 399 447 b 547 243 399 299 456 243 b 696 447 639 243 696 299 l 696 972 l 1018 972 l 1018 438 b 544 -22 1018 146 843 -22 "},"V":{"ha":1092,"x_min":0,"x_max":0,"o":"m 1118 972 l 707 0 l 385 0 l -26 972 l 326 972 l 558 404 l 796 972 "},"W":{"ha":1675,"x_min":0,"x_max":0,"o":"m 1661 972 l 1350 0 l 999 0 l 842 519 l 676 0 l 325 0 l 14 972 l 351 972 l 521 419 l 700 972 l 1001 972 l 1171 413 l 1350 972 "},"Ẃ":{"ha":1675,"x_min":0,"x_max":0,"o":"m 900 1051 l 692 1051 l 875 1274 l 1174 1274 m 1661 972 l 1350 0 l 999 0 l 842 519 l 676 0 l 325 0 l 14 972 l 351 972 l 521 419 l 700 972 l 1001 972 l 1171 413 l 1350 972 "},"Ŵ":{"ha":1675,"x_min":0,"x_max":0,"o":"m 721 1051 l 526 1051 l 704 1274 l 971 1274 l 1149 1051 l 954 1051 l 838 1158 m 1661 972 l 1350 0 l 999 0 l 842 519 l 676 0 l 325 0 l 14 972 l 351 972 l 521 419 l 700 972 l 1001 972 l 1171 413 l 1350 972 "},"Ẅ":{"ha":1675,"x_min":0,"x_max":0,"o":"m 683 1040 b 558 1163 613 1040 558 1089 b 683 1286 558 1236 613 1286 b 808 1163 754 1286 808 1236 b 683 1040 808 1089 754 1040 m 992 1040 b 867 1163 921 1040 867 1089 b 992 1286 867 1236 921 1286 b 1117 1163 1063 1286 1117 1236 b 992 1040 1117 1089 1063 1040 m 1661 972 l 1350 0 l 999 0 l 842 519 l 676 0 l 325 0 l 14 972 l 351 972 l 521 419 l 700 972 l 1001 972 l 1171 413 l 1350 972 "},"Ẁ":{"ha":1675,"x_min":0,"x_max":0,"o":"m 775 1051 l 501 1274 l 800 1274 l 983 1051 m 1661 972 l 1350 0 l 999 0 l 842 519 l 676 0 l 325 0 l 14 972 l 351 972 l 521 419 l 700 972 l 1001 972 l 1171 413 l 1350 972 "},"X":{"ha":1058,"x_min":0,"x_max":0,"o":"m 694 0 l 526 260 l 363 0 l -11 0 l 340 490 l 1 972 l 369 972 l 535 728 l 696 972 l 1049 972 l 711 503 l 1069 0 "},"Y":{"ha":986,"x_min":0,"x_max":0,"o":"m 657 353 l 657 0 l 329 0 l 329 357 l -37 972 l 308 972 l 507 636 l 707 972 l 1024 972 "},"Ý":{"ha":986,"x_min":0,"x_max":0,"o":"m 556 1051 l 347 1051 l 531 1274 l 829 1274 m 657 353 l 657 0 l 329 0 l 329 357 l -37 972 l 308 972 l 507 636 l 707 972 l 1024 972 "},"Ŷ":{"ha":986,"x_min":0,"x_max":0,"o":"m 376 1051 l 182 1051 l 360 1274 l 626 1274 l 804 1051 l 610 1051 l 493 1158 m 657 353 l 657 0 l 329 0 l 329 357 l -37 972 l 308 972 l 507 636 l 707 972 l 1024 972 "},"Ÿ":{"ha":986,"x_min":0,"x_max":0,"o":"m 339 1040 b 214 1163 268 1040 214 1089 b 339 1286 214 1236 268 1286 b 464 1163 410 1286 464 1236 b 339 1040 464 1089 410 1040 m 647 1040 b 522 1163 576 1040 522 1089 b 647 1286 522 1236 576 1286 b 772 1163 718 1286 772 1236 b 647 1040 772 1089 718 1040 m 657 353 l 657 0 l 329 0 l 329 357 l -37 972 l 308 972 l 507 636 l 707 972 l 1024 972 "},"Ẏ":{"ha":986,"x_min":0,"x_max":0,"o":"m 493 1038 b 335 1196 400 1038 335 1103 b 493 1354 335 1289 400 1354 b 651 1196 586 1354 651 1289 b 493 1038 651 1103 586 1038 m 657 353 l 657 0 l 329 0 l 329 357 l -37 972 l 308 972 l 507 636 l 707 972 l 1024 972 "},"Ỵ":{"ha":986,"x_min":0,"x_max":0,"o":"m 657 353 l 657 0 l 329 0 l 329 357 l -37 972 l 308 972 l 507 636 l 707 972 l 1024 972 m 493 -69 b 618 -193 564 -69 618 -119 b 493 -314 618 -267 564 -314 b 368 -193 422 -314 368 -267 b 493 -69 368 -119 422 -69 "},"Ỳ":{"ha":986,"x_min":0,"x_max":0,"o":"m 431 1051 l 157 1274 l 456 1274 l 639 1051 m 657 353 l 657 0 l 329 0 l 329 357 l -37 972 l 308 972 l 507 636 l 707 972 l 1024 972 "},"Ỷ":{"ha":986,"x_min":0,"x_max":0,"o":"m 464 1256 b 385 1228 438 1256 413 1247 l 321 1344 b 500 1400 369 1382 433 1400 b 696 1229 617 1400 696 1331 b 553 1038 696 1139 644 1079 l 458 1128 b 522 1203 511 1153 522 1178 b 464 1256 522 1236 499 1256 m 657 353 l 657 0 l 329 0 l 329 357 l -37 972 l 308 972 l 507 636 l 707 972 l 1024 972 "},"Ȳ":{"ha":986,"x_min":0,"x_max":0,"o":"m 785 1081 l 201 1081 l 201 1244 l 785 1244 m 657 353 l 657 0 l 329 0 l 329 357 l -37 972 l 308 972 l 507 636 l 707 972 l 1024 972 "},"Ỹ":{"ha":986,"x_min":0,"x_max":0,"o":"m 400 1119 b 338 1051 364 1119 340 1093 l 189 1051 b 381 1292 192 1197 263 1292 b 586 1210 483 1292 536 1210 b 649 1274 622 1210 646 1235 l 797 1274 b 606 1038 794 1132 724 1038 b 400 1119 503 1038 450 1119 m 657 353 l 657 0 l 329 0 l 329 357 l -37 972 l 308 972 l 507 636 l 707 972 l 1024 972 "},"Z":{"ha":954,"x_min":0,"x_max":0,"o":"m 938 254 l 938 0 l 44 0 l 44 201 l 489 718 l 58 718 l 58 972 l 915 972 l 915 771 l 471 254 "},"Ź":{"ha":954,"x_min":0,"x_max":0,"o":"m 554 1051 l 346 1051 l 529 1274 l 828 1274 m 938 254 l 938 0 l 44 0 l 44 201 l 489 718 l 58 718 l 58 972 l 915 972 l 915 771 l 471 254 "},"Ž":{"ha":954,"x_min":0,"x_max":0,"o":"m 358 1051 l 181 1274 l 375 1274 l 492 1167 l 608 1274 l 803 1274 l 625 1051 m 938 254 l 938 0 l 44 0 l 44 201 l 489 718 l 58 718 l 58 972 l 915 972 l 915 771 l 471 254 "},"Ż":{"ha":954,"x_min":0,"x_max":0,"o":"m 492 1038 b 333 1196 399 1038 333 1103 b 492 1354 333 1289 399 1354 b 650 1196 585 1354 650 1289 b 492 1038 650 1103 585 1038 m 938 254 l 938 0 l 44 0 l 44 201 l 489 718 l 58 718 l 58 972 l 915 972 l 915 771 l 471 254 "},"Ẓ":{"ha":954,"x_min":0,"x_max":0,"o":"m 938 254 l 938 0 l 44 0 l 44 201 l 489 718 l 58 718 l 58 972 l 915 972 l 915 771 l 471 254 m 492 -69 b 617 -193 563 -69 617 -119 b 492 -314 617 -267 563 -314 b 367 -193 421 -314 367 -267 b 492 -69 367 -119 421 -69 "},"a":{"ha":888,"x_min":0,"x_max":0,"o":"m 410 774 b 821 408 671 774 821 661 l 821 0 l 529 0 l 529 100 b 314 -14 493 24 421 -14 b 32 222 128 -14 32 92 b 379 451 32 369 143 451 l 506 451 b 363 540 496 510 451 540 b 168 481 294 540 218 518 l 68 688 b 410 774 157 743 292 774 m 408 175 b 507 247 451 175 490 197 l 507 300 l 429 300 b 333 236 363 300 333 278 b 408 175 333 201 361 175 "},"á":{"ha":888,"x_min":0,"x_max":0,"o":"m 508 843 l 300 843 l 483 1065 l 782 1065 m 410 774 b 821 408 671 774 821 661 l 821 0 l 529 0 l 529 100 b 314 -14 493 24 421 -14 b 32 222 128 -14 32 92 b 379 451 32 369 143 451 l 506 451 b 363 540 496 510 451 540 b 168 481 294 540 218 518 l 68 688 b 410 774 157 743 292 774 m 408 175 b 507 247 451 175 490 197 l 507 300 l 429 300 b 333 236 363 300 333 278 b 408 175 333 201 361 175 "},"ă":{"ha":888,"x_min":0,"x_max":0,"o":"m 446 829 b 156 1065 279 829 163 919 l 343 1065 b 446 981 347 1014 389 981 b 549 1065 503 981 544 1014 l 736 1065 b 446 829 729 919 613 829 m 410 774 b 821 408 671 774 821 661 l 821 0 l 529 0 l 529 100 b 314 -14 493 24 421 -14 b 32 222 128 -14 32 92 b 379 451 32 369 143 451 l 506 451 b 363 540 496 510 451 540 b 168 481 294 540 218 518 l 68 688 b 410 774 157 743 292 774 m 408 175 b 507 247 451 175 490 197 l 507 300 l 429 300 b 333 236 363 300 333 278 b 408 175 333 201 361 175 "},"ắ":{"ha":888,"x_min":0,"x_max":0,"o":"m 508 1076 l 300 1076 l 442 1257 l 740 1257 m 446 829 b 156 1024 279 829 164 904 l 332 1024 b 446 965 338 989 382 965 b 560 1024 510 965 554 989 l 736 1024 b 446 829 728 904 613 829 m 410 774 b 821 408 671 774 821 661 l 821 0 l 529 0 l 529 100 b 314 -14 493 24 421 -14 b 32 222 128 -14 32 92 b 379 451 32 369 143 451 l 506 451 b 363 540 496 510 451 540 b 168 481 294 540 218 518 l 68 688 b 410 774 157 743 292 774 m 408 175 b 507 247 451 175 490 197 l 507 300 l 429 300 b 333 236 363 300 333 278 b 408 175 333 201 361 175 "},"ặ":{"ha":888,"x_min":0,"x_max":0,"o":"m 446 829 b 156 1065 279 829 163 919 l 343 1065 b 446 981 347 1014 389 981 b 549 1065 503 981 544 1014 l 736 1065 b 446 829 729 919 613 829 m 410 774 b 821 408 671 774 821 661 l 821 0 l 529 0 l 529 100 b 314 -14 493 24 421 -14 b 32 222 128 -14 32 92 b 379 451 32 369 143 451 l 506 451 b 363 540 496 510 451 540 b 168 481 294 540 218 518 l 68 688 b 410 774 157 743 292 774 m 408 175 b 507 247 451 175 490 197 l 507 300 l 429 300 b 333 236 363 300 333 278 b 408 175 333 201 361 175 m 414 -69 b 539 -193 485 -69 539 -119 b 414 -314 539 -267 485 -314 b 289 -193 343 -314 289 -267 b 414 -69 289 -119 343 -69 "},"ằ":{"ha":888,"x_min":0,"x_max":0,"o":"m 383 1076 l 151 1257 l 450 1257 l 592 1076 m 446 965 b 560 1024 510 965 554 989 l 736 1024 b 446 829 728 904 613 829 b 156 1024 279 829 164 904 l 332 1024 b 446 965 338 989 382 965 m 410 774 b 821 408 671 774 821 661 l 821 0 l 529 0 l 529 100 b 314 -14 493 24 421 -14 b 32 222 128 -14 32 92 b 379 451 32 369 143 451 l 506 451 b 363 540 496 510 451 540 b 168 481 294 540 218 518 l 68 688 b 410 774 157 743 292 774 m 408 175 b 507 247 451 175 490 197 l 507 300 l 429 300 b 333 236 363 300 333 278 b 408 175 333 201 361 175 "},"ẳ":{"ha":888,"x_min":0,"x_max":0,"o":"m 429 1183 b 365 1167 407 1183 388 1178 l 318 1251 b 456 1286 356 1275 404 1286 b 604 1164 544 1286 604 1240 b 494 1035 604 1103 553 1057 l 422 1097 b 469 1149 460 1117 469 1135 b 429 1183 469 1169 453 1183 m 446 829 b 156 1024 279 829 164 904 l 332 1024 b 446 965 338 989 382 965 b 560 1024 510 965 554 989 l 736 1024 b 446 829 728 904 613 829 m 410 774 b 821 408 671 774 821 661 l 821 0 l 529 0 l 529 100 b 314 -14 493 24 421 -14 b 32 222 128 -14 32 92 b 379 451 32 369 143 451 l 506 451 b 363 540 496 510 451 540 b 168 481 294 540 218 518 l 68 688 b 410 774 157 743 292 774 m 408 175 b 507 247 451 175 490 197 l 507 300 l 429 300 b 333 236 363 300 333 278 b 408 175 333 201 361 175 "},"ẵ":{"ha":888,"x_min":0,"x_max":0,"o":"m 360 1132 b 301 1075 328 1132 304 1108 l 149 1075 b 340 1282 149 1207 221 1282 b 535 1213 440 1282 494 1213 b 594 1269 569 1213 592 1239 l 743 1269 b 551 1063 743 1142 676 1063 b 360 1132 451 1063 399 1132 m 446 965 b 560 1024 510 965 554 989 l 736 1024 b 446 829 728 904 613 829 b 156 1024 279 829 164 904 l 332 1024 b 446 965 338 989 382 965 m 410 774 b 821 408 671 774 821 661 l 821 0 l 529 0 l 529 100 b 314 -14 493 24 421 -14 b 32 222 128 -14 32 92 b 379 451 32 369 143 451 l 506 451 b 363 540 496 510 451 540 b 168 481 294 540 218 518 l 68 688 b 410 774 157 743 292 774 m 408 175 b 507 247 451 175 490 197 l 507 300 l 429 300 b 333 236 363 300 333 278 b 408 175 333 201 361 175 "},"ǎ":{"ha":888,"x_min":0,"x_max":0,"o":"m 313 843 l 135 1065 l 329 1065 l 446 958 l 563 1065 l 757 1065 l 579 843 m 410 774 b 821 408 671 774 821 661 l 821 0 l 529 0 l 529 100 b 314 -14 493 24 421 -14 b 32 222 128 -14 32 92 b 379 451 32 369 143 451 l 506 451 b 363 540 496 510 451 540 b 168 481 294 540 218 518 l 68 688 b 410 774 157 743 292 774 m 408 175 b 507 247 451 175 490 197 l 507 300 l 429 300 b 333 236 363 300 333 278 b 408 175 333 201 361 175 "},"â":{"ha":888,"x_min":0,"x_max":0,"o":"m 329 843 l 135 843 l 313 1065 l 579 1065 l 757 843 l 563 843 l 446 950 m 410 774 b 821 408 671 774 821 661 l 821 0 l 529 0 l 529 100 b 314 -14 493 24 421 -14 b 32 222 128 -14 32 92 b 379 451 32 369 143 451 l 506 451 b 363 540 496 510 451 540 b 168 481 294 540 218 518 l 68 688 b 410 774 157 743 292 774 m 408 175 b 507 247 451 175 490 197 l 507 300 l 429 300 b 333 236 363 300 333 278 b 408 175 333 201 361 175 "},"ấ":{"ha":888,"x_min":0,"x_max":0,"o":"m 1088 1169 l 856 989 l 647 989 l 789 1169 m 329 843 l 135 843 l 314 1024 l 578 1024 l 757 843 l 563 843 l 446 928 m 410 774 b 821 408 671 774 821 661 l 821 0 l 529 0 l 529 100 b 314 -14 493 24 421 -14 b 32 222 128 -14 32 92 b 379 451 32 369 143 451 l 506 451 b 363 540 496 510 451 540 b 168 481 294 540 218 518 l 68 688 b 410 774 157 743 292 774 m 408 175 b 507 247 451 175 490 197 l 507 300 l 429 300 b 333 236 363 300 333 278 b 408 175 333 201 361 175 "},"ậ":{"ha":888,"x_min":0,"x_max":0,"o":"m 329 843 l 135 843 l 313 1065 l 579 1065 l 757 843 l 563 843 l 446 950 m 410 774 b 821 408 671 774 821 661 l 821 0 l 529 0 l 529 100 b 314 -14 493 24 421 -14 b 32 222 128 -14 32 92 b 379 451 32 369 143 451 l 506 451 b 363 540 496 510 451 540 b 168 481 294 540 218 518 l 68 688 b 410 774 157 743 292 774 m 408 175 b 507 247 451 175 490 197 l 507 300 l 429 300 b 333 236 363 300 333 278 b 408 175 333 201 361 175 m 414 -69 b 539 -193 485 -69 539 -119 b 414 -314 539 -267 485 -314 b 289 -193 343 -314 289 -267 b 414 -69 289 -119 343 -69 "},"ầ":{"ha":888,"x_min":0,"x_max":0,"o":"m 731 989 l 499 1169 l 797 1169 l 939 989 m 329 843 l 135 843 l 314 1024 l 578 1024 l 757 843 l 563 843 l 446 928 m 410 774 b 821 408 671 774 821 661 l 821 0 l 529 0 l 529 100 b 314 -14 493 24 421 -14 b 32 222 128 -14 32 92 b 379 451 32 369 143 451 l 506 451 b 363 540 496 510 451 540 b 168 481 294 540 218 518 l 68 688 b 410 774 157 743 292 774 m 408 175 b 507 247 451 175 490 197 l 507 300 l 429 300 b 333 236 363 300 333 278 b 408 175 333 201 361 175 "},"ẩ":{"ha":888,"x_min":0,"x_max":0,"o":"m 679 1110 b 615 1093 657 1110 638 1104 l 568 1178 b 706 1213 606 1201 654 1213 b 854 1090 794 1213 854 1167 b 744 961 854 1029 803 983 l 672 1024 b 719 1075 710 1043 719 1061 b 679 1110 719 1096 703 1110 m 329 843 l 135 843 l 314 1024 l 578 1024 l 757 843 l 563 843 l 446 928 m 410 774 b 821 408 671 774 821 661 l 821 0 l 529 0 l 529 100 b 314 -14 493 24 421 -14 b 32 222 128 -14 32 92 b 379 451 32 369 143 451 l 506 451 b 363 540 496 510 451 540 b 168 481 294 540 218 518 l 68 688 b 410 774 157 743 292 774 m 408 175 b 507 247 451 175 490 197 l 507 300 l 429 300 b 333 236 363 300 333 278 b 408 175 333 201 361 175 "},"ẫ":{"ha":888,"x_min":0,"x_max":0,"o":"m 360 1142 b 301 1085 328 1142 304 1118 l 149 1085 b 340 1292 149 1217 221 1292 b 535 1222 440 1292 494 1222 b 594 1279 569 1222 592 1249 l 743 1279 b 551 1072 743 1151 676 1072 b 360 1142 451 1072 399 1142 m 329 843 l 135 843 l 314 1024 l 578 1024 l 757 843 l 563 843 l 446 928 m 410 774 b 821 408 671 774 821 661 l 821 0 l 529 0 l 529 100 b 314 -14 493 24 421 -14 b 32 222 128 -14 32 92 b 379 451 32 369 143 451 l 506 451 b 363 540 496 510 451 540 b 168 481 294 540 218 518 l 68 688 b 410 774 157 743 292 774 m 408 175 b 507 247 451 175 490 197 l 507 300 l 429 300 b 333 236 363 300 333 278 b 408 175 333 201 361 175 "},"ȁ":{"ha":888,"x_min":0,"x_max":0,"o":"m 179 843 l 44 1065 l 315 1065 l 388 843 m 504 843 l 369 1065 l 640 1065 l 713 843 m 410 774 b 821 408 671 774 821 661 l 821 0 l 529 0 l 529 100 b 314 -14 493 24 421 -14 b 32 222 128 -14 32 92 b 379 451 32 369 143 451 l 506 451 b 363 540 496 510 451 540 b 168 481 294 540 218 518 l 68 688 b 410 774 157 743 292 774 m 408 175 b 507 247 451 175 490 197 l 507 300 l 429 300 b 333 236 363 300 333 278 b 408 175 333 201 361 175 "},"ä":{"ha":888,"x_min":0,"x_max":0,"o":"m 292 832 b 167 954 221 832 167 881 b 292 1078 167 1028 221 1078 b 417 954 363 1078 417 1028 b 292 832 417 881 363 832 m 600 832 b 475 954 529 832 475 881 b 600 1078 475 1028 529 1078 b 725 954 671 1078 725 1028 b 600 832 725 881 671 832 m 410 774 b 821 408 671 774 821 661 l 821 0 l 529 0 l 529 100 b 314 -14 493 24 421 -14 b 32 222 128 -14 32 92 b 379 451 32 369 143 451 l 506 451 b 363 540 496 510 451 540 b 168 481 294 540 218 518 l 68 688 b 410 774 157 743 292 774 m 408 175 b 507 247 451 175 490 197 l 507 300 l 429 300 b 333 236 363 300 333 278 b 408 175 333 201 361 175 "},"ạ":{"ha":888,"x_min":0,"x_max":0,"o":"m 410 774 b 821 408 671 774 821 661 l 821 0 l 529 0 l 529 100 b 314 -14 493 24 421 -14 b 32 222 128 -14 32 92 b 379 451 32 369 143 451 l 506 451 b 363 540 496 510 451 540 b 168 481 294 540 218 518 l 68 688 b 410 774 157 743 292 774 m 408 175 b 507 247 451 175 490 197 l 507 300 l 429 300 b 333 236 363 300 333 278 b 408 175 333 201 361 175 m 414 -69 b 539 -193 485 -69 539 -119 b 414 -314 539 -267 485 -314 b 289 -193 343 -314 289 -267 b 414 -69 289 -119 343 -69 "},"à":{"ha":888,"x_min":0,"x_max":0,"o":"m 383 843 l 110 1065 l 408 1065 l 592 843 m 410 774 b 821 408 671 774 821 661 l 821 0 l 529 0 l 529 100 b 314 -14 493 24 421 -14 b 32 222 128 -14 32 92 b 379 451 32 369 143 451 l 506 451 b 363 540 496 510 451 540 b 168 481 294 540 218 518 l 68 688 b 410 774 157 743 292 774 m 408 175 b 507 247 451 175 490 197 l 507 300 l 429 300 b 333 236 363 300 333 278 b 408 175 333 201 361 175 "},"ả":{"ha":888,"x_min":0,"x_max":0,"o":"m 417 1047 b 338 1019 390 1047 365 1039 l 274 1136 b 453 1192 322 1174 386 1192 b 649 1021 569 1192 649 1122 b 506 829 649 931 597 871 l 411 919 b 475 994 464 944 475 969 b 417 1047 475 1028 451 1047 m 410 774 b 821 408 671 774 821 661 l 821 0 l 529 0 l 529 100 b 314 -14 493 24 421 -14 b 32 222 128 -14 32 92 b 379 451 32 369 143 451 l 506 451 b 363 540 496 510 451 540 b 168 481 294 540 218 518 l 68 688 b 410 774 157 743 292 774 m 408 175 b 507 247 451 175 490 197 l 507 300 l 429 300 b 333 236 363 300 333 278 b 408 175 333 201 361 175 "},"ȃ":{"ha":888,"x_min":0,"x_max":0,"o":"m 446 928 b 343 843 389 928 347 894 l 156 843 b 446 1079 163 989 279 1079 b 736 843 613 1079 729 989 l 549 843 b 446 928 544 894 503 928 m 410 774 b 821 408 671 774 821 661 l 821 0 l 529 0 l 529 100 b 314 -14 493 24 421 -14 b 32 222 128 -14 32 92 b 379 451 32 369 143 451 l 506 451 b 363 540 496 510 451 540 b 168 481 294 540 218 518 l 68 688 b 410 774 157 743 292 774 m 408 175 b 507 247 451 175 490 197 l 507 300 l 429 300 b 333 236 363 300 333 278 b 408 175 333 201 361 175 "},"ā":{"ha":888,"x_min":0,"x_max":0,"o":"m 738 872 l 154 872 l 154 1036 l 738 1036 m 410 774 b 821 408 671 774 821 661 l 821 0 l 529 0 l 529 100 b 314 -14 493 24 421 -14 b 32 222 128 -14 32 92 b 379 451 32 369 143 451 l 506 451 b 363 540 496 510 451 540 b 168 481 294 540 218 518 l 68 688 b 410 774 157 743 292 774 m 408 175 b 507 247 451 175 490 197 l 507 300 l 429 300 b 333 236 363 300 333 278 b 408 175 333 201 361 175 "},"ą":{"ha":888,"x_min":0,"x_max":0,"o":"m 856 -301 b 699 -333 822 -319 758 -333 b 479 -162 560 -333 479 -267 b 571 0 479 -99 511 -44 l 529 0 l 529 100 b 314 -14 493 24 421 -14 b 32 222 128 -14 32 92 b 379 451 32 369 143 451 l 506 451 b 363 540 496 510 451 540 b 168 481 294 540 218 518 l 68 688 b 410 774 157 743 292 774 b 821 408 671 774 821 661 l 821 0 b 663 -135 700 -53 663 -92 b 736 -192 663 -167 685 -192 b 818 -172 767 -192 797 -182 m 408 175 b 507 247 451 175 490 197 l 507 300 l 429 300 b 333 236 363 300 333 278 b 408 175 333 201 361 175 "},"å":{"ha":888,"x_min":0,"x_max":0,"o":"m 446 819 b 251 1006 336 819 251 901 b 446 1192 251 1110 336 1192 b 640 1006 556 1192 640 1110 b 446 819 640 901 556 819 m 446 1081 b 371 1006 404 1081 371 1050 b 446 931 371 961 404 931 b 521 1006 488 931 521 961 b 446 1081 521 1050 488 1081 m 410 774 b 821 408 671 774 821 661 l 821 0 l 529 0 l 529 100 b 314 -14 493 24 421 -14 b 32 222 128 -14 32 92 b 379 451 32 369 143 451 l 506 451 b 363 540 496 510 451 540 b 168 481 294 540 218 518 l 68 688 b 410 774 157 743 292 774 m 408 175 b 507 247 451 175 490 197 l 507 300 l 429 300 b 333 236 363 300 333 278 b 408 175 333 201 361 175 "},"ǻ":{"ha":888,"x_min":0,"x_max":0,"o":"m 446 819 b 251 1006 336 819 251 901 b 446 1192 251 1110 336 1192 b 511 1182 468 1192 490 1188 l 639 1317 l 790 1204 l 618 1093 b 640 1006 632 1067 640 1038 b 446 819 640 901 556 819 m 446 1081 b 371 1006 404 1081 371 1050 b 446 931 371 961 404 931 b 521 1006 488 931 521 961 b 446 1081 521 1050 488 1081 m 410 774 b 821 408 671 774 821 661 l 821 0 l 529 0 l 529 100 b 314 -14 493 24 421 -14 b 32 222 128 -14 32 92 b 379 451 32 369 143 451 l 506 451 b 363 540 496 510 451 540 b 168 481 294 540 218 518 l 68 688 b 410 774 157 743 292 774 m 408 175 b 507 247 451 175 490 197 l 507 300 l 429 300 b 333 236 363 300 333 278 b 408 175 333 201 361 175 "},"ã":{"ha":888,"x_min":0,"x_max":0,"o":"m 353 911 b 290 843 317 911 293 885 l 142 843 b 333 1083 144 989 215 1083 b 539 1001 436 1083 489 1001 b 601 1065 575 1001 599 1026 l 750 1065 b 558 829 747 924 676 829 b 353 911 456 829 403 911 m 410 774 b 821 408 671 774 821 661 l 821 0 l 529 0 l 529 100 b 314 -14 493 24 421 -14 b 32 222 128 -14 32 92 b 379 451 32 369 143 451 l 506 451 b 363 540 496 510 451 540 b 168 481 294 540 218 518 l 68 688 b 410 774 157 743 292 774 m 408 175 b 507 247 451 175 490 197 l 507 300 l 429 300 b 333 236 363 300 333 278 b 408 175 333 201 361 175 "},"æ":{"ha":1393,"x_min":0,"x_max":0,"o":"m 1364 383 b 1358 304 1364 354 1361 326 l 832 304 b 982 218 853 249 904 218 b 1142 274 1043 218 1089 236 l 1306 108 b 978 -14 1229 28 1117 -14 b 654 100 856 -14 739 19 b 375 -14 585 13 488 -14 b 32 233 160 -14 32 85 b 379 456 32 371 143 456 l 504 456 b 364 540 493 508 450 540 b 168 481 292 540 218 518 l 68 688 b 408 774 157 743 288 774 b 683 690 521 774 617 747 b 951 774 757 743 850 774 b 1364 383 1165 774 1364 636 m 946 560 b 824 456 883 560 838 521 l 1064 456 b 946 560 1051 521 1007 560 m 411 175 b 507 278 472 175 507 214 l 507 304 l 429 304 b 333 240 361 304 333 279 b 411 175 333 201 360 175 "},"ǽ":{"ha":1393,"x_min":0,"x_max":0,"o":"m 726 843 l 518 843 l 701 1065 l 1000 1065 m 1364 383 b 1358 304 1364 354 1361 326 l 832 304 b 982 218 853 249 904 218 b 1142 274 1043 218 1089 236 l 1306 108 b 978 -14 1229 28 1117 -14 b 654 100 856 -14 739 19 b 375 -14 585 13 488 -14 b 32 233 160 -14 32 85 b 379 456 32 371 143 456 l 504 456 b 364 540 493 508 450 540 b 168 481 292 540 218 518 l 68 688 b 408 774 157 743 288 774 b 683 690 521 774 617 747 b 951 774 757 743 850 774 b 1364 383 1165 774 1364 636 m 946 560 b 824 456 883 560 838 521 l 1064 456 b 946 560 1051 521 1007 560 m 411 175 b 507 278 472 175 507 214 l 507 304 l 429 304 b 333 240 361 304 333 279 b 411 175 333 201 360 175 "},"b":{"ha":972,"x_min":0,"x_max":0,"o":"m 576 774 b 943 381 775 774 943 625 b 576 -14 943 136 775 -14 b 368 63 482 -14 414 11 l 368 0 l 69 0 l 69 1031 l 383 1031 l 383 708 b 576 774 429 753 493 774 m 501 231 b 625 381 571 231 625 282 b 501 529 625 479 571 529 b 378 381 432 529 378 479 b 501 231 378 282 432 231 "},"c":{"ha":854,"x_min":0,"x_max":0,"o":"m 478 -14 b 29 381 215 -14 29 149 b 478 774 29 611 215 774 b 851 549 663 774 801 689 l 608 429 b 476 529 576 500 531 529 b 347 381 406 529 347 479 b 476 231 347 281 406 231 b 608 331 531 231 576 260 l 851 211 b 478 -14 801 71 663 -14 "},"ć":{"ha":854,"x_min":0,"x_max":0,"o":"m 488 1065 l 786 1065 l 513 843 l 304 843 m 478 -14 b 29 381 215 -14 29 149 b 478 774 29 611 215 774 b 851 549 663 774 801 689 l 608 429 b 476 529 576 500 531 529 b 347 381 406 529 347 479 b 476 231 347 281 406 231 b 608 331 531 231 576 260 l 851 211 b 478 -14 801 71 663 -14 "},"č":{"ha":854,"x_min":0,"x_max":0,"o":"m 317 843 l 139 1065 l 333 1065 l 450 958 l 567 1065 l 761 1065 l 583 843 m 476 231 b 608 331 531 231 576 260 l 851 211 b 478 -14 801 71 663 -14 b 29 381 215 -14 29 149 b 478 774 29 611 215 774 b 851 549 663 774 801 689 l 608 429 b 476 529 576 500 531 529 b 347 381 406 529 347 479 b 476 231 347 281 406 231 "},"ç":{"ha":854,"x_min":0,"x_max":0,"o":"m 476 231 b 608 331 531 231 576 260 l 851 211 b 514 -12 804 81 681 -3 l 500 -72 b 618 -183 588 -83 618 -135 b 382 -333 618 -276 524 -333 b 246 -304 335 -333 276 -321 l 285 -189 b 368 -206 306 -197 335 -206 b 435 -172 415 -206 435 -192 b 378 -144 435 -156 418 -144 l 321 -144 l 354 -1 b 29 381 158 42 29 188 b 478 774 29 611 215 774 b 851 549 663 774 801 689 l 608 429 b 476 529 576 500 531 529 b 347 381 406 529 347 479 b 476 231 347 281 406 231 "},"ḉ":{"ha":854,"x_min":0,"x_max":0,"o":"m 513 843 l 304 843 l 488 1065 l 786 1065 m 476 231 b 608 331 531 231 576 260 l 851 211 b 514 -12 804 81 681 -3 l 500 -72 b 618 -183 588 -83 618 -135 b 382 -333 618 -276 524 -333 b 246 -304 335 -333 276 -321 l 285 -189 b 368 -206 306 -197 335 -206 b 435 -172 415 -206 435 -192 b 378 -144 435 -156 418 -144 l 321 -144 l 354 -1 b 29 381 158 42 29 188 b 478 774 29 611 215 774 b 851 549 663 774 801 689 l 608 429 b 476 529 576 500 531 529 b 347 381 406 529 347 479 b 476 231 347 281 406 231 "},"ĉ":{"ha":854,"x_min":0,"x_max":0,"o":"m 333 843 l 139 843 l 317 1065 l 583 1065 l 761 843 l 567 843 l 450 950 m 476 231 b 608 331 531 231 576 260 l 851 211 b 478 -14 801 71 663 -14 b 29 381 215 -14 29 149 b 478 774 29 611 215 774 b 851 549 663 774 801 689 l 608 429 b 476 529 576 500 531 529 b 347 381 406 529 347 479 b 476 231 347 281 406 231 "},"ċ":{"ha":854,"x_min":0,"x_max":0,"o":"m 450 829 b 292 988 357 829 292 894 b 450 1146 292 1081 357 1146 b 608 988 543 1146 608 1081 b 450 829 608 894 543 829 m 478 -14 b 29 381 215 -14 29 149 b 478 774 29 611 215 774 b 851 549 663 774 801 689 l 608 429 b 476 529 576 500 531 529 b 347 381 406 529 347 479 b 476 231 347 281 406 231 b 608 331 531 231 576 260 l 851 211 b 478 -14 801 71 663 -14 "},"d":{"ha":979,"x_min":0,"x_max":0,"o":"m 910 1031 l 910 0 l 611 0 l 611 63 b 403 -14 565 11 497 -14 b 36 381 204 -14 36 136 b 403 774 36 625 204 774 b 596 708 486 774 550 753 l 596 1031 m 478 231 b 601 381 547 231 601 282 b 478 529 601 479 547 529 b 354 381 408 529 354 479 b 478 231 354 282 408 231 "},"ð":{"ha":939,"x_min":0,"x_max":0,"o":"m 806 844 b 910 469 874 751 910 625 b 431 -22 910 158 718 -22 b 29 318 206 -22 29 113 b 372 629 29 506 185 629 b 576 569 460 629 526 608 b 522 742 574 642 556 700 l 200 625 l 151 751 l 354 825 b 303 828 338 826 321 828 b 135 803 253 828 190 821 l 106 1029 b 322 1053 178 1044 243 1053 b 699 950 475 1053 601 1018 l 828 997 l 876 871 l 806 844 m 456 204 b 563 303 515 204 563 242 b 456 403 563 364 515 403 b 349 303 396 403 349 364 b 456 204 349 242 396 204 "},"ď":{"ha":979,"x_min":0,"x_max":0,"o":"m 1231 1100 l 1189 808 l 1011 808 l 1011 1100 m 596 1031 l 910 1031 l 910 0 l 611 0 l 611 63 b 403 -14 565 11 497 -14 b 36 381 204 -14 36 136 b 403 774 36 625 204 774 b 596 708 486 774 550 753 m 478 231 b 601 381 547 231 601 282 b 478 529 601 479 547 529 b 354 381 408 529 354 479 b 478 231 354 282 408 231 "},"đ":{"ha":979,"x_min":0,"x_max":0,"o":"m 981 813 l 910 813 l 910 0 l 611 0 l 611 63 b 403 -14 565 11 497 -14 b 36 381 204 -14 36 136 b 403 774 36 625 204 774 b 596 708 486 774 550 753 l 596 813 l 386 813 l 386 965 l 596 965 l 596 1031 l 910 1031 l 910 965 l 981 965 m 478 231 b 601 381 547 231 601 282 b 478 529 601 479 547 529 b 354 381 408 529 354 479 b 478 231 354 282 408 231 "},"ḍ":{"ha":979,"x_min":0,"x_max":0,"o":"m 910 1031 l 910 0 l 611 0 l 611 63 b 403 -14 565 11 497 -14 b 36 381 204 -14 36 136 b 403 774 36 625 204 774 b 596 708 486 774 550 753 l 596 1031 m 478 231 b 601 381 547 231 601 282 b 478 529 601 479 547 529 b 354 381 408 529 354 479 b 478 231 354 282 408 231 m 531 -69 b 656 -193 601 -69 656 -119 b 531 -314 656 -267 601 -314 b 406 -193 460 -314 406 -267 b 531 -69 406 -119 460 -69 "},"ḏ":{"ha":979,"x_min":0,"x_max":0,"o":"m 910 1031 l 910 0 l 611 0 l 611 63 b 403 -14 565 11 497 -14 b 36 381 204 -14 36 136 b 403 774 36 625 204 774 b 596 708 486 774 550 753 l 596 1031 m 478 231 b 601 381 547 231 601 282 b 478 529 601 479 547 529 b 354 381 408 529 354 479 b 478 231 354 282 408 231 m 239 -103 l 822 -103 l 822 -267 l 239 -267 "},"ǆ":{"ha":1747,"x_min":0,"x_max":0,"o":"m 1228 843 l 1050 1065 l 1244 1065 l 1361 958 l 1478 1065 l 1672 1065 l 1494 843 m 596 1031 l 910 1031 l 910 0 l 611 0 l 611 63 b 403 -14 565 11 497 -14 b 36 381 204 -14 36 136 b 403 774 36 625 204 774 b 596 708 486 774 550 753 m 1725 229 l 1725 0 l 1000 0 l 1000 181 l 1314 531 l 1011 531 l 1011 760 l 1710 760 l 1710 579 l 1396 229 m 478 231 b 601 381 547 231 601 282 b 478 529 601 479 547 529 b 354 381 408 529 354 479 b 478 231 354 282 408 231 "},"e":{"ha":907,"x_min":0,"x_max":0,"o":"m 878 381 b 874 307 878 358 875 329 l 346 307 b 499 218 368 249 421 218 b 657 274 568 218 607 236 l 821 108 b 489 -14 747 28 640 -14 b 29 381 210 -14 29 154 b 460 774 29 611 214 774 b 878 381 685 774 878 638 m 463 560 b 340 458 397 560 353 522 l 585 458 b 463 560 572 522 526 560 "},"é":{"ha":907,"x_min":0,"x_max":0,"o":"m 517 843 l 308 843 l 492 1065 l 790 1065 m 878 381 b 874 307 878 358 875 329 l 346 307 b 499 218 368 249 421 218 b 657 274 568 218 607 236 l 821 108 b 489 -14 747 28 640 -14 b 29 381 210 -14 29 154 b 460 774 29 611 214 774 b 878 381 685 774 878 638 m 463 560 b 340 458 397 560 353 522 l 585 458 b 463 560 572 522 526 560 "},"ĕ":{"ha":907,"x_min":0,"x_max":0,"o":"m 454 829 b 164 1065 288 829 171 919 l 351 1065 b 454 981 356 1014 397 981 b 557 1065 511 981 553 1014 l 744 1065 b 454 829 738 919 621 829 m 878 381 b 874 307 878 358 875 329 l 346 307 b 499 218 368 249 421 218 b 657 274 568 218 607 236 l 821 108 b 489 -14 747 28 640 -14 b 29 381 210 -14 29 154 b 460 774 29 611 214 774 b 878 381 685 774 878 638 m 463 560 b 340 458 397 560 353 522 l 585 458 b 463 560 572 522 526 560 "},"ě":{"ha":907,"x_min":0,"x_max":0,"o":"m 321 843 l 143 1065 l 338 1065 l 454 958 l 571 1065 l 765 1065 l 588 843 m 878 381 b 874 307 878 358 875 329 l 346 307 b 499 218 368 249 421 218 b 657 274 568 218 607 236 l 821 108 b 489 -14 747 28 640 -14 b 29 381 210 -14 29 154 b 460 774 29 611 214 774 b 878 381 685 774 878 638 m 463 560 b 340 458 397 560 353 522 l 585 458 b 463 560 572 522 526 560 "},"ḝ":{"ha":907,"x_min":0,"x_max":0,"o":"m 454 829 b 164 1065 288 829 171 919 l 351 1065 b 454 981 356 1014 397 981 b 557 1065 511 981 553 1014 l 744 1065 b 454 829 738 919 621 829 m 878 381 b 874 307 878 358 875 329 l 346 307 b 499 218 368 249 421 218 b 657 274 568 218 607 236 l 821 108 b 529 -12 754 35 660 -6 l 515 -72 b 633 -183 603 -83 633 -135 b 397 -333 633 -276 539 -333 b 261 -304 350 -333 292 -321 l 300 -189 b 383 -206 321 -197 350 -206 b 450 -172 431 -206 450 -192 b 393 -144 450 -156 433 -144 l 336 -144 l 369 -3 b 29 381 160 38 29 189 b 460 774 29 611 214 774 b 878 381 685 774 878 638 m 463 560 b 340 458 397 560 353 522 l 585 458 b 463 560 572 522 526 560 "},"ê":{"ha":907,"x_min":0,"x_max":0,"o":"m 338 843 l 143 843 l 321 1065 l 588 1065 l 765 843 l 571 843 l 454 950 m 878 381 b 874 307 878 358 875 329 l 346 307 b 499 218 368 249 421 218 b 657 274 568 218 607 236 l 821 108 b 489 -14 747 28 640 -14 b 29 381 210 -14 29 154 b 460 774 29 611 214 774 b 878 381 685 774 878 638 m 463 560 b 340 458 397 560 353 522 l 585 458 b 463 560 572 522 526 560 "},"ế":{"ha":907,"x_min":0,"x_max":0,"o":"m 864 989 l 656 989 l 797 1169 l 1096 1169 m 338 843 l 143 843 l 322 1024 l 586 1024 l 765 843 l 571 843 l 454 928 m 460 774 b 878 381 685 774 878 638 b 874 307 878 358 875 329 l 346 307 b 499 218 368 249 421 218 b 657 274 568 218 607 236 l 821 108 b 489 -14 747 28 640 -14 b 29 381 210 -14 29 154 b 460 774 29 611 214 774 m 463 560 b 340 458 397 560 353 522 l 585 458 b 463 560 572 522 526 560 "},"ệ":{"ha":907,"x_min":0,"x_max":0,"o":"m 338 843 l 143 843 l 321 1065 l 588 1065 l 765 843 l 571 843 l 454 950 m 878 381 b 874 307 878 358 875 329 l 346 307 b 499 218 368 249 421 218 b 657 274 568 218 607 236 l 821 108 b 489 -14 747 28 640 -14 b 29 381 210 -14 29 154 b 460 774 29 611 214 774 b 878 381 685 774 878 638 m 463 560 b 340 458 397 560 353 522 l 585 458 b 463 560 572 522 526 560 m 454 -69 b 579 -193 525 -69 579 -119 b 454 -314 579 -267 525 -314 b 329 -193 383 -314 329 -267 b 454 -69 329 -119 383 -69 "},"ề":{"ha":907,"x_min":0,"x_max":0,"o":"m 739 989 l 507 1169 l 806 1169 l 947 989 m 338 843 l 143 843 l 322 1024 l 586 1024 l 765 843 l 571 843 l 454 928 m 460 774 b 878 381 685 774 878 638 b 874 307 878 358 875 329 l 346 307 b 499 218 368 249 421 218 b 657 274 568 218 607 236 l 821 108 b 489 -14 747 28 640 -14 b 29 381 210 -14 29 154 b 460 774 29 611 214 774 m 463 560 b 340 458 397 560 353 522 l 585 458 b 463 560 572 522 526 560 "},"ể":{"ha":907,"x_min":0,"x_max":0,"o":"m 688 1110 b 624 1093 665 1110 646 1104 l 576 1178 b 714 1213 614 1201 663 1213 b 863 1090 803 1213 863 1167 b 753 961 863 1029 811 983 l 681 1024 b 728 1075 718 1043 728 1061 b 688 1110 728 1096 711 1110 m 338 843 l 143 843 l 322 1024 l 586 1024 l 765 843 l 571 843 l 454 928 m 878 381 b 874 307 878 358 875 329 l 346 307 b 499 218 368 249 421 218 b 657 274 568 218 607 236 l 821 108 b 489 -14 747 28 640 -14 b 29 381 210 -14 29 154 b 460 774 29 611 214 774 b 878 381 685 774 878 638 m 463 560 b 340 458 397 560 353 522 l 585 458 b 463 560 572 522 526 560 "},"ễ":{"ha":907,"x_min":0,"x_max":0,"o":"m 368 1142 b 310 1085 336 1142 313 1118 l 157 1085 b 349 1292 157 1217 229 1292 b 543 1222 449 1292 503 1222 b 603 1279 578 1222 600 1249 l 751 1279 b 560 1072 751 1151 685 1072 b 368 1142 460 1072 407 1142 m 338 843 l 143 843 l 322 1024 l 586 1024 l 765 843 l 571 843 l 454 928 m 878 381 b 874 307 878 358 875 329 l 346 307 b 499 218 368 249 421 218 b 657 274 568 218 607 236 l 821 108 b 489 -14 747 28 640 -14 b 29 381 210 -14 29 154 b 460 774 29 611 214 774 b 878 381 685 774 878 638 m 463 560 b 340 458 397 560 353 522 l 585 458 b 463 560 572 522 526 560 "},"ȅ":{"ha":907,"x_min":0,"x_max":0,"o":"m 188 843 l 53 1065 l 324 1065 l 396 843 m 513 843 l 378 1065 l 649 1065 l 721 843 m 878 381 b 874 307 878 358 875 329 l 346 307 b 499 218 368 249 421 218 b 657 274 568 218 607 236 l 821 108 b 489 -14 747 28 640 -14 b 29 381 210 -14 29 154 b 460 774 29 611 214 774 b 878 381 685 774 878 638 m 463 560 b 340 458 397 560 353 522 l 585 458 b 463 560 572 522 526 560 "},"ë":{"ha":907,"x_min":0,"x_max":0,"o":"m 300 832 b 175 954 229 832 175 881 b 300 1078 175 1028 229 1078 b 425 954 371 1078 425 1028 b 300 832 425 881 371 832 m 608 832 b 483 954 538 832 483 881 b 608 1078 483 1028 538 1078 b 733 954 679 1078 733 1028 b 608 832 733 881 679 832 m 878 381 b 874 307 878 358 875 329 l 346 307 b 499 218 368 249 421 218 b 657 274 568 218 607 236 l 821 108 b 489 -14 747 28 640 -14 b 29 381 210 -14 29 154 b 460 774 29 611 214 774 b 878 381 685 774 878 638 m 463 560 b 340 458 397 560 353 522 l 585 458 b 463 560 572 522 526 560 "},"ė":{"ha":907,"x_min":0,"x_max":0,"o":"m 454 829 b 296 988 361 829 296 894 b 454 1146 296 1081 361 1146 b 613 988 547 1146 613 1081 b 454 829 613 894 547 829 m 878 381 b 874 307 878 358 875 329 l 346 307 b 499 218 368 249 421 218 b 657 274 568 218 607 236 l 821 108 b 489 -14 747 28 640 -14 b 29 381 210 -14 29 154 b 460 774 29 611 214 774 b 878 381 685 774 878 638 m 463 560 b 340 458 397 560 353 522 l 585 458 b 463 560 572 522 526 560 "},"ẹ":{"ha":907,"x_min":0,"x_max":0,"o":"m 878 381 b 874 307 878 358 875 329 l 346 307 b 499 218 368 249 421 218 b 657 274 568 218 607 236 l 821 108 b 489 -14 747 28 640 -14 b 29 381 210 -14 29 154 b 460 774 29 611 214 774 b 878 381 685 774 878 638 m 463 560 b 340 458 397 560 353 522 l 585 458 b 463 560 572 522 526 560 m 454 -69 b 579 -193 525 -69 579 -119 b 454 -314 579 -267 525 -314 b 329 -193 383 -314 329 -267 b 454 -69 329 -119 383 -69 "},"è":{"ha":907,"x_min":0,"x_max":0,"o":"m 392 843 l 118 1065 l 417 1065 l 600 843 m 878 381 b 874 307 878 358 875 329 l 346 307 b 499 218 368 249 421 218 b 657 274 568 218 607 236 l 821 108 b 489 -14 747 28 640 -14 b 29 381 210 -14 29 154 b 460 774 29 611 214 774 b 878 381 685 774 878 638 m 463 560 b 340 458 397 560 353 522 l 585 458 b 463 560 572 522 526 560 "},"ẻ":{"ha":907,"x_min":0,"x_max":0,"o":"m 425 1047 b 346 1019 399 1047 374 1039 l 282 1136 b 461 1192 331 1174 394 1192 b 657 1021 578 1192 657 1122 b 514 829 657 931 606 871 l 419 919 b 483 994 472 944 483 969 b 425 1047 483 1028 460 1047 m 878 381 b 874 307 878 358 875 329 l 346 307 b 499 218 368 249 421 218 b 657 274 568 218 607 236 l 821 108 b 489 -14 747 28 640 -14 b 29 381 210 -14 29 154 b 460 774 29 611 214 774 b 878 381 685 774 878 638 m 463 560 b 340 458 397 560 353 522 l 585 458 b 463 560 572 522 526 560 "},"ȇ":{"ha":907,"x_min":0,"x_max":0,"o":"m 454 928 b 351 843 397 928 356 894 l 164 843 b 454 1079 171 989 288 1079 b 744 843 621 1079 738 989 l 557 843 b 454 928 553 894 511 928 m 878 381 b 874 307 878 358 875 329 l 346 307 b 499 218 368 249 421 218 b 657 274 568 218 607 236 l 821 108 b 489 -14 747 28 640 -14 b 29 381 210 -14 29 154 b 460 774 29 611 214 774 b 878 381 685 774 878 638 m 463 560 b 340 458 397 560 353 522 l 585 458 b 463 560 572 522 526 560 "},"ē":{"ha":907,"x_min":0,"x_max":0,"o":"m 746 872 l 163 872 l 163 1036 l 746 1036 m 878 381 b 874 307 878 358 875 329 l 346 307 b 499 218 368 249 421 218 b 657 274 568 218 607 236 l 821 108 b 489 -14 747 28 640 -14 b 29 381 210 -14 29 154 b 460 774 29 611 214 774 b 878 381 685 774 878 638 m 463 560 b 340 458 397 560 353 522 l 585 458 b 463 560 572 522 526 560 "},"ḗ":{"ha":907,"x_min":0,"x_max":0,"o":"m 517 1097 l 308 1097 l 450 1278 l 749 1278 m 746 856 l 163 856 l 163 1011 l 746 1011 m 878 381 b 874 307 878 358 875 329 l 346 307 b 499 218 368 249 421 218 b 657 274 568 218 607 236 l 821 108 b 489 -14 747 28 640 -14 b 29 381 210 -14 29 154 b 460 774 29 611 214 774 b 878 381 685 774 878 638 m 463 560 b 340 458 397 560 353 522 l 585 458 b 463 560 572 522 526 560 "},"ḕ":{"ha":907,"x_min":0,"x_max":0,"o":"m 392 1097 l 160 1278 l 458 1278 l 600 1097 m 163 1011 l 746 1011 l 746 856 l 163 856 m 878 381 b 874 307 878 358 875 329 l 346 307 b 499 218 368 249 421 218 b 657 274 568 218 607 236 l 821 108 b 489 -14 747 28 640 -14 b 29 381 210 -14 29 154 b 460 774 29 611 214 774 b 878 381 685 774 878 638 m 463 560 b 340 458 397 560 353 522 l 585 458 b 463 560 572 522 526 560 "},"ę":{"ha":907,"x_min":0,"x_max":0,"o":"m 878 381 b 874 307 878 358 875 329 l 346 307 b 499 218 368 249 421 218 b 657 274 568 218 607 236 l 822 108 b 763 57 804 89 785 71 b 608 -124 631 -25 608 -75 b 685 -192 608 -162 636 -192 b 764 -172 713 -192 743 -182 l 801 -301 b 644 -333 768 -319 704 -333 b 425 -158 506 -333 425 -267 b 496 -14 425 -104 451 -53 l 489 -14 b 29 381 210 -14 29 154 b 460 774 29 611 214 774 b 878 381 685 774 878 638 m 463 560 b 340 458 397 560 353 522 l 585 458 b 463 560 572 522 526 560 "},"ẽ":{"ha":907,"x_min":0,"x_max":0,"o":"m 361 911 b 299 843 325 911 301 885 l 150 843 b 342 1083 153 989 224 1083 b 547 1001 444 1083 497 1001 b 610 1065 583 1001 607 1026 l 758 1065 b 567 829 756 924 685 829 b 361 911 464 829 411 911 m 878 381 b 874 307 878 358 875 329 l 346 307 b 499 218 368 249 421 218 b 657 274 568 218 607 236 l 821 108 b 489 -14 747 28 640 -14 b 29 381 210 -14 29 154 b 460 774 29 611 214 774 b 878 381 685 774 878 638 m 463 560 b 340 458 397 560 353 522 l 585 458 b 463 560 572 522 526 560 "},"ə":{"ha":907,"x_min":0,"x_max":0,"o":"m 418 774 b 878 379 697 774 878 606 b 447 -14 878 149 693 -14 b 29 379 222 -14 29 122 b 33 453 29 401 32 431 l 561 453 b 408 542 539 511 486 542 b 250 486 339 542 300 524 l 86 651 b 418 774 160 732 267 774 m 444 200 b 567 301 510 200 554 238 l 322 301 b 444 200 335 238 381 200 "},"ʒ":{"ha":813,"x_min":0,"x_max":0,"o":"m 558 354 b 793 63 713 314 793 206 b 354 -283 793 -112 661 -283 b -24 -189 222 -283 79 -251 l 82 53 b 343 -25 165 0 261 -25 b 469 63 417 -25 469 6 b 354 143 469 113 438 143 l 225 143 l 225 344 l 374 513 l 21 513 l 21 760 l 740 760 l 740 558 l 558 354 "},"ǯ":{"ha":813,"x_min":0,"x_max":0,"o":"m 244 843 l 67 1065 l 261 1065 l 378 958 l 494 1065 l 689 1065 l 511 843 m 558 354 b 793 63 713 314 793 206 b 354 -283 793 -112 661 -283 b -24 -189 222 -283 79 -251 l 82 53 b 343 -25 165 0 261 -25 b 469 63 417 -25 469 6 b 354 143 469 113 438 143 l 225 143 l 225 344 l 374 513 l 21 513 l 21 760 l 740 760 l 740 558 l 558 354 "},"f":{"ha":592,"x_min":0,"x_max":0,"o":"m 408 718 l 574 718 l 574 489 l 418 489 l 418 0 l 104 0 l 104 489 l 0 489 l 0 718 l 104 718 l 104 722 b 443 1044 104 918 226 1044 b 629 1007 510 1044 583 1032 l 554 789 b 483 807 533 799 508 807 b 408 719 439 807 408 781 "},"g":{"ha":988,"x_min":0,"x_max":0,"o":"m 918 760 l 918 151 b 456 -283 918 -143 746 -283 b 75 -189 306 -283 169 -251 l 181 25 b 424 -50 240 -21 342 -50 b 604 108 553 -50 604 7 l 604 122 b 394 42 557 68 488 42 b 29 408 201 42 29 183 b 394 774 29 633 201 774 b 619 674 499 774 572 742 l 619 760 m 478 286 b 607 408 551 286 607 335 b 478 529 607 482 551 529 b 347 408 404 529 347 482 b 478 286 347 335 404 286 "},"ğ":{"ha":988,"x_min":0,"x_max":0,"o":"m 493 829 b 203 1065 326 829 210 919 l 390 1065 b 493 981 394 1014 436 981 b 596 1065 550 981 592 1014 l 783 1065 b 493 829 776 919 660 829 m 918 760 l 918 151 b 456 -283 918 -143 746 -283 b 75 -189 306 -283 169 -251 l 181 25 b 424 -50 240 -21 342 -50 b 604 108 553 -50 604 7 l 604 122 b 394 42 557 68 488 42 b 29 408 201 42 29 183 b 394 774 29 633 201 774 b 619 674 499 774 572 742 l 619 760 m 478 286 b 607 408 551 286 607 335 b 478 529 607 482 551 529 b 347 408 404 529 347 482 b 478 286 347 335 404 286 "},"ǧ":{"ha":988,"x_min":0,"x_max":0,"o":"m 360 843 l 182 1065 l 376 1065 l 493 958 l 610 1065 l 804 1065 l 626 843 m 918 760 l 918 151 b 456 -283 918 -143 746 -283 b 75 -189 306 -283 169 -251 l 181 25 b 424 -50 240 -21 342 -50 b 604 108 553 -50 604 7 l 604 122 b 394 42 557 68 488 42 b 29 408 201 42 29 183 b 394 774 29 633 201 774 b 619 674 499 774 572 742 l 619 760 m 478 286 b 607 408 551 286 607 335 b 478 529 607 482 551 529 b 347 408 404 529 347 482 b 478 286 347 335 404 286 "},"ĝ":{"ha":988,"x_min":0,"x_max":0,"o":"m 376 843 l 182 843 l 360 1065 l 626 1065 l 804 843 l 610 843 l 493 950 m 918 760 l 918 151 b 456 -283 918 -143 746 -283 b 75 -189 306 -283 169 -251 l 181 25 b 424 -50 240 -21 342 -50 b 604 108 553 -50 604 7 l 604 122 b 394 42 557 68 488 42 b 29 408 201 42 29 183 b 394 774 29 633 201 774 b 619 674 499 774 572 742 l 619 760 m 478 286 b 607 408 551 286 607 335 b 478 529 607 482 551 529 b 347 408 404 529 347 482 b 478 286 347 335 404 286 "},"ģ":{"ha":988,"x_min":0,"x_max":0,"o":"m 493 829 b 344 933 393 829 344 871 b 386 1044 344 960 353 992 l 461 1163 l 625 1163 l 571 1024 b 642 933 618 1008 642 978 b 493 829 642 871 593 829 m 918 760 l 918 151 b 456 -283 918 -143 746 -283 b 75 -189 306 -283 169 -251 l 181 25 b 424 -50 240 -21 342 -50 b 604 108 553 -50 604 7 l 604 122 b 394 42 557 68 488 42 b 29 408 201 42 29 183 b 394 774 29 633 201 774 b 619 674 499 774 572 742 l 619 760 m 478 286 b 607 408 551 286 607 335 b 478 529 607 482 551 529 b 347 408 404 529 347 482 b 478 286 347 335 404 286 "},"ġ":{"ha":988,"x_min":0,"x_max":0,"o":"m 493 829 b 335 988 400 829 335 894 b 493 1146 335 1081 400 1146 b 651 988 586 1146 651 1081 b 493 829 651 894 586 829 m 918 760 l 918 151 b 456 -283 918 -143 746 -283 b 75 -189 306 -283 169 -251 l 181 25 b 424 -50 240 -21 342 -50 b 604 108 553 -50 604 7 l 604 122 b 394 42 557 68 488 42 b 29 408 201 42 29 183 b 394 774 29 633 201 774 b 619 674 499 774 572 742 l 619 760 m 478 286 b 607 408 551 286 607 335 b 478 529 607 482 551 529 b 347 408 404 529 347 482 b 478 286 347 335 404 286 "},"ḡ":{"ha":988,"x_min":0,"x_max":0,"o":"m 785 872 l 201 872 l 201 1036 l 785 1036 m 918 760 l 918 151 b 456 -283 918 -143 746 -283 b 75 -189 306 -283 169 -251 l 181 25 b 424 -50 240 -21 342 -50 b 604 108 553 -50 604 7 l 604 122 b 394 42 557 68 488 42 b 29 408 201 42 29 183 b 394 774 29 633 201 774 b 619 674 499 774 572 742 l 619 760 m 478 286 b 607 408 551 286 607 335 b 478 529 607 482 551 529 b 347 408 404 529 347 482 b 478 286 347 335 404 286 "},"ǥ":{"ha":1007,"x_min":0,"x_max":0,"o":"m 1006 -14 l 896 -14 b 450 -283 842 -192 690 -283 b 75 -189 303 -283 165 -249 l 181 11 b 426 -64 236 -33 336 -64 b 569 -15 493 -64 540 -47 l 364 -15 l 364 96 l 604 96 l 604 158 l 607 213 b 381 128 556 156 479 128 b 29 450 167 128 29 264 b 379 772 29 636 165 772 b 619 669 486 772 568 738 l 619 760 l 918 760 l 918 151 b 917 97 918 133 918 114 l 1006 97 m 478 338 b 607 450 558 338 607 379 b 478 563 607 521 558 563 b 347 450 396 563 347 521 b 478 338 347 379 396 338 "},"h":{"ha":975,"x_min":0,"x_max":0,"o":"m 597 774 b 908 433 772 774 908 672 l 908 0 l 594 0 l 594 379 b 501 510 594 474 558 510 b 383 357 438 510 383 469 l 383 0 l 69 0 l 69 1031 l 383 1031 l 383 699 b 597 774 442 749 515 774 "},"ħ":{"ha":975,"x_min":0,"x_max":0,"o":"m 597 774 b 908 433 772 774 908 672 l 908 0 l 594 0 l 594 379 b 501 510 594 474 558 510 b 383 357 438 510 383 469 l 383 0 l 69 0 l 69 813 l 0 813 l 0 965 l 69 965 l 69 1031 l 383 1031 l 383 965 l 594 965 l 594 813 l 383 813 l 383 699 b 597 774 442 749 515 774 "},"ḫ":{"ha":975,"x_min":0,"x_max":0,"o":"m 597 774 b 908 433 772 774 908 672 l 908 0 l 594 0 l 594 379 b 501 510 594 474 558 510 b 383 357 438 510 383 469 l 383 0 l 69 0 l 69 1031 l 383 1031 l 383 699 b 597 774 442 749 515 774 m 493 -172 b 607 -93 557 -172 601 -140 l 783 -93 b 493 -312 775 -225 660 -312 b 203 -93 326 -312 211 -225 l 379 -93 b 493 -172 385 -140 429 -172 "},"ȟ":{"ha":975,"x_min":0,"x_max":0,"o":"m 93 1114 l -85 1336 l 110 1336 l 226 1229 l 343 1336 l 538 1336 l 360 1114 m 597 774 b 908 433 772 774 908 672 l 908 0 l 594 0 l 594 379 b 501 510 594 474 558 510 b 383 357 438 510 383 469 l 383 0 l 69 0 l 69 1031 l 383 1031 l 383 699 b 597 774 442 749 515 774 "},"ĥ":{"ha":975,"x_min":0,"x_max":0,"o":"m 110 1110 l -85 1110 l 93 1332 l 360 1332 l 538 1110 l 343 1110 l 226 1217 m 597 774 b 908 433 772 774 908 672 l 908 0 l 594 0 l 594 379 b 501 510 594 474 558 510 b 383 357 438 510 383 469 l 383 0 l 69 0 l 69 1031 l 383 1031 l 383 699 b 597 774 442 749 515 774 "},"ḥ":{"ha":975,"x_min":0,"x_max":0,"o":"m 597 774 b 908 433 772 774 908 672 l 908 0 l 594 0 l 594 379 b 501 510 594 474 558 510 b 383 357 438 510 383 469 l 383 0 l 69 0 l 69 1031 l 383 1031 l 383 699 b 597 774 442 749 515 774 m 493 -69 b 618 -193 564 -69 618 -119 b 493 -314 618 -267 564 -314 b 368 -193 422 -314 368 -267 b 493 -69 368 -119 422 -69 "},"i":{"ha":453,"x_min":0,"x_max":0,"o":"m 226 821 b 38 981 111 821 38 890 b 226 1140 38 1071 111 1140 b 415 986 342 1140 415 1076 b 226 821 415 890 342 821 m 69 760 l 383 760 l 383 0 l 69 0 "},"ı":{"ha":453,"x_min":0,"x_max":0,"o":"m 69 760 l 383 760 l 383 0 l 69 0 "},"í":{"ha":453,"x_min":0,"x_max":0,"o":"m 264 1065 l 563 1065 l 289 843 l 81 843 m 69 760 l 383 760 l 383 0 l 69 0 "},"ĭ":{"ha":453,"x_min":0,"x_max":0,"o":"m 226 829 b -29 1065 79 829 -26 919 l 151 1065 b 226 978 151 1014 178 978 b 301 1065 275 978 301 1014 l 482 1065 b 226 829 479 919 374 829 m 69 760 l 383 760 l 383 0 l 69 0 "},"î":{"ha":453,"x_min":0,"x_max":0,"o":"m 144 843 l -50 843 l 96 1065 l 357 1065 l 503 843 l 308 843 l 226 936 m 69 760 l 383 760 l 383 0 l 69 0 "},"ȉ":{"ha":453,"x_min":0,"x_max":0,"o":"m -175 1065 l 96 1065 l 168 843 l -40 843 m 150 1065 l 421 1065 l 493 843 l 285 843 m 69 760 l 383 760 l 383 0 l 69 0 "},"ï":{"ha":453,"x_min":0,"x_max":0,"o":"m 97 832 b -18 954 32 832 -18 881 b 97 1078 -18 1028 32 1078 b 211 954 161 1078 211 1028 b 97 832 211 881 161 832 m 357 832 b 242 954 292 832 242 881 b 357 1078 242 1028 292 1078 b 471 954 421 1078 471 1028 b 357 832 471 881 421 832 m 69 760 l 383 760 l 383 0 l 69 0 "},"ḯ":{"ha":453,"x_min":0,"x_max":0,"o":"m 222 1278 l 521 1278 l 289 1097 l 81 1097 m 79 832 b -39 947 13 832 -39 878 b 79 1064 -39 1017 13 1064 b 197 947 146 1064 197 1017 b 79 832 197 878 146 832 m 374 832 b 256 947 307 832 256 878 b 374 1064 256 1017 307 1064 b 492 947 440 1064 492 1017 b 374 832 492 878 440 832 m 69 760 l 383 760 l 383 0 l 69 0 "},"ị":{"ha":453,"x_min":0,"x_max":0,"o":"m 226 821 b 38 981 111 821 38 890 b 226 1140 38 1071 111 1140 b 415 986 342 1140 415 1076 b 226 821 415 890 342 821 m 69 760 l 383 760 l 383 0 l 69 0 m 226 -314 b 101 -193 156 -314 101 -267 b 226 -69 101 -119 156 -69 b 351 -193 297 -69 351 -119 b 226 -314 351 -267 297 -314 "},"ì":{"ha":453,"x_min":0,"x_max":0,"o":"m -110 1065 l 189 1065 l 372 843 l 164 843 m 69 760 l 383 760 l 383 0 l 69 0 "},"ỉ":{"ha":453,"x_min":0,"x_max":0,"o":"m 192 919 b 256 994 244 944 256 969 b 197 1047 256 1028 232 1047 b 118 1019 171 1047 146 1039 l 54 1136 b 233 1192 103 1174 167 1192 b 429 1021 350 1192 429 1122 b 286 829 429 931 378 871 m 69 760 l 383 760 l 383 0 l 69 0 "},"ȋ":{"ha":453,"x_min":0,"x_max":0,"o":"m -29 843 b 226 1079 -26 989 79 1079 b 482 843 374 1079 479 989 l 301 843 b 226 931 301 894 275 931 b 151 843 178 931 151 894 l -29 843 m 69 760 l 383 760 l 383 0 l 69 0 "},"ĳ":{"ha":917,"x_min":0,"x_max":0,"o":"m 226 821 b 38 981 111 821 38 890 b 226 1140 38 1071 111 1140 b 415 986 342 1140 415 1076 b 226 821 415 890 342 821 m 690 821 b 501 981 575 821 501 890 b 690 1140 501 1071 575 1140 b 879 986 806 1140 879 1076 b 690 821 879 890 806 821 m 69 760 l 383 760 l 383 0 l 69 0 m 515 -283 b 322 -246 442 -283 371 -271 l 397 -28 b 468 -46 418 -39 443 -46 b 533 42 506 -46 533 -19 l 533 760 l 847 760 l 847 39 b 515 -283 847 -157 725 -283 "},"ī":{"ha":453,"x_min":0,"x_max":0,"o":"m -10 1036 l 463 1036 l 463 872 l -10 872 m 69 760 l 383 760 l 383 0 l 69 0 "},"į":{"ha":453,"x_min":0,"x_max":0,"o":"m 226 821 b 38 981 111 821 38 890 b 226 1140 38 1071 111 1140 b 415 986 342 1140 415 1076 b 226 821 415 890 342 821 m 418 -301 b 300 -333 389 -321 346 -333 b 100 -160 179 -333 100 -265 b 175 0 100 -99 126 -43 l 69 0 l 69 760 l 383 760 l 383 0 b 285 -132 310 -47 285 -85 b 338 -192 285 -168 308 -192 b 382 -176 354 -192 369 -186 "},"ĩ":{"ha":453,"x_min":0,"x_max":0,"o":"m 328 829 b 149 918 232 829 183 918 b 110 843 122 918 110 892 l -36 843 b 125 1083 -36 1003 19 1083 b 304 994 221 1083 269 994 b 343 1065 331 994 343 1019 l 489 1065 b 328 829 489 910 433 829 m 69 760 l 383 760 l 383 0 l 69 0 "},"j":{"ha":464,"x_min":0,"x_max":0,"o":"m 238 821 b 49 981 122 821 49 890 b 238 1140 49 1071 122 1140 b 426 986 353 1140 426 1076 b 238 821 426 890 353 821 m 63 -283 b -131 -246 -11 -283 -82 -271 l -56 -28 b 15 -46 -35 -39 -10 -46 b 81 42 53 -46 81 -19 l 81 760 l 394 760 l 394 39 b 63 -283 394 -157 272 -283 "},"ȷ":{"ha":464,"x_min":0,"x_max":0,"o":"m 63 -283 b -131 -246 -11 -283 -82 -271 l -56 -28 b 15 -46 -35 -39 -10 -46 b 81 42 53 -46 81 -19 l 81 760 l 394 760 l 394 39 b 63 -283 394 -157 272 -283 "},"ĵ":{"ha":464,"x_min":0,"x_max":0,"o":"m 156 843 l -39 843 l 107 1065 l 368 1065 l 514 843 l 319 843 l 238 936 m 81 760 l 394 760 l 394 39 b 63 -283 394 -157 272 -283 b -131 -246 -11 -283 -82 -271 l -56 -28 b 15 -46 -35 -39 -10 -46 b 81 42 53 -46 81 -19 "},"k":{"ha":990,"x_min":0,"x_max":0,"o":"m 433 233 l 383 179 l 383 0 l 69 0 l 69 1031 l 383 1031 l 383 539 l 601 760 l 972 760 l 658 431 l 997 0 l 618 0 "},"ǩ":{"ha":990,"x_min":0,"x_max":0,"o":"m 93 1114 l -85 1336 l 110 1336 l 226 1229 l 343 1336 l 538 1336 l 360 1114 m 433 233 l 383 179 l 383 0 l 69 0 l 69 1031 l 383 1031 l 383 539 l 601 760 l 972 760 l 658 431 l 997 0 l 618 0 "},"ķ":{"ha":990,"x_min":0,"x_max":0,"o":"m 997 0 l 618 0 l 433 233 l 383 179 l 383 0 l 69 0 l 69 1031 l 383 1031 l 383 539 l 601 760 l 972 760 l 658 431 m 449 -69 b 574 -174 526 -69 574 -111 b 539 -285 574 -200 568 -235 l 485 -375 l 347 -375 l 383 -265 b 324 -174 343 -250 324 -218 b 449 -69 324 -111 371 -69 "},"ĸ":{"ha":958,"x_min":0,"x_max":0,"o":"m 433 233 l 383 179 l 383 0 l 69 0 l 69 760 l 383 760 l 383 539 l 601 760 l 972 760 l 658 431 l 997 0 l 618 0 "},"l":{"ha":453,"x_min":0,"x_max":0,"o":"m 69 1031 l 383 1031 l 383 0 l 69 0 "},"ĺ":{"ha":453,"x_min":0,"x_max":0,"o":"m 264 1336 l 563 1336 l 289 1114 l 81 1114 m 69 1031 l 383 1031 l 383 0 l 69 0 "},"ľ":{"ha":453,"x_min":0,"x_max":0,"o":"m 481 1100 l 700 1100 l 658 808 l 481 808 m 69 1031 l 383 1031 l 383 0 l 69 0 "},"ļ":{"ha":453,"x_min":0,"x_max":0,"o":"m 383 1031 l 383 0 l 69 0 l 69 1031 m 226 -69 b 351 -174 304 -69 351 -111 b 317 -285 351 -200 346 -235 l 263 -375 l 125 -375 l 161 -265 b 101 -174 121 -250 101 -218 b 226 -69 101 -111 149 -69 "},"ŀ":{"ha":703,"x_min":0,"x_max":0,"o":"m 69 1031 l 383 1031 l 383 0 l 69 0 m 578 371 b 436 514 494 371 436 429 b 578 656 436 597 494 656 b 721 514 663 656 721 597 b 578 371 721 429 663 371 "},"ḷ":{"ha":453,"x_min":0,"x_max":0,"o":"m 69 1031 l 383 1031 l 383 0 l 69 0 m 226 -314 b 101 -193 156 -314 101 -267 b 226 -69 101 -119 156 -69 b 351 -193 297 -69 351 -119 b 226 -314 351 -267 297 -314 "},"ǉ":{"ha":917,"x_min":0,"x_max":0,"o":"m 690 821 b 501 981 575 821 501 890 b 690 1140 501 1071 575 1140 b 879 986 806 1140 879 1076 b 690 821 879 890 806 821 m 69 1031 l 383 1031 l 383 0 l 69 0 m 515 -283 b 322 -246 442 -283 371 -271 l 397 -28 b 468 -46 418 -39 443 -46 b 533 42 506 -46 533 -19 l 533 760 l 847 760 l 847 39 b 515 -283 847 -157 725 -283 "},"ḻ":{"ha":453,"x_min":0,"x_max":0,"o":"m 69 1031 l 383 1031 l 383 0 l 69 0 m -65 -103 l 518 -103 l 518 -267 l -65 -267 "},"ł":{"ha":508,"x_min":0,"x_max":0,"o":"m 411 524 l 411 0 l 97 0 l 97 292 l 31 242 l -67 381 l 97 501 l 97 1031 l 411 1031 l 411 733 l 478 783 l 575 644 "},"m":{"ha":1444,"x_min":0,"x_max":0,"o":"m 1075 774 b 1378 433 1247 774 1378 672 l 1378 0 l 1064 0 l 1064 379 b 979 510 1064 474 1029 510 b 881 371 924 510 881 472 l 881 0 l 567 0 l 567 379 b 482 510 567 474 535 510 b 383 371 426 510 383 472 l 383 0 l 69 0 l 69 760 l 368 760 l 368 689 b 583 774 425 746 500 774 b 821 658 682 774 768 738 b 1075 774 882 732 971 774 "},"ṃ":{"ha":1444,"x_min":0,"x_max":0,"o":"m 1075 774 b 1378 433 1247 774 1378 672 l 1378 0 l 1064 0 l 1064 379 b 979 510 1064 474 1029 510 b 881 371 924 510 881 472 l 881 0 l 567 0 l 567 379 b 482 510 567 474 535 510 b 383 371 426 510 383 472 l 383 0 l 69 0 l 69 760 l 368 760 l 368 689 b 583 774 425 746 500 774 b 821 658 682 774 768 738 b 1075 774 882 732 971 774 m 721 -69 b 846 -193 792 -69 846 -119 b 721 -314 846 -267 792 -314 b 596 -193 650 -314 596 -267 b 721 -69 596 -119 650 -69 "},"n":{"ha":975,"x_min":0,"x_max":0,"o":"m 597 774 b 908 433 772 774 908 672 l 908 0 l 594 0 l 594 379 b 501 510 594 474 558 510 b 383 357 438 510 383 469 l 383 0 l 69 0 l 69 760 l 368 760 l 368 685 b 597 774 428 744 508 774 "},"ń":{"ha":975,"x_min":0,"x_max":0,"o":"m 556 843 l 347 843 l 531 1065 l 829 1065 m 597 774 b 908 433 772 774 908 672 l 908 0 l 594 0 l 594 379 b 501 510 594 474 558 510 b 383 357 438 510 383 469 l 383 0 l 69 0 l 69 760 l 368 760 l 368 685 b 597 774 428 744 508 774 "},"ŉ":{"ha":1221,"x_min":0,"x_max":0,"o":"m 39 972 l 240 972 l 199 606 l 39 606 m 843 774 b 1154 433 1018 774 1154 672 l 1154 0 l 840 0 l 840 379 b 747 510 840 474 804 510 b 629 357 683 510 629 469 l 629 0 l 315 0 l 315 760 l 614 760 l 614 685 b 843 774 674 744 754 774 "},"ň":{"ha":975,"x_min":0,"x_max":0,"o":"m 360 843 l 182 1065 l 376 1065 l 493 958 l 610 1065 l 804 1065 l 626 843 m 597 774 b 908 433 772 774 908 672 l 908 0 l 594 0 l 594 379 b 501 510 594 474 558 510 b 383 357 438 510 383 469 l 383 0 l 69 0 l 69 760 l 368 760 l 368 685 b 597 774 428 744 508 774 "},"ņ":{"ha":975,"x_min":0,"x_max":0,"o":"m 597 774 b 908 433 772 774 908 672 l 908 0 l 594 0 l 594 379 b 501 510 594 474 558 510 b 383 357 438 510 383 469 l 383 0 l 69 0 l 69 760 l 368 760 l 368 685 b 597 774 428 744 508 774 m 493 -69 b 618 -174 571 -69 618 -111 b 583 -285 618 -200 613 -235 l 529 -375 l 392 -375 l 428 -265 b 368 -174 388 -250 368 -218 b 493 -69 368 -111 415 -69 "},"ṅ":{"ha":975,"x_min":0,"x_max":0,"o":"m 493 829 b 335 988 400 829 335 894 b 493 1146 335 1081 400 1146 b 651 988 586 1146 651 1081 b 493 829 651 894 586 829 m 597 774 b 908 433 772 774 908 672 l 908 0 l 594 0 l 594 379 b 501 510 594 474 558 510 b 383 357 438 510 383 469 l 383 0 l 69 0 l 69 760 l 368 760 l 368 685 b 597 774 428 744 508 774 "},"ṇ":{"ha":975,"x_min":0,"x_max":0,"o":"m 597 774 b 908 433 772 774 908 672 l 908 0 l 594 0 l 594 379 b 501 510 594 474 558 510 b 383 357 438 510 383 469 l 383 0 l 69 0 l 69 760 l 368 760 l 368 685 b 597 774 428 744 508 774 m 493 -69 b 618 -193 564 -69 618 -119 b 493 -314 618 -267 564 -314 b 368 -193 422 -314 368 -267 b 493 -69 368 -119 422 -69 "},"ŋ":{"ha":975,"x_min":0,"x_max":0,"o":"m 597 774 b 908 433 772 774 908 672 l 908 39 b 576 -283 908 -157 786 -283 b 383 -246 503 -283 432 -271 l 458 -28 b 529 -46 479 -39 504 -46 b 594 42 567 -46 594 -19 l 594 379 b 501 510 594 474 558 510 b 383 357 438 510 383 469 l 383 0 l 69 0 l 69 760 l 368 760 l 368 685 b 597 774 428 744 508 774 "},"ǌ":{"ha":1439,"x_min":0,"x_max":0,"o":"m 1213 821 b 1024 981 1097 821 1024 890 b 1213 1140 1024 1071 1097 1140 b 1401 986 1328 1140 1401 1076 b 1213 821 1401 890 1328 821 m 594 0 l 594 379 b 501 510 594 474 558 510 b 383 357 438 510 383 469 l 383 0 l 69 0 l 69 760 l 368 760 l 368 685 b 597 774 428 744 508 774 b 908 433 772 774 908 672 l 908 0 m 1056 760 l 1369 760 l 1369 39 b 1038 -283 1369 -157 1247 -283 b 844 -246 964 -283 893 -271 l 919 -28 b 990 -46 940 -39 965 -46 b 1056 42 1028 -46 1056 -19 "},"ṉ":{"ha":975,"x_min":0,"x_max":0,"o":"m 597 774 b 908 433 772 774 908 672 l 908 0 l 594 0 l 594 379 b 501 510 594 474 558 510 b 383 357 438 510 383 469 l 383 0 l 69 0 l 69 760 l 368 760 l 368 685 b 597 774 428 744 508 774 m 201 -103 l 785 -103 l 785 -267 l 201 -267 "},"ñ":{"ha":975,"x_min":0,"x_max":0,"o":"m 400 911 b 338 843 364 911 340 885 l 189 843 b 381 1083 192 989 263 1083 b 586 1001 483 1083 536 1001 b 649 1065 622 1001 646 1026 l 797 1065 b 606 829 794 924 724 829 b 400 911 503 829 450 911 m 597 774 b 908 433 772 774 908 672 l 908 0 l 594 0 l 594 379 b 501 510 594 474 558 510 b 383 357 438 510 383 469 l 383 0 l 69 0 l 69 760 l 368 760 l 368 685 b 597 774 428 744 508 774 "},"o":{"ha":942,"x_min":0,"x_max":0,"o":"m 471 -14 b 29 381 214 -14 29 150 b 471 774 29 611 214 774 b 913 381 729 774 913 611 b 471 -14 913 150 729 -14 m 471 231 b 594 381 540 231 594 282 b 471 529 594 479 540 529 b 347 381 401 529 347 479 b 471 231 347 282 401 231 "},"ó":{"ha":942,"x_min":0,"x_max":0,"o":"m 504 1065 l 803 1065 l 529 843 l 321 843 m 471 -14 b 29 381 214 -14 29 150 b 471 774 29 611 214 774 b 913 381 729 774 913 611 b 471 -14 913 150 729 -14 m 471 231 b 594 381 540 231 594 282 b 471 529 594 479 540 529 b 347 381 401 529 347 479 b 471 231 347 282 401 231 "},"ŏ":{"ha":942,"x_min":0,"x_max":0,"o":"m 467 829 b 176 1065 300 829 183 919 l 364 1065 b 467 981 368 1014 410 981 b 569 1065 524 981 565 1014 l 757 1065 b 467 829 750 919 633 829 m 471 -14 b 29 381 214 -14 29 150 b 471 774 29 611 214 774 b 913 381 729 774 913 611 b 471 -14 913 150 729 -14 m 471 231 b 594 381 540 231 594 282 b 471 529 594 479 540 529 b 347 381 401 529 347 479 b 471 231 347 282 401 231 "},"ô":{"ha":942,"x_min":0,"x_max":0,"o":"m 350 843 l 156 843 l 333 1065 l 600 1065 l 778 843 l 583 843 l 467 950 m 471 774 b 913 381 729 774 913 611 b 471 -14 913 150 729 -14 b 29 381 214 -14 29 150 b 471 774 29 611 214 774 m 471 231 b 594 381 540 231 594 282 b 471 529 594 479 540 529 b 347 381 401 529 347 479 b 471 231 347 282 401 231 "},"ố":{"ha":942,"x_min":0,"x_max":0,"o":"m 876 989 l 668 989 l 810 1169 l 1108 1169 m 350 843 l 156 843 l 335 1024 l 599 1024 l 778 843 l 583 843 l 467 928 m 471 774 b 913 381 729 774 913 611 b 471 -14 913 150 729 -14 b 29 381 214 -14 29 150 b 471 774 29 611 214 774 m 471 231 b 594 381 540 231 594 282 b 471 529 594 479 540 529 b 347 381 401 529 347 479 b 471 231 347 282 401 231 "},"ộ":{"ha":942,"x_min":0,"x_max":0,"o":"m 350 843 l 156 843 l 333 1065 l 600 1065 l 778 843 l 583 843 l 467 950 m 471 774 b 913 381 729 774 913 611 b 471 -14 913 150 729 -14 b 29 381 214 -14 29 150 b 471 774 29 611 214 774 m 471 231 b 594 381 540 231 594 282 b 471 529 594 479 540 529 b 347 381 401 529 347 479 b 471 231 347 282 401 231 m 467 -69 b 592 -193 538 -69 592 -119 b 467 -314 592 -267 538 -314 b 342 -193 396 -314 342 -267 b 467 -69 342 -119 396 -69 "},"ồ":{"ha":942,"x_min":0,"x_max":0,"o":"m 751 989 l 519 1169 l 818 1169 l 960 989 m 350 843 l 156 843 l 335 1024 l 599 1024 l 778 843 l 583 843 l 467 928 m 471 774 b 913 381 729 774 913 611 b 471 -14 913 150 729 -14 b 29 381 214 -14 29 150 b 471 774 29 611 214 774 m 471 231 b 594 381 540 231 594 282 b 471 529 594 479 540 529 b 347 381 401 529 347 479 b 471 231 347 282 401 231 "},"ổ":{"ha":942,"x_min":0,"x_max":0,"o":"m 700 1110 b 636 1093 678 1110 658 1104 l 589 1178 b 726 1213 626 1201 675 1213 b 875 1090 815 1213 875 1167 b 765 961 875 1029 824 983 l 693 1024 b 740 1075 731 1043 740 1061 b 700 1110 740 1096 724 1110 m 350 843 l 156 843 l 335 1024 l 599 1024 l 778 843 l 583 843 l 467 928 m 471 774 b 913 381 729 774 913 611 b 471 -14 913 150 729 -14 b 29 381 214 -14 29 150 b 471 774 29 611 214 774 m 471 231 b 594 381 540 231 594 282 b 471 529 594 479 540 529 b 347 381 401 529 347 479 b 471 231 347 282 401 231 "},"ỗ":{"ha":942,"x_min":0,"x_max":0,"o":"m 381 1142 b 322 1085 349 1142 325 1118 l 169 1085 b 361 1292 169 1217 242 1292 b 556 1222 461 1292 515 1222 b 615 1279 590 1222 613 1249 l 764 1279 b 572 1072 764 1151 697 1072 b 381 1142 472 1072 419 1142 m 350 843 l 156 843 l 335 1024 l 599 1024 l 778 843 l 583 843 l 467 928 m 471 774 b 913 381 729 774 913 611 b 471 -14 913 150 729 -14 b 29 381 214 -14 29 150 b 471 774 29 611 214 774 m 471 231 b 594 381 540 231 594 282 b 471 529 594 479 540 529 b 347 381 401 529 347 479 b 471 231 347 282 401 231 "},"ȍ":{"ha":942,"x_min":0,"x_max":0,"o":"m 65 1065 l 336 1065 l 408 843 l 200 843 m 390 1065 l 661 1065 l 733 843 l 525 843 m 471 -14 b 29 381 214 -14 29 150 b 471 774 29 611 214 774 b 913 381 729 774 913 611 b 471 -14 913 150 729 -14 m 471 231 b 594 381 540 231 594 282 b 471 529 594 479 540 529 b 347 381 401 529 347 479 b 471 231 347 282 401 231 "},"ö":{"ha":942,"x_min":0,"x_max":0,"o":"m 313 832 b 188 954 242 832 188 881 b 313 1078 188 1028 242 1078 b 438 954 383 1078 438 1028 b 313 832 438 881 383 832 m 621 832 b 496 954 550 832 496 881 b 621 1078 496 1028 550 1078 b 746 954 692 1078 746 1028 b 621 832 746 881 692 832 m 471 -14 b 29 381 214 -14 29 150 b 471 774 29 611 214 774 b 913 381 729 774 913 611 b 471 -14 913 150 729 -14 m 471 231 b 594 381 540 231 594 282 b 471 529 594 479 540 529 b 347 381 401 529 347 479 b 471 231 347 282 401 231 "},"ȫ":{"ha":942,"x_min":0,"x_max":0,"o":"m 175 1265 l 758 1265 l 758 1110 l 175 1110 m 319 832 b 201 947 253 832 201 878 b 319 1064 201 1017 253 1064 b 438 947 386 1064 438 1017 b 319 832 438 878 386 832 m 614 832 b 496 947 547 832 496 878 b 614 1064 496 1017 547 1064 b 732 947 681 1064 732 1017 b 614 832 732 878 681 832 m 471 -14 b 29 381 214 -14 29 150 b 471 774 29 611 214 774 b 913 381 729 774 913 611 b 471 -14 913 150 729 -14 m 471 231 b 594 381 540 231 594 282 b 471 529 594 479 540 529 b 347 381 401 529 347 479 b 471 231 347 282 401 231 "},"ȱ":{"ha":942,"x_min":0,"x_max":0,"o":"m 175 1279 l 758 1279 l 758 1124 l 175 1124 m 467 829 b 342 950 396 829 342 876 b 467 1074 342 1024 396 1074 b 592 950 538 1074 592 1024 b 467 829 592 876 538 829 m 471 -14 b 29 381 214 -14 29 150 b 471 774 29 611 214 774 b 913 381 729 774 913 611 b 471 -14 913 150 729 -14 m 471 231 b 594 381 540 231 594 282 b 471 529 594 479 540 529 b 347 381 401 529 347 479 b 471 231 347 282 401 231 "},"ọ":{"ha":942,"x_min":0,"x_max":0,"o":"m 471 -14 b 29 381 214 -14 29 150 b 471 774 29 611 214 774 b 913 381 729 774 913 611 b 471 -14 913 150 729 -14 m 471 231 b 594 381 540 231 594 282 b 471 529 594 479 540 529 b 347 381 401 529 347 479 b 471 231 347 282 401 231 m 467 -314 b 342 -193 396 -314 342 -267 b 467 -69 342 -119 396 -69 b 592 -193 538 -69 592 -119 b 467 -314 592 -267 538 -314 "},"ò":{"ha":942,"x_min":0,"x_max":0,"o":"m 131 1065 l 429 1065 l 613 843 l 404 843 m 471 -14 b 29 381 214 -14 29 150 b 471 774 29 611 214 774 b 913 381 729 774 913 611 b 471 -14 913 150 729 -14 m 471 231 b 594 381 540 231 594 282 b 471 529 594 479 540 529 b 347 381 401 529 347 479 b 471 231 347 282 401 231 "},"ỏ":{"ha":942,"x_min":0,"x_max":0,"o":"m 432 919 b 496 994 485 944 496 969 b 438 1047 496 1028 472 1047 b 358 1019 411 1047 386 1039 l 294 1136 b 474 1192 343 1174 407 1192 b 669 1021 590 1192 669 1122 b 526 829 669 931 618 871 m 471 -14 b 29 381 214 -14 29 150 b 471 774 29 611 214 774 b 913 381 729 774 913 611 b 471 -14 913 150 729 -14 m 471 231 b 594 381 540 231 594 282 b 471 529 594 479 540 529 b 347 381 401 529 347 479 b 471 231 347 282 401 231 "},"ơ":{"ha":942,"x_min":0,"x_max":0,"o":"m 813 640 b 913 381 876 572 913 483 b 471 -14 913 150 728 -14 b 29 381 213 -14 29 150 b 475 774 29 611 213 774 b 638 760 544 774 599 760 b 707 844 683 760 707 793 b 676 924 707 875 693 904 l 854 986 b 908 832 886 946 908 894 b 813 640 908 750 872 683 m 471 231 b 594 381 540 231 594 282 b 471 529 594 479 540 529 b 347 381 401 529 347 479 b 471 231 347 282 401 231 "},"ớ":{"ha":942,"x_min":0,"x_max":0,"o":"m 533 843 l 325 843 l 508 1065 l 807 1065 m 813 640 b 913 381 876 572 913 483 b 471 -14 913 150 728 -14 b 29 381 213 -14 29 150 b 475 774 29 611 213 774 b 638 760 544 774 599 760 b 707 844 683 760 707 793 b 676 924 707 875 693 904 l 854 986 b 908 832 886 946 908 894 b 813 640 908 750 872 683 m 471 231 b 594 381 540 231 594 282 b 471 529 594 479 540 529 b 347 381 401 529 347 479 b 471 231 347 282 401 231 "},"ợ":{"ha":942,"x_min":0,"x_max":0,"o":"m 813 640 b 913 381 876 572 913 483 b 471 -14 913 150 728 -14 b 29 381 213 -14 29 150 b 475 774 29 611 213 774 b 638 760 544 774 599 760 b 707 844 683 760 707 793 b 676 924 707 875 693 904 l 854 986 b 908 832 886 946 908 894 b 813 640 908 750 872 683 m 471 231 b 594 381 540 231 594 282 b 471 529 594 479 540 529 b 347 381 401 529 347 479 b 471 231 347 282 401 231 m 471 -69 b 596 -193 542 -69 596 -119 b 471 -314 596 -267 542 -314 b 346 -193 400 -314 346 -267 b 471 -69 346 -119 400 -69 "},"ờ":{"ha":942,"x_min":0,"x_max":0,"o":"m 408 843 l 135 1065 l 433 1065 l 617 843 m 813 640 b 913 381 876 572 913 483 b 471 -14 913 150 728 -14 b 29 381 213 -14 29 150 b 475 774 29 611 213 774 b 638 760 544 774 599 760 b 707 844 683 760 707 793 b 676 924 707 875 693 904 l 854 986 b 908 832 886 946 908 894 b 813 640 908 750 872 683 m 471 231 b 594 381 540 231 594 282 b 471 529 594 479 540 529 b 347 381 401 529 347 479 b 471 231 347 282 401 231 "},"ở":{"ha":942,"x_min":0,"x_max":0,"o":"m 442 1047 b 363 1019 415 1047 390 1039 l 299 1136 b 478 1192 347 1174 411 1192 b 674 1021 594 1192 674 1122 b 531 829 674 931 622 871 l 436 919 b 500 994 489 944 500 969 b 442 1047 500 1028 476 1047 m 813 640 b 913 381 876 572 913 483 b 471 -14 913 150 728 -14 b 29 381 213 -14 29 150 b 475 774 29 611 213 774 b 638 760 544 774 599 760 b 707 844 683 760 707 793 b 676 924 707 875 693 904 l 854 986 b 908 832 886 946 908 894 b 813 640 908 750 872 683 m 471 231 b 594 381 540 231 594 282 b 471 529 594 479 540 529 b 347 381 401 529 347 479 b 471 231 347 282 401 231 "},"ỡ":{"ha":933,"x_min":0,"x_max":0,"o":"m 368 911 b 318 843 340 911 321 885 l 200 843 b 353 1083 201 989 258 1083 b 518 1001 435 1083 478 1001 b 568 1065 546 1001 565 1026 l 686 1065 b 533 829 685 924 628 829 b 368 911 451 829 408 911 m 813 640 b 913 381 876 572 913 483 b 471 -14 913 150 728 -14 b 29 381 213 -14 29 150 b 475 774 29 611 213 774 b 638 760 544 774 599 760 b 707 844 683 760 707 793 b 676 924 707 875 693 904 l 854 986 b 908 832 886 946 908 894 b 813 640 908 750 872 683 m 471 231 b 594 381 540 231 594 282 b 471 529 594 479 540 529 b 347 381 401 529 347 479 b 471 231 347 282 401 231 "},"ő":{"ha":942,"x_min":0,"x_max":0,"o":"m 272 1065 l 543 1065 l 408 843 l 200 843 m 597 1065 l 868 1065 l 733 843 l 525 843 m 471 -14 b 29 381 214 -14 29 150 b 471 774 29 611 214 774 b 913 381 729 774 913 611 b 471 -14 913 150 729 -14 m 471 231 b 594 381 540 231 594 282 b 471 529 594 479 540 529 b 347 381 401 529 347 479 b 471 231 347 282 401 231 "},"ȏ":{"ha":942,"x_min":0,"x_max":0,"o":"m 176 843 b 467 1079 183 989 300 1079 b 757 843 633 1079 750 989 l 569 843 b 467 928 565 894 524 928 b 364 843 410 928 368 894 l 176 843 m 471 -14 b 29 381 214 -14 29 150 b 471 774 29 611 214 774 b 913 381 729 774 913 611 b 471 -14 913 150 729 -14 m 471 231 b 594 381 540 231 594 282 b 471 529 594 479 540 529 b 347 381 401 529 347 479 b 471 231 347 282 401 231 "},"ō":{"ha":942,"x_min":0,"x_max":0,"o":"m 175 1036 l 758 1036 l 758 872 l 175 872 m 471 -14 b 29 381 214 -14 29 150 b 471 774 29 611 214 774 b 913 381 729 774 913 611 b 471 -14 913 150 729 -14 m 471 231 b 594 381 540 231 594 282 b 471 529 594 479 540 529 b 347 381 401 529 347 479 b 471 231 347 282 401 231 "},"ṓ":{"ha":942,"x_min":0,"x_max":0,"o":"m 463 1278 l 761 1278 l 529 1097 l 321 1097 m 175 1011 l 758 1011 l 758 856 l 175 856 m 471 -14 b 29 381 214 -14 29 150 b 471 774 29 611 214 774 b 913 381 729 774 913 611 b 471 -14 913 150 729 -14 m 471 231 b 594 381 540 231 594 282 b 471 529 594 479 540 529 b 347 381 401 529 347 479 b 471 231 347 282 401 231 "},"ṑ":{"ha":942,"x_min":0,"x_max":0,"o":"m 172 1278 l 471 1278 l 613 1097 l 404 1097 m 175 1011 l 758 1011 l 758 856 l 175 856 m 471 -14 b 29 381 214 -14 29 150 b 471 774 29 611 214 774 b 913 381 729 774 913 611 b 471 -14 913 150 729 -14 m 471 231 b 594 381 540 231 594 282 b 471 529 594 479 540 529 b 347 381 401 529 347 479 b 471 231 347 282 401 231 "},"ǫ":{"ha":942,"x_min":0,"x_max":0,"o":"m 647 15 b 479 -133 510 -36 479 -86 b 553 -192 479 -164 501 -192 b 635 -172 583 -192 614 -182 l 672 -301 b 515 -333 639 -319 575 -333 b 296 -162 376 -333 296 -267 b 382 -7 296 -101 326 -47 b 29 381 172 26 29 178 b 471 774 29 611 214 774 b 913 381 729 774 913 611 b 647 15 913 210 808 76 m 471 529 b 347 381 401 529 347 479 b 471 231 347 282 401 231 b 594 381 540 231 594 282 b 471 529 594 479 540 529 "},"ø":{"ha":942,"x_min":0,"x_max":0,"o":"m 743 699 b 913 381 849 629 913 517 b 471 -14 913 150 729 -14 b 299 14 408 -14 350 -4 l 226 -97 l 94 -97 l 199 63 b 29 381 93 132 29 244 b 471 774 29 611 214 774 b 642 747 533 774 590 764 l 707 847 l 839 847 l 743 699 m 347 381 b 358 310 347 354 351 331 l 499 526 b 471 529 490 528 481 529 b 347 381 401 529 347 479 m 471 231 b 594 381 540 231 594 282 b 582 451 594 408 590 432 l 442 233 b 471 231 450 232 461 231 "},"ǿ":{"ha":942,"x_min":0,"x_max":0,"o":"m 525 843 l 317 843 l 500 1065 l 799 1065 m 743 699 b 913 381 849 629 913 517 b 471 -14 913 150 729 -14 b 299 14 408 -14 350 -4 l 226 -97 l 94 -97 l 199 63 b 29 381 93 132 29 244 b 471 774 29 611 214 774 b 642 747 533 774 590 764 l 707 847 l 839 847 l 743 699 m 347 381 b 358 310 347 354 351 331 l 499 526 b 471 529 490 528 481 529 b 347 381 401 529 347 479 m 471 231 b 594 381 540 231 594 282 b 582 451 594 408 590 432 l 442 233 b 471 231 450 232 461 231 "},"õ":{"ha":942,"x_min":0,"x_max":0,"o":"m 579 829 b 374 911 476 829 424 911 b 311 843 338 911 314 885 l 163 843 b 354 1083 165 989 236 1083 b 560 1001 457 1083 510 1001 b 622 1065 596 1001 619 1026 l 771 1065 b 579 829 768 924 697 829 m 471 -14 b 29 381 214 -14 29 150 b 471 774 29 611 214 774 b 913 381 729 774 913 611 b 471 -14 913 150 729 -14 m 471 231 b 594 381 540 231 594 282 b 471 529 594 479 540 529 b 347 381 401 529 347 479 b 471 231 347 282 401 231 "},"ṍ":{"ha":942,"x_min":0,"x_max":0,"o":"m 463 1278 l 761 1278 l 529 1097 l 321 1097 m 572 829 b 381 899 472 829 419 899 b 322 842 349 899 325 875 l 169 842 b 361 1049 169 974 242 1049 b 556 979 461 1049 515 979 b 615 1036 590 979 613 1006 l 764 1036 b 572 829 764 908 697 829 m 471 -14 b 29 381 214 -14 29 150 b 471 774 29 611 214 774 b 913 381 729 774 913 611 b 471 -14 913 150 729 -14 m 471 231 b 594 381 540 231 594 282 b 471 529 594 479 540 529 b 347 381 401 529 347 479 b 471 231 347 282 401 231 "},"ṏ":{"ha":942,"x_min":0,"x_max":0,"o":"m 319 1086 b 201 1201 253 1086 201 1132 b 319 1318 201 1271 253 1318 b 438 1201 386 1318 438 1271 b 319 1086 438 1132 386 1086 m 614 1086 b 496 1201 547 1086 496 1132 b 614 1318 496 1271 547 1318 b 732 1201 681 1318 732 1271 b 614 1086 732 1132 681 1086 m 572 829 b 381 899 472 829 419 899 b 322 842 349 899 325 875 l 169 842 b 361 1049 169 974 242 1049 b 556 979 461 1049 515 979 b 615 1036 590 979 613 1006 l 764 1036 b 572 829 764 908 697 829 m 471 -14 b 29 381 214 -14 29 150 b 471 774 29 611 214 774 b 913 381 729 774 913 611 b 471 -14 913 150 729 -14 m 471 231 b 594 381 540 231 594 282 b 471 529 594 479 540 529 b 347 381 401 529 347 479 b 471 231 347 282 401 231 "},"ȭ":{"ha":942,"x_min":0,"x_max":0,"o":"m 175 1265 l 758 1265 l 758 1110 l 175 1110 m 572 829 b 381 899 472 829 419 899 b 322 842 349 899 325 875 l 169 842 b 361 1049 169 974 242 1049 b 556 979 461 1049 515 979 b 615 1036 590 979 613 1006 l 764 1036 b 572 829 764 908 697 829 m 471 -14 b 29 381 214 -14 29 150 b 471 774 29 611 214 774 b 913 381 729 774 913 611 b 471 -14 913 150 729 -14 m 471 231 b 594 381 540 231 594 282 b 471 529 594 479 540 529 b 347 381 401 529 347 479 b 471 231 347 282 401 231 "},"œ":{"ha":1475,"x_min":0,"x_max":0,"o":"m 1446 385 b 1440 307 1446 356 1443 329 l 908 307 b 1064 218 929 249 983 218 b 1219 274 1125 218 1168 236 l 1388 108 b 1056 -14 1311 28 1192 -14 b 750 86 926 -14 824 24 b 465 -14 681 24 583 -14 b 29 381 214 -14 29 150 b 465 774 29 611 214 774 b 747 676 583 774 679 738 b 1026 774 818 738 914 774 b 1446 385 1247 774 1446 638 m 1026 560 b 903 458 960 560 915 522 l 1147 458 b 1026 560 1136 522 1093 560 m 471 231 b 594 381 540 231 594 282 b 471 529 594 479 540 529 b 347 381 401 529 347 479 b 471 231 347 282 401 231 "},"p":{"ha":972,"x_min":0,"x_max":0,"o":"m 576 774 b 943 379 775 774 943 624 b 576 -14 943 135 775 -14 b 383 51 493 -14 429 7 l 383 -269 l 69 -269 l 69 760 l 368 760 l 368 697 b 576 774 414 749 482 774 m 501 231 b 625 379 571 231 625 281 b 501 529 625 478 571 529 b 378 379 432 529 378 478 b 501 231 378 281 432 231 "},"þ":{"ha":972,"x_min":0,"x_max":0,"o":"m 576 774 b 943 379 775 774 943 624 b 576 -14 943 135 775 -14 b 383 51 493 -14 429 7 l 383 -269 l 69 -269 l 69 1031 l 383 1031 l 383 713 b 576 774 429 754 492 774 m 501 231 b 625 379 571 231 625 281 b 501 529 625 478 571 529 b 378 379 432 529 378 478 b 501 231 378 281 432 231 "},"q":{"ha":972,"x_min":0,"x_max":0,"o":"m 903 760 l 903 -269 l 589 -269 l 589 51 b 396 -14 543 7 479 -14 b 29 379 197 -14 29 135 b 396 774 29 624 197 774 b 604 697 490 774 558 749 l 604 760 m 471 231 b 594 379 540 231 594 281 b 471 529 594 478 540 529 b 347 379 401 529 347 478 b 471 231 347 281 401 231 "},"r":{"ha":633,"x_min":0,"x_max":0,"o":"m 368 678 b 614 774 424 742 508 774 l 614 496 b 544 501 586 500 567 501 b 383 338 450 501 383 458 l 383 0 l 69 0 l 69 760 l 368 760 l 368 678 "},"ŕ":{"ha":633,"x_min":0,"x_max":0,"o":"m 403 843 l 194 843 l 378 1065 l 676 1065 m 368 678 b 614 774 424 742 508 774 l 614 496 b 544 501 586 500 567 501 b 383 338 450 501 383 458 l 383 0 l 69 0 l 69 760 l 368 760 l 368 678 "},"ř":{"ha":633,"x_min":0,"x_max":0,"o":"m 207 843 l 29 1065 l 224 1065 l 340 958 l 457 1065 l 651 1065 l 474 843 m 368 678 b 614 774 424 742 508 774 l 614 496 b 544 501 586 500 567 501 b 383 338 450 501 383 458 l 383 0 l 69 0 l 69 760 l 368 760 l 368 678 "},"ŗ":{"ha":633,"x_min":0,"x_max":0,"o":"m 368 678 b 614 774 424 742 508 774 l 614 496 b 544 501 586 500 567 501 b 383 338 450 501 383 458 l 383 0 l 69 0 l 69 760 l 368 760 l 368 678 m 226 -69 b 351 -174 304 -69 351 -111 b 317 -285 351 -200 346 -235 l 263 -375 l 125 -375 l 161 -265 b 101 -174 121 -250 101 -218 b 226 -69 101 -111 149 -69 "},"ȑ":{"ha":633,"x_min":0,"x_max":0,"o":"m 74 843 l -61 1065 l 210 1065 l 282 843 m 399 843 l 264 1065 l 535 1065 l 607 843 m 368 678 b 614 774 424 742 508 774 l 614 496 b 544 501 586 500 567 501 b 383 338 450 501 383 458 l 383 0 l 69 0 l 69 760 l 368 760 l 368 678 "},"ṛ":{"ha":633,"x_min":0,"x_max":0,"o":"m 368 678 b 614 774 424 742 508 774 l 614 496 b 544 501 586 500 567 501 b 383 338 450 501 383 458 l 383 0 l 69 0 l 69 760 l 368 760 l 368 678 m 226 -69 b 351 -193 297 -69 351 -119 b 226 -314 351 -267 297 -314 b 101 -193 156 -314 101 -267 b 226 -69 101 -119 156 -69 "},"ȓ":{"ha":633,"x_min":0,"x_max":0,"o":"m 340 928 b 238 843 283 928 242 894 l 50 843 b 340 1079 57 989 174 1079 b 631 843 507 1079 624 989 l 443 843 b 340 928 439 894 397 928 m 368 678 b 614 774 424 742 508 774 l 614 496 b 544 501 586 500 567 501 b 383 338 450 501 383 458 l 383 0 l 69 0 l 69 760 l 368 760 l 368 678 "},"ṟ":{"ha":633,"x_min":0,"x_max":0,"o":"m 368 678 b 614 774 424 742 508 774 l 614 496 b 544 501 586 500 567 501 b 383 338 450 501 383 458 l 383 0 l 69 0 l 69 760 l 368 760 l 368 678 m -65 -103 l 518 -103 l 518 -267 l -65 -267 "},"s":{"ha":785,"x_min":0,"x_max":0,"o":"m 367 -14 b 22 61 236 -14 100 17 l 108 268 b 374 200 181 225 283 200 b 471 236 450 200 471 214 b 33 514 471 314 33 210 b 422 774 33 657 167 774 b 732 711 533 774 651 753 l 646 504 b 426 560 568 547 490 560 b 324 524 346 560 324 542 b 760 243 324 444 760 547 b 367 -14 760 106 631 -14 "},"ś":{"ha":785,"x_min":0,"x_max":0,"o":"m 421 1065 l 719 1065 l 446 843 l 238 843 m 367 -14 b 22 61 236 -14 100 17 l 108 268 b 374 200 181 225 283 200 b 471 236 450 200 471 214 b 33 514 471 314 33 210 b 422 774 33 657 167 774 b 732 711 533 774 651 753 l 646 504 b 426 560 568 547 490 560 b 324 524 346 560 324 542 b 760 243 324 444 760 547 b 367 -14 760 106 631 -14 "},"ṥ":{"ha":785,"x_min":0,"x_max":0,"o":"m 383 1083 b 258 1204 313 1083 258 1131 b 383 1328 258 1278 313 1328 b 508 1204 454 1328 508 1278 b 383 1083 508 1131 454 1083 m 379 1024 l 678 1024 l 446 843 l 238 843 m 367 -14 b 22 61 236 -14 100 17 l 108 268 b 374 200 181 225 283 200 b 471 236 450 200 471 214 b 33 514 471 314 33 210 b 422 774 33 657 167 774 b 732 711 533 774 651 753 l 646 504 b 426 560 568 547 490 560 b 324 524 346 560 324 542 b 760 243 324 444 760 547 b 367 -14 760 106 631 -14 "},"ꞌ":{"ha":464,"x_min":0,"x_max":0,"o":"m 76 974 l 388 974 l 346 411 l 76 411 "},"š":{"ha":785,"x_min":0,"x_max":0,"o":"m 250 843 l 72 1065 l 267 1065 l 383 958 l 500 1065 l 694 1065 l 517 843 m 324 524 b 760 243 324 444 760 547 b 367 -14 760 106 631 -14 b 22 61 236 -14 100 17 l 108 268 b 374 200 181 225 283 200 b 471 236 450 200 471 214 b 33 514 471 314 33 210 b 422 774 33 657 167 774 b 732 711 533 774 651 753 l 646 504 b 426 560 568 547 490 560 b 324 524 346 560 324 542 "},"ṧ":{"ha":785,"x_min":0,"x_max":0,"o":"m 383 1051 b 258 1172 313 1051 258 1099 b 383 1296 258 1246 313 1296 b 508 1172 454 1296 508 1246 b 383 1051 508 1099 454 1051 m 251 843 l 72 1024 l 267 1024 l 383 939 l 500 1024 l 694 1024 l 515 843 m 324 524 b 760 243 324 444 760 547 b 367 -14 760 106 631 -14 b 22 61 236 -14 100 17 l 108 268 b 374 200 181 225 283 200 b 471 236 450 200 471 214 b 33 514 471 314 33 210 b 422 774 33 657 167 774 b 732 711 533 774 651 753 l 646 504 b 426 560 568 547 490 560 b 324 524 346 560 324 542 "},"ş":{"ha":785,"x_min":0,"x_max":0,"o":"m 760 243 b 458 -8 760 122 661 17 l 444 -72 b 563 -183 532 -83 563 -135 b 326 -333 563 -276 468 -333 b 190 -304 279 -333 221 -321 l 229 -189 b 313 -206 250 -197 279 -206 b 379 -172 360 -206 379 -192 b 322 -144 379 -156 363 -144 l 265 -144 l 297 -11 b 22 61 189 -3 86 25 l 108 268 b 374 200 181 225 283 200 b 471 236 450 200 471 214 b 33 514 471 314 33 210 b 422 774 33 657 167 774 b 732 711 533 774 651 753 l 646 504 b 426 560 568 547 490 560 b 324 524 346 560 324 542 b 760 243 324 444 760 547 "},"ŝ":{"ha":785,"x_min":0,"x_max":0,"o":"m 267 843 l 72 843 l 250 1065 l 517 1065 l 694 843 l 500 843 l 383 950 m 324 524 b 760 243 324 444 760 547 b 367 -14 760 106 631 -14 b 22 61 236 -14 100 17 l 108 268 b 374 200 181 225 283 200 b 471 236 450 200 471 214 b 33 514 471 314 33 210 b 422 774 33 657 167 774 b 732 711 533 774 651 753 l 646 504 b 426 560 568 547 490 560 b 324 524 346 560 324 542 "},"ș":{"ha":785,"x_min":0,"x_max":0,"o":"m 324 524 b 760 243 324 444 760 547 b 367 -14 760 106 631 -14 b 22 61 236 -14 100 17 l 108 268 b 374 200 181 225 283 200 b 471 236 450 200 471 214 b 33 514 471 314 33 210 b 422 774 33 657 167 774 b 732 711 533 774 651 753 l 646 504 b 426 560 568 547 490 560 b 324 524 346 560 324 542 m 383 -69 b 508 -174 461 -69 508 -111 b 474 -285 508 -200 503 -235 l 419 -375 l 282 -375 l 318 -265 b 258 -174 278 -250 258 -218 b 383 -69 258 -111 306 -69 "},"ṡ":{"ha":785,"x_min":0,"x_max":0,"o":"m 383 829 b 225 988 290 829 225 894 b 383 1146 225 1081 290 1146 b 542 988 476 1146 542 1081 b 383 829 542 894 476 829 m 367 -14 b 22 61 236 -14 100 17 l 108 268 b 374 200 181 225 283 200 b 471 236 450 200 471 214 b 33 514 471 314 33 210 b 422 774 33 657 167 774 b 732 711 533 774 651 753 l 646 504 b 426 560 568 547 490 560 b 324 524 346 560 324 542 b 760 243 324 444 760 547 b 367 -14 760 106 631 -14 "},"ṣ":{"ha":785,"x_min":0,"x_max":0,"o":"m 367 -14 b 22 61 236 -14 100 17 l 108 268 b 374 200 181 225 283 200 b 471 236 450 200 471 214 b 33 514 471 314 33 210 b 422 774 33 657 167 774 b 732 711 533 774 651 753 l 646 504 b 426 560 568 547 490 560 b 324 524 346 560 324 542 b 760 243 324 444 760 547 b 367 -14 760 106 631 -14 m 383 -314 b 258 -193 313 -314 258 -267 b 383 -69 258 -119 313 -69 b 508 -193 454 -69 508 -119 b 383 -314 508 -267 454 -314 "},"ṩ":{"ha":785,"x_min":0,"x_max":0,"o":"m 383 829 b 225 988 290 829 225 894 b 383 1146 225 1081 290 1146 b 542 988 476 1146 542 1081 b 383 829 542 894 476 829 m 367 -14 b 22 61 236 -14 100 17 l 108 268 b 374 200 181 225 283 200 b 471 236 450 200 471 214 b 33 514 471 314 33 210 b 422 774 33 657 167 774 b 732 711 533 774 651 753 l 646 504 b 426 560 568 547 490 560 b 324 524 346 560 324 542 b 760 243 324 444 760 547 b 367 -14 760 106 631 -14 m 383 -314 b 258 -193 313 -314 258 -267 b 383 -69 258 -119 313 -69 b 508 -193 454 -69 508 -119 b 383 -314 508 -267 454 -314 "},"ß":{"ha":992,"x_min":0,"x_max":0,"o":"m 786 550 b 963 296 900 506 963 419 b 597 -14 963 100 818 -14 b 428 8 539 -14 465 -6 l 458 247 b 550 231 488 236 517 231 b 644 304 604 231 644 256 b 539 376 644 351 608 376 l 467 376 l 467 613 b 574 710 531 615 574 653 b 483 803 574 765 538 803 b 383 699 422 803 383 765 l 383 0 l 69 0 l 69 656 b 482 1044 69 911 258 1044 b 875 740 735 1044 875 910 b 786 550 875 663 840 599 "},"ſ":{"ha":508,"x_min":0,"x_max":0,"o":"m 461 1044 b 647 1007 528 1044 601 1032 l 572 789 b 501 807 551 799 526 807 b 436 719 457 807 436 781 l 436 0 l 122 0 l 122 489 l 18 489 l 18 718 l 122 718 l 122 722 b 461 1044 122 918 244 1044 "},"t":{"ha":639,"x_min":0,"x_max":0,"o":"m 629 26 b 436 -14 581 -1 510 -14 b 104 294 226 -14 104 85 l 104 489 l 0 489 l 0 718 l 104 718 l 104 931 l 418 931 l 418 718 l 574 718 l 574 489 l 418 489 l 418 297 b 483 224 418 250 446 224 b 554 244 508 224 533 231 "},"ŧ":{"ha":653,"x_min":0,"x_max":0,"o":"m 636 26 b 443 -14 588 -1 517 -14 b 111 286 236 -14 114 82 l 25 286 l 25 439 l 111 439 l 111 489 l 7 489 l 7 718 l 111 718 l 111 931 l 425 931 l 425 718 l 581 718 l 581 489 l 425 489 l 425 439 l 563 439 l 563 286 l 425 286 b 490 224 429 246 456 224 b 561 244 515 224 540 231 "},"ť":{"ha":639,"x_min":0,"x_max":0,"o":"m 690 1071 l 663 779 l 485 779 l 485 1071 m 483 224 b 554 244 508 224 533 231 l 629 26 b 436 -14 581 -1 510 -14 b 104 294 226 -14 104 85 l 104 489 l 0 489 l 0 718 l 104 718 l 104 931 l 418 931 l 418 718 l 574 718 l 574 489 l 418 489 l 418 297 b 483 224 418 250 446 224 "},"ţ":{"ha":639,"x_min":0,"x_max":0,"o":"m 442 -72 b 560 -183 529 -83 560 -135 b 324 -333 560 -276 465 -333 b 188 -304 276 -333 218 -321 l 226 -189 b 310 -206 247 -197 276 -206 b 376 -172 357 -206 376 -192 b 319 -144 376 -156 360 -144 l 263 -144 l 297 4 b 104 294 174 42 104 136 l 104 489 l 0 489 l 0 718 l 104 718 l 104 931 l 418 931 l 418 718 l 574 718 l 574 489 l 418 489 l 418 297 b 483 224 418 250 446 224 b 554 244 508 224 533 231 l 629 26 b 456 -14 585 1 522 -11 l 442 -72 "},"ț":{"ha":639,"x_min":0,"x_max":0,"o":"m 629 26 b 436 -14 581 -1 510 -14 b 104 294 226 -14 104 85 l 104 489 l 0 489 l 0 718 l 104 718 l 104 931 l 418 931 l 418 718 l 574 718 l 574 489 l 418 489 l 418 297 b 483 224 418 250 446 224 b 554 244 508 224 533 231 l 629 26 m 381 -69 b 506 -174 458 -69 506 -111 b 471 -285 506 -200 500 -235 l 417 -375 l 279 -375 l 315 -265 b 256 -174 275 -250 256 -218 b 381 -69 256 -111 303 -69 "},"ẗ":{"ha":639,"x_min":0,"x_max":0,"o":"m 107 1003 b -18 1125 36 1003 -18 1051 b 107 1249 -18 1199 36 1249 b 232 1125 178 1249 232 1199 b 107 1003 232 1051 178 1003 m 415 1003 b 290 1125 344 1003 290 1051 b 415 1249 290 1199 344 1249 b 540 1125 486 1249 540 1199 b 415 1003 540 1051 486 1003 m 629 26 b 436 -14 581 -1 510 -14 b 104 294 226 -14 104 85 l 104 489 l 0 489 l 0 718 l 104 718 l 104 931 l 418 931 l 418 718 l 574 718 l 574 489 l 418 489 l 418 297 b 483 224 418 250 446 224 b 554 244 508 224 533 231 "},"ṭ":{"ha":639,"x_min":0,"x_max":0,"o":"m 629 26 b 436 -14 581 -1 510 -14 b 104 294 226 -14 104 85 l 104 489 l 0 489 l 0 718 l 104 718 l 104 931 l 418 931 l 418 718 l 574 718 l 574 489 l 418 489 l 418 297 b 483 224 418 250 446 224 b 554 244 508 224 533 231 l 629 26 m 381 -69 b 506 -193 451 -69 506 -119 b 381 -314 506 -267 451 -314 b 256 -193 310 -314 256 -267 b 381 -69 256 -119 310 -69 "},"ṯ":{"ha":639,"x_min":0,"x_max":0,"o":"m 104 489 l 0 489 l 0 718 l 104 718 l 104 931 l 418 931 l 418 718 l 574 718 l 574 489 l 418 489 l 418 297 b 483 224 418 250 446 224 b 554 244 508 224 533 231 l 629 26 b 436 -14 581 -1 510 -14 b 104 294 226 -14 104 85 m 672 -103 l 672 -267 l 89 -267 l 89 -103 "},"u":{"ha":969,"x_min":0,"x_max":0,"o":"m 900 760 l 900 0 l 601 0 l 601 72 b 386 -14 544 14 468 -14 b 67 340 204 -14 67 93 l 67 760 l 381 760 l 381 394 b 479 250 381 286 418 250 b 586 403 533 250 586 290 l 586 760 "},"ú":{"ha":969,"x_min":0,"x_max":0,"o":"m 546 843 l 338 843 l 521 1065 l 819 1065 m 900 760 l 900 0 l 601 0 l 601 72 b 386 -14 544 14 468 -14 b 67 340 204 -14 67 93 l 67 760 l 381 760 l 381 394 b 479 250 381 286 418 250 b 586 403 533 250 586 290 l 586 760 "},"ŭ":{"ha":969,"x_min":0,"x_max":0,"o":"m 483 829 b 193 1065 317 829 200 919 l 381 1065 b 483 981 385 1014 426 981 b 586 1065 540 981 582 1014 l 774 1065 b 483 829 767 919 650 829 m 900 760 l 900 0 l 601 0 l 601 72 b 386 -14 544 14 468 -14 b 67 340 204 -14 67 93 l 67 760 l 381 760 l 381 394 b 479 250 381 286 418 250 b 586 403 533 250 586 290 l 586 760 "},"ǔ":{"ha":969,"x_min":0,"x_max":0,"o":"m 350 843 l 172 1065 l 367 1065 l 483 958 l 600 1065 l 794 1065 l 617 843 m 900 760 l 900 0 l 601 0 l 601 72 b 386 -14 544 14 468 -14 b 67 340 204 -14 67 93 l 67 760 l 381 760 l 381 394 b 479 250 381 286 418 250 b 586 403 533 250 586 290 l 586 760 "},"û":{"ha":969,"x_min":0,"x_max":0,"o":"m 367 843 l 172 843 l 350 1065 l 617 1065 l 794 843 l 600 843 l 483 950 m 900 760 l 900 0 l 601 0 l 601 72 b 386 -14 544 14 468 -14 b 67 340 204 -14 67 93 l 67 760 l 381 760 l 381 394 b 479 250 381 286 418 250 b 586 403 533 250 586 290 l 586 760 "},"ȕ":{"ha":969,"x_min":0,"x_max":0,"o":"m 217 843 l 82 1065 l 353 1065 l 425 843 m 542 843 l 407 1065 l 678 1065 l 750 843 m 900 760 l 900 0 l 601 0 l 601 72 b 386 -14 544 14 468 -14 b 67 340 204 -14 67 93 l 67 760 l 381 760 l 381 394 b 479 250 381 286 418 250 b 586 403 533 250 586 290 l 586 760 "},"ü":{"ha":969,"x_min":0,"x_max":0,"o":"m 329 832 b 204 954 258 832 204 881 b 329 1078 204 1028 258 1078 b 454 954 400 1078 454 1028 b 329 832 454 881 400 832 m 638 832 b 513 954 567 832 513 881 b 638 1078 513 1028 567 1078 b 763 954 708 1078 763 1028 b 638 832 763 881 708 832 m 900 760 l 900 0 l 601 0 l 601 72 b 386 -14 544 14 468 -14 b 67 340 204 -14 67 93 l 67 760 l 381 760 l 381 394 b 479 250 381 286 418 250 b 586 403 533 250 586 290 l 586 760 "},"ụ":{"ha":969,"x_min":0,"x_max":0,"o":"m 900 760 l 900 0 l 601 0 l 601 72 b 386 -14 544 14 468 -14 b 67 340 204 -14 67 93 l 67 760 l 381 760 l 381 394 b 479 250 381 286 418 250 b 586 403 533 250 586 290 l 586 760 m 483 -69 b 608 -193 554 -69 608 -119 b 483 -314 608 -267 554 -314 b 358 -193 413 -314 358 -267 b 483 -69 358 -119 413 -69 "},"ù":{"ha":969,"x_min":0,"x_max":0,"o":"m 421 843 l 147 1065 l 446 1065 l 629 843 m 900 760 l 900 0 l 601 0 l 601 72 b 386 -14 544 14 468 -14 b 67 340 204 -14 67 93 l 67 760 l 381 760 l 381 394 b 479 250 381 286 418 250 b 586 403 533 250 586 290 l 586 760 "},"ủ":{"ha":969,"x_min":0,"x_max":0,"o":"m 454 1047 b 375 1019 428 1047 403 1039 l 311 1136 b 490 1192 360 1174 424 1192 b 686 1021 607 1192 686 1122 b 543 829 686 931 635 871 l 449 919 b 513 994 501 944 513 969 b 454 1047 513 1028 489 1047 m 900 760 l 900 0 l 601 0 l 601 72 b 386 -14 544 14 468 -14 b 67 340 204 -14 67 93 l 67 760 l 381 760 l 381 394 b 479 250 381 286 418 250 b 586 403 533 250 586 290 l 586 760 "},"ư":{"ha":997,"x_min":0,"x_max":0,"o":"m 1035 832 b 900 599 1035 719 986 639 l 900 0 l 601 0 l 601 72 b 386 -14 544 14 468 -14 b 67 340 204 -14 67 93 l 67 760 l 381 760 l 381 394 b 479 250 381 286 418 250 b 586 403 533 250 586 290 l 586 760 l 757 760 b 833 844 796 760 833 793 b 806 924 833 875 822 904 l 983 986 b 1035 832 1015 946 1035 894 "},"ứ":{"ha":997,"x_min":0,"x_max":0,"o":"m 546 843 l 338 843 l 521 1065 l 819 1065 m 1035 832 b 900 599 1035 719 986 639 l 900 0 l 601 0 l 601 72 b 386 -14 544 14 468 -14 b 67 340 204 -14 67 93 l 67 760 l 381 760 l 381 394 b 479 250 381 286 418 250 b 586 403 533 250 586 290 l 586 760 l 757 760 b 833 844 796 760 833 793 b 806 924 833 875 822 904 l 983 986 b 1035 832 1015 946 1035 894 "},"ự":{"ha":997,"x_min":0,"x_max":0,"o":"m 1035 832 b 900 599 1035 719 986 639 l 900 0 l 601 0 l 601 72 b 386 -14 544 14 468 -14 b 67 340 204 -14 67 93 l 67 760 l 381 760 l 381 394 b 479 250 381 286 418 250 b 586 403 533 250 586 290 l 586 760 l 757 760 b 833 844 796 760 833 793 b 806 924 833 875 822 904 l 983 986 b 1035 832 1015 946 1035 894 m 483 -69 b 608 -193 554 -69 608 -119 b 483 -314 608 -267 554 -314 b 358 -193 413 -314 358 -267 b 483 -69 358 -119 413 -69 "},"ừ":{"ha":997,"x_min":0,"x_max":0,"o":"m 421 843 l 147 1065 l 446 1065 l 629 843 m 1035 832 b 900 599 1035 719 986 639 l 900 0 l 601 0 l 601 72 b 386 -14 544 14 468 -14 b 67 340 204 -14 67 93 l 67 760 l 381 760 l 381 394 b 479 250 381 286 418 250 b 586 403 533 250 586 290 l 586 760 l 757 760 b 833 844 796 760 833 793 b 806 924 833 875 822 904 l 983 986 b 1035 832 1015 946 1035 894 "},"ử":{"ha":997,"x_min":0,"x_max":0,"o":"m 454 1047 b 375 1019 428 1047 403 1039 l 311 1136 b 490 1192 360 1174 424 1192 b 686 1021 607 1192 686 1122 b 543 829 686 931 635 871 l 449 919 b 513 994 501 944 513 969 b 454 1047 513 1028 489 1047 m 1035 832 b 900 599 1035 719 986 639 l 900 0 l 601 0 l 601 72 b 386 -14 544 14 468 -14 b 67 340 204 -14 67 93 l 67 760 l 381 760 l 381 394 b 479 250 381 286 418 250 b 586 403 533 250 586 290 l 586 760 l 757 760 b 833 844 796 760 833 793 b 806 924 833 875 822 904 l 983 986 b 1035 832 1015 946 1035 894 "},"ữ":{"ha":997,"x_min":0,"x_max":0,"o":"m 390 911 b 328 843 354 911 331 885 l 179 843 b 371 1083 182 989 253 1083 b 576 1001 474 1083 526 1001 b 639 1065 613 1001 636 1026 l 788 1065 b 596 829 785 924 714 829 b 390 911 493 829 440 911 m 1035 832 b 900 599 1035 719 986 639 l 900 0 l 601 0 l 601 72 b 386 -14 544 14 468 -14 b 67 340 204 -14 67 93 l 67 760 l 381 760 l 381 394 b 479 250 381 286 418 250 b 586 403 533 250 586 290 l 586 760 l 757 760 b 833 844 796 760 833 793 b 806 924 833 875 822 904 l 983 986 b 1035 832 1015 946 1035 894 "},"ű":{"ha":969,"x_min":0,"x_max":0,"o":"m 425 843 l 217 843 l 289 1065 l 560 1065 m 542 843 l 614 1065 l 885 1065 l 750 843 m 900 760 l 900 0 l 601 0 l 601 72 b 386 -14 544 14 468 -14 b 67 340 204 -14 67 93 l 67 760 l 381 760 l 381 394 b 479 250 381 286 418 250 b 586 403 533 250 586 290 l 586 760 "},"ȗ":{"ha":969,"x_min":0,"x_max":0,"o":"m 483 928 b 381 843 426 928 385 894 l 193 843 b 483 1079 200 989 317 1079 b 774 843 650 1079 767 989 l 586 843 b 483 928 582 894 540 928 m 900 760 l 900 0 l 601 0 l 601 72 b 386 -14 544 14 468 -14 b 67 340 204 -14 67 93 l 67 760 l 381 760 l 381 394 b 479 250 381 286 418 250 b 586 403 533 250 586 290 l 586 760 "},"ū":{"ha":969,"x_min":0,"x_max":0,"o":"m 775 872 l 192 872 l 192 1036 l 775 1036 m 900 760 l 900 0 l 601 0 l 601 72 b 386 -14 544 14 468 -14 b 67 340 204 -14 67 93 l 67 760 l 381 760 l 381 394 b 479 250 381 286 418 250 b 586 403 533 250 586 290 l 586 760 "},"ṻ":{"ha":969,"x_min":0,"x_max":0,"o":"m 336 1086 b 218 1201 269 1086 218 1132 b 336 1318 218 1271 269 1318 b 454 1201 403 1318 454 1271 b 336 1086 454 1132 403 1086 m 631 1086 b 513 1201 564 1086 513 1132 b 631 1318 513 1271 564 1318 b 749 1201 697 1318 749 1271 b 631 1086 749 1132 697 1086 m 775 856 l 192 856 l 192 1011 l 775 1011 m 900 760 l 900 0 l 601 0 l 601 72 b 386 -14 544 14 468 -14 b 67 340 204 -14 67 93 l 67 760 l 381 760 l 381 394 b 479 250 381 286 418 250 b 586 403 533 250 586 290 l 586 760 "},"ų":{"ha":969,"x_min":0,"x_max":0,"o":"m 935 -301 b 778 -333 901 -319 838 -333 b 558 -162 639 -333 558 -267 b 650 0 558 -99 590 -44 l 601 0 l 601 72 b 386 -14 544 14 468 -14 b 67 340 204 -14 67 93 l 67 760 l 381 760 l 381 394 b 479 250 381 286 418 250 b 586 403 533 250 586 290 l 586 760 l 900 760 l 900 0 b 742 -135 779 -53 742 -92 b 815 -192 742 -167 764 -192 b 897 -172 846 -192 876 -182 "},"ů":{"ha":969,"x_min":0,"x_max":0,"o":"m 483 819 b 289 1006 374 819 289 901 b 483 1192 289 1110 374 1192 b 678 1006 593 1192 678 1110 b 483 819 678 901 593 819 m 483 1081 b 408 1006 442 1081 408 1050 b 483 931 408 961 442 931 b 558 1006 525 931 558 961 b 483 1081 558 1050 525 1081 m 900 760 l 900 0 l 601 0 l 601 72 b 386 -14 544 14 468 -14 b 67 340 204 -14 67 93 l 67 760 l 381 760 l 381 394 b 479 250 381 286 418 250 b 586 403 533 250 586 290 l 586 760 "},"ũ":{"ha":969,"x_min":0,"x_max":0,"o":"m 390 911 b 328 843 354 911 331 885 l 179 843 b 371 1083 182 989 253 1083 b 576 1001 474 1083 526 1001 b 639 1065 613 1001 636 1026 l 788 1065 b 596 829 785 924 714 829 b 390 911 493 829 440 911 m 900 760 l 900 0 l 601 0 l 601 72 b 386 -14 544 14 468 -14 b 67 340 204 -14 67 93 l 67 760 l 381 760 l 381 394 b 479 250 381 286 418 250 b 586 403 533 250 586 290 l 586 760 "},"ṹ":{"ha":969,"x_min":0,"x_max":0,"o":"m 546 1097 l 338 1097 l 479 1278 l 778 1278 m 397 899 b 339 842 365 899 342 875 l 186 842 b 378 1049 186 974 258 1049 b 572 979 478 1049 532 979 b 632 1036 607 979 629 1006 l 781 1036 b 589 829 781 908 714 829 b 397 899 489 829 436 899 m 900 760 l 900 0 l 601 0 l 601 72 b 386 -14 544 14 468 -14 b 67 340 204 -14 67 93 l 67 760 l 381 760 l 381 394 b 479 250 381 286 418 250 b 586 403 533 250 586 290 l 586 760 "},"v":{"ha":894,"x_min":0,"x_max":0,"o":"m 915 760 l 610 0 l 285 0 l -21 760 l 301 760 l 454 353 l 618 760 "},"w":{"ha":1357,"x_min":0,"x_max":0,"o":"m 1365 760 l 1101 0 l 796 0 l 681 351 l 561 0 l 256 0 l -8 760 l 289 760 l 419 358 l 556 760 l 822 760 l 954 354 l 1090 760 "},"ẃ":{"ha":1357,"x_min":0,"x_max":0,"o":"m 742 843 l 533 843 l 717 1065 l 1015 1065 m 1365 760 l 1101 0 l 796 0 l 681 351 l 561 0 l 256 0 l -8 760 l 289 760 l 419 358 l 556 760 l 822 760 l 954 354 l 1090 760 "},"ŵ":{"ha":1357,"x_min":0,"x_max":0,"o":"m 563 843 l 368 843 l 546 1065 l 813 1065 l 990 843 l 796 843 l 679 950 m 1365 760 l 1101 0 l 796 0 l 681 351 l 561 0 l 256 0 l -8 760 l 289 760 l 419 358 l 556 760 l 822 760 l 954 354 l 1090 760 "},"ẅ":{"ha":1357,"x_min":0,"x_max":0,"o":"m 525 832 b 400 954 454 832 400 881 b 525 1078 400 1028 454 1078 b 650 954 596 1078 650 1028 b 525 832 650 881 596 832 m 833 832 b 708 954 763 832 708 881 b 833 1078 708 1028 763 1078 b 958 954 904 1078 958 1028 b 833 832 958 881 904 832 m 1365 760 l 1101 0 l 796 0 l 681 351 l 561 0 l 256 0 l -8 760 l 289 760 l 419 358 l 556 760 l 822 760 l 954 354 l 1090 760 "},"ẁ":{"ha":1357,"x_min":0,"x_max":0,"o":"m 617 843 l 343 1065 l 642 1065 l 825 843 m 1365 760 l 1101 0 l 796 0 l 681 351 l 561 0 l 256 0 l -8 760 l 289 760 l 419 358 l 556 760 l 822 760 l 954 354 l 1090 760 "},"x":{"ha":896,"x_min":0,"x_max":0,"o":"m 549 0 l 444 163 l 328 0 l -12 0 l 275 376 l -4 760 l 350 760 l 458 599 l 572 760 l 901 760 l 622 390 l 908 0 "},"y":{"ha":894,"x_min":0,"x_max":0,"o":"m 915 760 l 603 -15 b 236 -283 519 -224 397 -283 b 6 -215 153 -283 57 -257 l 110 0 b 221 -40 140 -24 183 -40 b 299 -10 258 -40 282 -29 l -21 760 l 301 760 l 458 353 l 618 760 "},"ý":{"ha":894,"x_min":0,"x_max":0,"o":"m 497 843 l 289 843 l 472 1065 l 771 1065 m 915 760 l 603 -15 b 236 -283 519 -224 397 -283 b 6 -215 153 -283 57 -257 l 110 0 b 221 -40 140 -24 183 -40 b 299 -10 258 -40 282 -29 l -21 760 l 301 760 l 458 353 l 618 760 "},"ŷ":{"ha":894,"x_min":0,"x_max":0,"o":"m 318 843 l 124 843 l 301 1065 l 568 1065 l 746 843 l 551 843 l 435 950 m 915 760 l 603 -15 b 236 -283 519 -224 397 -283 b 6 -215 153 -283 57 -257 l 110 0 b 221 -40 140 -24 183 -40 b 299 -10 258 -40 282 -29 l -21 760 l 301 760 l 458 353 l 618 760 "},"ÿ":{"ha":894,"x_min":0,"x_max":0,"o":"m 281 832 b 156 954 210 832 156 881 b 281 1078 156 1028 210 1078 b 406 954 351 1078 406 1028 b 281 832 406 881 351 832 m 589 832 b 464 954 518 832 464 881 b 589 1078 464 1028 518 1078 b 714 954 660 1078 714 1028 b 589 832 714 881 660 832 m 915 760 l 603 -15 b 236 -283 519 -224 397 -283 b 6 -215 153 -283 57 -257 l 110 0 b 221 -40 140 -24 183 -40 b 299 -10 258 -40 282 -29 l -21 760 l 301 760 l 458 353 l 618 760 "},"ẏ":{"ha":894,"x_min":0,"x_max":0,"o":"m 435 829 b 276 988 342 829 276 894 b 435 1146 276 1081 342 1146 b 593 988 528 1146 593 1081 b 435 829 593 894 528 829 m 915 760 l 603 -15 b 236 -283 519 -224 397 -283 b 6 -215 153 -283 57 -257 l 110 0 b 221 -40 140 -24 183 -40 b 299 -10 258 -40 282 -29 l -21 760 l 301 760 l 458 353 l 618 760 "},"ỵ":{"ha":894,"x_min":0,"x_max":0,"o":"m 915 760 l 603 -15 b 236 -283 519 -224 397 -283 b 6 -215 153 -283 57 -257 l 110 0 b 221 -40 140 -24 183 -40 b 299 -10 258 -40 282 -29 l -21 760 l 301 760 l 458 353 l 618 760 m 732 -69 b 857 -193 803 -69 857 -119 b 732 -314 857 -267 803 -314 b 607 -193 661 -314 607 -267 b 732 -69 607 -119 661 -69 "},"ỳ":{"ha":894,"x_min":0,"x_max":0,"o":"m 372 843 l 99 1065 l 397 1065 l 581 843 m 915 760 l 603 -15 b 236 -283 519 -224 397 -283 b 6 -215 153 -283 57 -257 l 110 0 b 221 -40 140 -24 183 -40 b 299 -10 258 -40 282 -29 l -21 760 l 301 760 l 458 353 l 618 760 "},"ỷ":{"ha":894,"x_min":0,"x_max":0,"o":"m 406 1047 b 326 1019 379 1047 354 1039 l 263 1136 b 442 1192 311 1174 375 1192 b 638 1021 558 1192 638 1122 b 494 829 638 931 586 871 l 400 919 b 464 994 453 944 464 969 b 406 1047 464 1028 440 1047 m 915 760 l 603 -15 b 236 -283 519 -224 397 -283 b 6 -215 153 -283 57 -257 l 110 0 b 221 -40 140 -24 183 -40 b 299 -10 258 -40 282 -29 l -21 760 l 301 760 l 458 353 l 618 760 "},"ȳ":{"ha":894,"x_min":0,"x_max":0,"o":"m 726 872 l 143 872 l 143 1036 l 726 1036 m 915 760 l 603 -15 b 236 -283 519 -224 397 -283 b 6 -215 153 -283 57 -257 l 110 0 b 221 -40 140 -24 183 -40 b 299 -10 258 -40 282 -29 l -21 760 l 301 760 l 458 353 l 618 760 "},"ỹ":{"ha":894,"x_min":0,"x_max":0,"o":"m 342 911 b 279 843 306 911 282 885 l 131 843 b 322 1083 133 989 204 1083 b 528 1001 425 1083 478 1001 b 590 1065 564 1001 588 1026 l 739 1065 b 547 829 736 924 665 829 b 342 911 444 829 392 911 m 915 760 l 603 -15 b 236 -283 519 -224 397 -283 b 6 -215 153 -283 57 -257 l 110 0 b 221 -40 140 -24 183 -40 b 299 -10 258 -40 282 -29 l -21 760 l 301 760 l 458 353 l 618 760 "},"z":{"ha":792,"x_min":0,"x_max":0,"o":"m 767 229 l 767 0 l 42 0 l 42 181 l 356 531 l 53 531 l 53 760 l 751 760 l 751 579 l 438 229 "},"ź":{"ha":792,"x_min":0,"x_max":0,"o":"m 465 843 l 257 843 l 440 1065 l 739 1065 m 767 229 l 767 0 l 42 0 l 42 181 l 356 531 l 53 531 l 53 760 l 751 760 l 751 579 l 438 229 "},"ž":{"ha":792,"x_min":0,"x_max":0,"o":"m 269 843 l 92 1065 l 286 1065 l 403 958 l 519 1065 l 714 1065 l 536 843 m 767 229 l 767 0 l 42 0 l 42 181 l 356 531 l 53 531 l 53 760 l 751 760 l 751 579 l 438 229 "},"ż":{"ha":792,"x_min":0,"x_max":0,"o":"m 403 829 b 244 988 310 829 244 894 b 403 1146 244 1081 310 1146 b 561 988 496 1146 561 1081 b 403 829 561 894 496 829 m 767 229 l 767 0 l 42 0 l 42 181 l 356 531 l 53 531 l 53 760 l 751 760 l 751 579 l 438 229 "},"ẓ":{"ha":792,"x_min":0,"x_max":0,"o":"m 767 229 l 767 0 l 42 0 l 42 181 l 356 531 l 53 531 l 53 760 l 751 760 l 751 579 l 438 229 m 403 -69 b 528 -193 474 -69 528 -119 b 403 -314 528 -267 474 -314 b 278 -193 332 -314 278 -267 b 403 -69 278 -119 332 -69 "},"ﬁ":{"ha":1156,"x_min":0,"x_max":0,"o":"m 929 821 b 740 981 814 821 740 890 b 929 1140 740 1071 814 1140 b 1118 986 1044 1140 1118 1076 b 929 821 1118 890 1044 821 m 483 807 b 408 719 439 807 408 781 l 408 718 l 574 718 l 574 489 l 418 489 l 418 0 l 104 0 l 104 489 l 0 489 l 0 718 l 104 718 l 104 722 b 443 1044 104 918 226 1044 b 629 1007 510 1044 583 1032 l 554 789 b 483 807 533 799 508 807 m 772 760 l 1086 760 l 1086 0 l 772 0 "},"ﬂ":{"ha":1044,"x_min":0,"x_max":0,"o":"m 483 807 b 408 719 439 807 408 781 l 408 718 l 574 718 l 574 489 l 418 489 l 418 0 l 104 0 l 104 489 l 0 489 l 0 718 l 104 718 l 104 722 b 443 1044 104 918 226 1044 b 629 1007 510 1044 583 1032 l 554 789 b 483 807 533 799 508 807 m 975 1031 l 975 0 l 661 0 l 661 1031 "},"ª":{"ha":586,"x_min":0,"x_max":0,"o":"m 267 1044 b 536 824 438 1044 536 976 l 536 583 l 339 583 l 339 642 b 203 575 317 597 271 575 b 24 717 83 575 24 639 b 247 853 24 806 94 853 l 321 853 b 231 899 314 882 286 899 b 113 864 193 899 144 886 l 46 993 b 267 1044 104 1026 192 1044 m 267 693 b 324 732 290 693 314 704 l 324 758 l 281 758 b 224 725 242 758 224 747 b 267 693 224 707 240 693 "},"º":{"ha":608,"x_min":0,"x_max":0,"o":"m 304 575 b 22 810 140 575 22 672 b 304 1044 22 947 140 1044 b 586 810 469 1044 586 947 b 304 575 586 672 469 575 m 304 728 b 376 810 344 728 376 756 b 304 892 376 865 344 892 b 232 810 264 892 232 865 b 304 728 232 756 264 728 "},"А":{"ha":1181,"x_min":0,"x_max":0,"o":"m 772 169 l 403 169 l 338 0 l 4 0 l 429 972 l 751 972 l 1176 0 l 838 0 m 682 406 l 588 650 l 493 406 "},"Б":{"ha":1035,"x_min":0,"x_max":0,"o":"m 86 972 l 929 972 l 929 725 l 408 725 l 408 613 l 640 613 b 1008 318 878 613 1008 508 b 599 0 1008 119 856 0 l 86 0 m 576 229 b 679 310 642 229 679 258 b 576 385 679 360 644 385 l 408 385 l 408 229 "},"В":{"ha":1032,"x_min":0,"x_max":0,"o":"m 833 510 b 1001 282 940 471 1001 394 b 606 0 1001 110 860 0 l 86 0 l 86 972 l 579 972 b 958 718 819 972 958 879 b 833 510 958 625 913 553 m 408 599 l 547 599 b 628 669 603 599 628 622 b 547 743 628 717 603 743 l 408 743 m 590 229 b 671 307 644 229 671 257 b 590 382 671 357 644 382 l 408 382 l 408 229 l 590 229 "},"Г":{"ha":849,"x_min":0,"x_max":0,"o":"m 826 718 l 408 718 l 408 0 l 86 0 l 86 972 l 826 972 "},"Ѓ":{"ha":849,"x_min":0,"x_max":0,"o":"m 504 1051 l 296 1051 l 479 1274 l 778 1274 m 826 718 l 408 718 l 408 0 l 86 0 l 86 972 l 826 972 "},"Ґ":{"ha":849,"x_min":0,"x_max":0,"o":"m 86 972 l 526 972 l 526 1171 l 826 1171 l 826 718 l 408 718 l 408 0 l 86 0 "},"Д":{"ha":1200,"x_min":0,"x_max":0,"o":"m 1176 254 l 1176 -190 l 876 -190 l 876 0 l 324 0 l 324 -190 l 24 -190 l 24 254 l 51 254 b 215 676 172 254 204 429 l 226 972 l 1049 972 l 1049 254 m 500 649 b 426 254 493 476 475 338 l 726 254 l 726 718 l 503 718 l 500 649 "},"Е":{"ha":942,"x_min":0,"x_max":0,"o":"m 894 247 l 894 0 l 86 0 l 86 972 l 876 972 l 876 725 l 408 725 l 408 611 l 819 611 l 819 375 l 408 375 l 408 247 "},"Ѐ":{"ha":942,"x_min":0,"x_max":0,"o":"m 419 1051 l 146 1274 l 444 1274 l 628 1051 m 894 247 l 894 0 l 86 0 l 86 972 l 876 972 l 876 725 l 408 725 l 408 611 l 819 611 l 819 375 l 408 375 l 408 247 "},"Ё":{"ha":942,"x_min":0,"x_max":0,"o":"m 328 1040 b 203 1163 257 1040 203 1089 b 328 1286 203 1236 257 1286 b 453 1163 399 1286 453 1236 b 328 1040 453 1089 399 1040 m 636 1040 b 511 1163 565 1040 511 1089 b 636 1286 511 1236 565 1286 b 761 1163 707 1286 761 1236 b 636 1040 761 1089 707 1040 m 894 247 l 894 0 l 86 0 l 86 972 l 876 972 l 876 725 l 408 725 l 408 611 l 819 611 l 819 375 l 408 375 l 408 247 "},"Ж":{"ha":1583,"x_min":0,"x_max":0,"o":"m 1038 351 l 953 351 l 953 0 l 633 0 l 633 351 l 546 351 l 385 0 l 8 0 l 269 511 l 22 972 l 364 972 l 538 610 l 633 610 l 633 972 l 953 972 l 953 610 l 1043 610 l 1219 972 l 1561 972 l 1315 511 l 1575 0 l 1199 0 "},"З":{"ha":933,"x_min":0,"x_max":0,"o":"m 738 506 b 903 274 840 464 903 378 b 422 -24 903 85 685 -24 b 18 61 292 -24 150 3 l 114 288 b 394 231 207 250 310 231 b 572 318 496 231 572 258 b 476 376 572 363 529 376 l 214 376 l 214 613 l 449 613 b 533 671 504 613 533 635 b 394 746 533 721 475 746 b 139 682 318 746 222 724 l 43 925 b 393 999 153 975 276 999 b 864 708 643 999 864 892 b 738 506 864 619 815 547 "},"И":{"ha":1138,"x_min":0,"x_max":0,"o":"m 86 972 l 408 972 l 408 467 l 743 972 l 1051 972 l 1051 0 l 729 0 l 729 504 l 396 0 l 86 0 "},"Й":{"ha":1138,"x_min":0,"x_max":0,"o":"m 568 1028 b 265 1267 347 1028 265 1113 l 483 1267 b 568 1178 483 1206 504 1178 b 656 1267 632 1178 656 1206 l 874 1267 b 568 1028 874 1113 789 1028 m 86 972 l 408 972 l 408 467 l 743 972 l 1051 972 l 1051 0 l 729 0 l 729 504 l 396 0 l 86 0 "},"Ѝ":{"ha":1138,"x_min":0,"x_max":0,"o":"m 233 1274 l 532 1274 l 715 1051 l 507 1051 m 86 972 l 408 972 l 408 467 l 743 972 l 1051 972 l 1051 0 l 729 0 l 729 504 l 396 0 l 86 0 "},"Ҋ":{"ha":1210,"x_min":0,"x_max":0,"o":"m 568 1028 b 265 1267 347 1028 265 1113 l 483 1267 b 568 1178 483 1206 504 1178 b 656 1267 632 1178 656 1206 l 874 1267 b 568 1028 874 1113 789 1028 m 1196 254 l 1071 -190 l 815 -190 l 843 0 l 729 0 l 729 504 l 396 0 l 86 0 l 86 972 l 408 972 l 408 467 l 743 972 l 1051 972 l 1051 254 "},"К":{"ha":1063,"x_min":0,"x_max":0,"o":"m 765 500 l 1053 0 l 683 0 l 497 351 l 406 351 l 406 0 l 78 0 l 78 972 l 406 972 l 406 610 l 506 610 l 713 972 l 1054 972 "},"Ќ":{"ha":1063,"x_min":0,"x_max":0,"o":"m 610 1051 l 401 1051 l 585 1274 l 883 1274 m 765 500 l 1053 0 l 683 0 l 497 351 l 406 351 l 406 0 l 78 0 l 78 972 l 406 972 l 406 610 l 506 610 l 713 972 l 1054 972 "},"Л":{"ha":1121,"x_min":0,"x_max":0,"o":"m 1035 972 l 1035 0 l 713 0 l 713 718 l 490 718 l 488 606 b 158 -18 476 231 426 -18 b 19 0 118 -18 71 -12 l 36 263 b 72 258 49 260 61 258 b 201 593 181 258 194 404 l 214 972 "},"М":{"ha":1338,"x_min":0,"x_max":0,"o":"m 954 0 l 951 443 l 740 88 l 596 88 l 385 428 l 385 0 l 86 0 l 86 972 l 356 972 l 672 454 l 981 972 l 1250 972 l 1253 0 "},"Н":{"ha":1131,"x_min":0,"x_max":0,"o":"m 1044 972 l 1044 0 l 717 0 l 717 358 l 414 358 l 414 0 l 86 0 l 86 972 l 414 972 l 414 628 l 717 628 l 717 972 "},"О":{"ha":1161,"x_min":0,"x_max":0,"o":"m 581 -22 b 32 486 264 -22 32 192 b 581 994 32 781 264 994 b 1129 486 897 994 1129 781 b 581 -22 1129 192 897 -22 m 581 243 b 799 486 701 243 799 335 b 581 729 799 638 701 729 b 363 486 460 729 363 638 b 581 243 363 335 460 243 "},"П":{"ha":1113,"x_min":0,"x_max":0,"o":"m 1026 972 l 1026 0 l 704 0 l 704 718 l 408 718 l 408 0 l 86 0 l 86 972 "},"Р":{"ha":1024,"x_min":0,"x_max":0,"o":"m 554 972 b 997 606 825 972 997 831 b 554 239 997 381 825 239 l 414 239 l 414 0 l 86 0 l 86 972 l 554 972 m 533 492 b 667 606 624 492 667 535 b 533 719 667 676 624 719 l 414 719 l 414 492 l 533 492 "},"С":{"ha":1024,"x_min":0,"x_max":0,"o":"m 575 -22 b 33 486 263 -22 33 188 b 575 994 33 785 263 994 b 1011 800 765 994 915 925 l 804 615 b 592 729 747 688 679 729 b 364 486 456 729 364 635 b 592 243 364 338 456 243 b 804 357 679 243 747 285 l 1011 172 b 575 -22 915 47 765 -22 "},"Т":{"ha":936,"x_min":0,"x_max":0,"o":"m 914 718 l 629 718 l 629 0 l 307 0 l 307 718 l 22 718 l 22 972 l 914 972 "},"У":{"ha":1061,"x_min":0,"x_max":0,"o":"m 1058 972 l 668 240 b 276 -26 575 67 438 -26 b 88 13 217 -26 153 -14 l 164 249 b 264 232 204 238 236 232 b 375 286 313 232 344 249 l 3 972 l 349 972 l 542 563 l 742 972 "},"Ў":{"ha":1061,"x_min":0,"x_max":0,"o":"m 529 1028 b 226 1267 308 1028 226 1113 l 444 1267 b 529 1178 444 1206 465 1178 b 617 1267 593 1178 617 1206 l 835 1267 b 529 1028 835 1113 750 1028 m 1058 972 l 668 240 b 276 -26 575 67 438 -26 b 88 13 217 -26 153 -14 l 164 249 b 264 232 204 238 236 232 b 375 286 313 232 344 249 l 3 972 l 349 972 l 542 563 l 742 972 "},"Ф":{"ha":1361,"x_min":0,"x_max":0,"o":"m 1331 490 b 831 58 1331 238 1160 81 l 831 -50 l 531 -50 l 531 60 b 31 490 201 88 31 238 b 531 919 31 743 201 892 l 531 1021 l 831 1021 l 831 919 b 1331 490 1160 894 1331 742 m 831 314 b 1014 492 961 332 1014 388 b 831 667 1014 594 958 649 l 831 314 m 347 490 b 531 315 347 388 408 335 l 531 665 b 347 490 399 647 347 594 "},"Х":{"ha":1096,"x_min":0,"x_max":0,"o":"m 400 974 l 542 744 l 683 974 l 1063 974 l 747 510 l 1092 0 l 706 0 l 542 251 l 381 0 l 4 0 l 346 494 l 25 974 "},"Ч":{"ha":1063,"x_min":0,"x_max":0,"o":"m 976 972 l 976 0 l 654 0 l 654 311 b 478 282 589 292 532 282 b 40 679 192 282 40 419 l 40 972 l 363 972 l 363 715 b 519 542 363 597 414 542 b 654 564 572 542 618 549 l 654 972 "},"Ц":{"ha":1190,"x_min":0,"x_max":0,"o":"m 1167 254 l 1167 -190 l 867 -190 l 867 0 l 86 0 l 86 972 l 408 972 l 408 254 l 717 254 l 717 972 l 1039 972 l 1039 254 "},"Ш":{"ha":1529,"x_min":0,"x_max":0,"o":"m 1443 972 l 1443 0 l 86 0 l 86 972 l 408 972 l 408 254 l 604 254 l 604 972 l 926 972 l 926 254 l 1121 254 l 1121 972 "},"Щ":{"ha":1585,"x_min":0,"x_max":0,"o":"m 1561 254 l 1561 -190 l 1261 -190 l 1261 0 l 86 0 l 86 972 l 408 972 l 408 254 l 604 254 l 604 972 l 926 972 l 926 254 l 1121 254 l 1121 972 l 1443 972 l 1443 254 "},"Џ":{"ha":1125,"x_min":0,"x_max":0,"o":"m 1039 0 l 713 0 l 713 -190 l 413 -190 l 413 0 l 86 0 l 86 972 l 408 972 l 408 254 l 717 254 l 717 972 l 1039 972 "},"Ь":{"ha":1015,"x_min":0,"x_max":0,"o":"m 610 674 b 989 353 847 674 989 568 b 568 0 989 121 825 0 l 86 0 l 86 972 l 408 972 l 408 674 l 610 674 m 546 229 b 660 347 611 229 660 272 b 546 444 660 421 611 444 l 408 444 l 408 229 l 546 229 "},"Ъ":{"ha":1201,"x_min":0,"x_max":0,"o":"m 796 674 b 1175 353 1033 674 1175 568 b 754 0 1175 121 1011 0 l 272 0 l 272 718 l 22 718 l 22 972 l 594 972 l 594 674 l 796 674 m 732 229 b 846 347 797 229 846 272 b 732 444 846 421 797 444 l 594 444 l 594 229 l 732 229 "},"Ы":{"ha":1486,"x_min":0,"x_max":0,"o":"m 610 674 b 989 353 847 674 989 568 b 568 0 989 121 825 0 l 86 0 l 86 972 l 408 972 l 408 674 l 610 674 m 1078 972 l 1400 972 l 1400 0 l 1078 0 m 546 229 b 660 347 611 229 660 272 b 546 444 660 421 611 444 l 408 444 l 408 229 l 546 229 "},"Љ":{"ha":1642,"x_min":0,"x_max":0,"o":"m 1236 674 b 1615 353 1474 674 1615 568 b 1194 0 1615 121 1451 0 l 713 0 l 713 718 l 490 718 l 488 606 b 158 -18 476 231 426 -18 b 19 0 118 -18 71 -12 l 36 263 b 72 258 49 260 61 258 b 201 593 181 258 194 404 l 214 972 l 1035 972 l 1035 674 l 1236 674 m 1172 229 b 1286 347 1238 229 1286 272 b 1172 444 1286 421 1238 444 l 1035 444 l 1035 229 l 1172 229 "},"Њ":{"ha":1611,"x_min":0,"x_max":0,"o":"m 1225 643 b 1586 332 1454 643 1586 531 b 1197 0 1586 121 1439 0 l 704 0 l 704 378 l 408 378 l 408 0 l 86 0 l 86 972 l 408 972 l 408 632 l 704 632 l 704 972 l 1026 972 l 1026 643 l 1225 643 m 1156 229 b 1257 322 1218 229 1257 261 b 1156 414 1257 383 1219 414 l 1026 414 l 1026 229 l 1156 229 "},"Ѕ":{"ha":933,"x_min":0,"x_max":0,"o":"m 454 -22 b 31 78 292 -22 128 18 l 136 317 b 457 228 228 263 350 228 b 583 281 550 228 583 247 b 46 667 583 403 46 304 b 499 994 46 847 197 994 b 865 910 629 994 764 967 l 767 672 b 496 744 671 721 581 744 b 369 683 400 744 369 717 b 907 306 369 567 907 664 b 454 -22 907 128 756 -22 "},"Є":{"ha":1004,"x_min":0,"x_max":0,"o":"m 572 243 b 785 357 660 243 728 285 l 992 172 b 556 -22 896 47 746 -22 b 35 486 250 -22 35 188 b 556 994 35 785 250 994 b 992 800 746 994 896 925 l 785 615 b 572 729 728 688 660 729 b 385 601 481 729 415 682 l 688 601 l 688 365 l 386 365 b 572 243 418 289 483 243 "},"Э":{"ha":1004,"x_min":0,"x_max":0,"o":"m 449 994 b 969 486 754 994 969 785 b 449 -22 969 188 754 -22 b 13 172 258 -22 108 47 l 219 357 b 432 243 276 285 344 243 b 619 371 524 243 589 290 l 317 371 l 317 607 l 618 607 b 432 729 586 683 521 729 b 219 615 344 729 276 688 l 13 800 b 449 994 108 925 258 994 "},"І":{"ha":494,"x_min":0,"x_max":0,"o":"m 86 972 l 408 972 l 408 0 l 86 0 "},"Ї":{"ha":486,"x_min":0,"x_max":0,"o":"m 89 1040 b -36 1163 18 1040 -36 1089 b 89 1286 -36 1236 18 1286 b 214 1163 160 1286 214 1236 b 89 1040 214 1089 160 1040 m 397 1040 b 272 1163 326 1040 272 1089 b 397 1286 272 1236 326 1286 b 522 1163 468 1286 522 1236 b 397 1040 522 1089 468 1040 m 79 972 l 407 972 l 407 0 l 79 0 "},"Ј":{"ha":835,"x_min":0,"x_max":0,"o":"m 363 -22 b 4 122 211 -22 85 28 l 181 331 b 335 235 232 267 281 235 b 440 356 403 235 440 276 l 440 725 l 110 725 l 110 972 l 764 972 l 764 375 b 363 -22 764 108 624 -22 "},"Ћ":{"ha":1214,"x_min":0,"x_max":0,"o":"m 814 599 b 1179 221 1036 599 1179 481 l 1179 0 l 857 0 l 857 181 b 735 335 857 288 807 335 b 629 308 703 335 667 326 l 629 0 l 307 0 l 307 718 l 22 718 l 22 972 l 949 972 l 949 718 l 629 718 l 629 576 b 814 599 696 590 757 599 "},"Ю":{"ha":1574,"x_min":0,"x_max":0,"o":"m 1004 994 b 1540 486 1314 994 1540 781 b 1004 -22 1540 192 1314 -22 b 482 358 740 -22 538 132 l 408 358 l 408 0 l 86 0 l 86 972 l 408 972 l 408 628 l 485 628 b 1004 994 546 847 746 994 m 1004 243 b 1210 486 1118 243 1210 335 b 1004 729 1210 638 1118 729 b 797 486 889 729 797 638 b 1004 243 797 335 889 243 "},"Я":{"ha":1025,"x_min":0,"x_max":0,"o":"m 939 972 l 939 0 l 617 0 l 617 231 l 529 231 l 381 0 l 38 0 l 229 278 b 33 596 104 336 33 447 b 483 972 33 828 207 972 m 489 719 b 364 601 406 719 364 681 b 489 478 364 519 407 478 l 617 478 l 617 719 l 489 719 "},"Ђ":{"ha":1206,"x_min":0,"x_max":0,"o":"m 629 599 b 821 621 700 614 764 621 b 1179 297 1057 621 1179 499 b 825 -12 1179 76 1019 -12 b 708 -3 788 -12 749 -10 l 739 240 b 779 233 747 236 763 233 b 857 293 814 233 857 247 b 743 367 857 336 811 367 b 629 343 710 367 671 360 l 629 0 l 307 0 l 307 718 l 22 718 l 22 972 l 964 972 l 964 718 l 629 718 l 629 599 "},"Ѣ":{"ha":1179,"x_min":0,"x_max":0,"o":"m 785 660 b 1153 342 1021 660 1153 547 b 743 0 1153 128 1000 0 l 247 0 l 247 744 l 18 744 l 18 925 l 247 925 l 247 1031 l 569 1031 l 569 925 l 875 925 l 875 744 l 569 744 l 569 660 l 785 660 m 721 229 b 824 333 786 229 824 267 b 721 431 824 399 789 431 l 569 431 l 569 229 l 721 229 "},"Ѫ":{"ha":1388,"x_min":0,"x_max":0,"o":"m 1379 0 l 1043 0 l 1021 114 b 876 335 989 281 940 335 l 839 335 l 839 0 l 547 0 l 547 335 l 515 335 b 365 114 447 335 399 285 l 343 0 l 8 0 l 67 182 b 371 542 146 431 239 524 l 154 781 l 154 972 l 1232 972 l 1232 781 l 1013 543 b 1324 182 1147 526 1247 435 m 504 756 l 692 546 l 694 546 l 886 756 "},"Ѳ":{"ha":1161,"x_min":0,"x_max":0,"o":"m 581 994 b 1129 486 897 994 1129 781 b 581 -22 1129 192 897 -22 b 32 486 264 -22 32 192 b 581 994 32 781 264 994 m 581 729 b 376 579 488 729 407 674 l 785 579 b 581 729 754 674 674 729 m 581 243 b 783 390 674 243 751 297 l 378 390 b 581 243 410 297 488 243 "},"Ѵ":{"ha":1153,"x_min":0,"x_max":0,"o":"m 6 972 l 358 972 l 561 431 l 679 781 b 971 997 729 928 821 997 b 1133 976 1018 997 1072 990 l 1103 685 b 1036 696 1076 692 1056 696 b 929 588 983 696 957 665 l 718 0 l 396 0 "},"Ғ":{"ha":925,"x_min":0,"x_max":0,"o":"m 481 718 l 481 532 l 826 532 l 826 351 l 481 351 l 481 0 l 158 0 l 158 351 l 19 351 l 19 532 l 158 532 l 158 972 l 899 972 l 899 718 "},"Ҕ":{"ha":986,"x_min":0,"x_max":0,"o":"m 408 533 b 568 553 465 546 518 553 b 960 185 804 553 960 417 b 542 -225 960 -61 785 -225 b 439 -215 508 -225 475 -222 l 489 26 b 524 22 501 24 513 22 b 638 163 593 22 638 74 b 504 307 638 257 586 307 b 408 289 475 307 443 301 l 408 0 l 86 0 l 86 972 l 856 972 l 856 718 l 408 718 l 408 533 "},"Җ":{"ha":1618,"x_min":0,"x_max":0,"o":"m 1592 254 l 1592 -190 l 1292 -190 l 1292 0 l 1199 0 l 1038 351 l 953 351 l 953 0 l 633 0 l 633 351 l 546 351 l 385 0 l 8 0 l 269 511 l 22 972 l 364 972 l 538 610 l 633 610 l 633 972 l 953 972 l 953 610 l 1043 610 l 1219 972 l 1561 972 l 1315 511 l 1446 254 "},"Ҙ":{"ha":933,"x_min":0,"x_max":0,"o":"m 903 274 b 578 -11 903 124 765 25 l 578 -190 l 278 -190 l 278 -14 b 18 61 190 0 103 24 l 114 288 b 394 231 207 250 310 231 b 572 318 496 231 572 258 b 476 376 572 363 529 376 l 214 376 l 214 613 l 449 613 b 533 671 504 613 533 635 b 394 746 533 721 475 746 b 139 682 318 746 222 724 l 43 925 b 393 999 153 975 276 999 b 864 708 643 999 864 892 b 738 506 864 619 815 547 b 903 274 840 464 903 378 "},"Қ":{"ha":1103,"x_min":0,"x_max":0,"o":"m 1076 254 l 1076 -190 l 776 -190 l 776 0 l 683 0 l 497 351 l 406 351 l 406 0 l 78 0 l 78 972 l 406 972 l 406 610 l 506 610 l 713 972 l 1054 972 l 765 500 l 907 254 "},"Ҝ":{"ha":1136,"x_min":0,"x_max":0,"o":"m 593 351 l 579 351 l 579 219 l 454 219 l 454 351 l 406 351 l 406 0 l 78 0 l 78 972 l 406 972 l 406 610 l 454 610 l 454 746 l 579 746 l 579 610 l 597 610 l 767 972 l 1108 972 l 865 500 l 1128 0 l 746 0 "},"Ҟ":{"ha":1096,"x_min":0,"x_max":0,"o":"m 799 500 l 1086 0 l 717 0 l 531 351 l 439 351 l 439 0 l 111 0 l 111 753 l 15 753 l 15 892 l 111 892 l 111 972 l 439 972 l 439 892 l 581 892 l 581 753 l 439 753 l 439 610 l 539 610 l 746 972 l 1088 972 "},"Ҡ":{"ha":1251,"x_min":0,"x_max":0,"o":"m 954 500 l 1242 0 l 872 0 l 686 351 l 594 351 l 594 0 l 267 0 l 267 718 l 22 718 l 22 972 l 594 972 l 594 610 l 694 610 l 901 972 l 1243 972 "},"Ң":{"ha":1193,"x_min":0,"x_max":0,"o":"m 1164 254 l 1164 -190 l 864 -190 l 864 0 l 717 0 l 717 358 l 414 358 l 414 0 l 86 0 l 86 972 l 414 972 l 414 628 l 717 628 l 717 972 l 1044 972 l 1044 254 "},"Ҥ":{"ha":1479,"x_min":0,"x_max":0,"o":"m 1457 718 l 1044 718 l 1044 0 l 717 0 l 717 358 l 414 358 l 414 0 l 86 0 l 86 972 l 414 972 l 414 628 l 717 628 l 717 972 l 1457 972 "},"Ҧ":{"ha":1607,"x_min":0,"x_max":0,"o":"m 1026 533 b 1188 551 1083 546 1136 551 b 1581 185 1424 551 1581 415 b 1163 -225 1581 -61 1406 -225 b 1060 -215 1129 -225 1096 -222 l 1110 26 b 1144 22 1122 24 1133 22 b 1258 163 1215 22 1258 75 b 1129 306 1258 257 1214 306 b 1026 288 1100 306 1065 299 l 1026 0 l 704 0 l 704 718 l 408 718 l 408 0 l 86 0 l 86 972 l 1026 972 l 1026 533 "},"Ԥ":{"ha":1175,"x_min":0,"x_max":0,"o":"m 1151 254 l 1151 -190 l 851 -190 l 851 0 l 704 0 l 704 718 l 408 718 l 408 0 l 86 0 l 86 972 l 1026 972 l 1026 254 "},"Ҩ":{"ha":1361,"x_min":0,"x_max":0,"o":"m 1317 -15 b 1115 -42 1247 -33 1181 -42 b 850 11 1019 -42 931 -24 b 622 -25 776 -12 699 -25 b 38 536 322 -25 38 157 b 226 1000 38 714 100 883 l 494 881 b 365 524 411 781 365 647 b 614 194 365 328 479 219 b 496 557 539 292 496 415 b 913 1000 496 828 657 1000 b 1306 592 1154 1000 1306 849 b 1122 171 1306 419 1233 276 b 1296 193 1178 168 1236 175 l 1317 -15 m 906 771 b 774 567 819 771 774 697 b 896 264 774 436 821 332 b 1028 579 975 326 1028 432 b 906 771 1028 704 986 771 "},"Ҫ":{"ha":1024,"x_min":0,"x_max":0,"o":"m 592 243 b 804 357 679 243 747 285 l 1011 172 b 689 -14 935 74 825 10 l 689 -190 l 389 -190 l 389 6 b 33 486 175 71 33 251 b 575 994 33 785 263 994 b 1011 800 765 994 915 925 l 804 615 b 592 729 747 688 679 729 b 364 486 456 729 364 635 b 592 243 364 338 456 243 "},"Ҭ":{"ha":936,"x_min":0,"x_max":0,"o":"m 629 718 l 629 254 l 754 254 l 754 -190 l 454 -190 l 454 0 l 307 0 l 307 718 l 22 718 l 22 972 l 914 972 l 914 718 "},"Ү":{"ha":1064,"x_min":0,"x_max":0,"o":"m 696 353 l 696 0 l 368 0 l 368 357 l 1 972 l 347 972 l 546 636 l 746 972 l 1063 972 "},"Ұ":{"ha":1064,"x_min":0,"x_max":0,"o":"m 751 446 l 846 446 l 846 293 l 696 293 l 696 0 l 368 0 l 368 293 l 203 293 l 203 446 l 315 446 l 1 972 l 347 972 l 546 636 l 746 972 l 1063 972 "},"Ҳ":{"ha":1124,"x_min":0,"x_max":0,"o":"m 1099 254 l 1099 -190 l 799 -190 l 799 0 l 706 0 l 542 251 l 381 0 l 4 0 l 346 494 l 25 974 l 400 974 l 542 744 l 683 974 l 1063 974 l 747 510 l 919 254 "},"Ҵ":{"ha":1413,"x_min":0,"x_max":0,"o":"m 1389 254 l 1389 -190 l 1089 -190 l 1089 0 l 308 0 l 308 718 l 24 718 l 24 972 l 832 972 l 832 718 l 631 718 l 631 254 l 939 254 l 939 972 l 1261 972 l 1261 254 "},"Ҷ":{"ha":1125,"x_min":0,"x_max":0,"o":"m 1101 254 l 1101 -190 l 801 -190 l 801 0 l 654 0 l 654 311 b 478 282 589 292 532 282 b 40 679 192 282 40 419 l 40 972 l 363 972 l 363 715 b 519 542 363 597 414 542 b 654 564 572 542 618 549 l 654 972 l 976 972 l 976 254 "},"Ҹ":{"ha":1063,"x_min":0,"x_max":0,"o":"m 976 972 l 976 0 l 654 0 l 654 311 b 575 292 626 303 600 296 l 575 150 l 450 150 l 450 282 b 40 679 182 292 40 428 l 40 972 l 363 972 l 363 715 b 450 553 363 626 392 574 l 450 679 l 575 679 l 575 544 b 654 564 606 549 632 554 l 654 972 "},"Һ":{"ha":1063,"x_min":0,"x_max":0,"o":"m 585 690 b 1022 293 871 690 1022 553 l 1022 0 l 700 0 l 700 257 b 543 431 700 375 649 431 b 408 408 490 431 444 424 l 408 0 l 86 0 l 86 972 l 408 972 l 408 661 b 585 690 474 681 531 690 "},"Ԧ":{"ha":1171,"x_min":0,"x_max":0,"o":"m 1147 254 l 1147 -190 l 847 -190 l 847 0 l 700 0 l 700 257 b 543 431 700 375 649 431 b 408 408 490 431 444 424 l 408 0 l 86 0 l 86 972 l 408 972 l 408 661 b 585 690 474 681 531 690 b 1022 293 871 690 1022 553 l 1022 254 "},"Ҽ":{"ha":1457,"x_min":0,"x_max":0,"o":"m 1428 494 b 1414 374 1428 453 1424 414 l 718 374 b 917 242 754 288 832 242 b 1126 346 989 242 1067 275 l 1363 157 b 913 -22 1246 38 1076 -22 b 376 374 668 -22 429 111 l 339 374 b 18 653 140 374 18 482 b 53 822 18 704 29 761 l 307 781 b 276 678 288 744 276 708 b 374 582 276 625 306 585 b 904 994 419 856 664 994 b 1428 494 1167 994 1428 828 m 903 733 b 710 582 822 733 740 682 l 1088 582 b 903 733 1061 683 982 733 "},"Ҿ":{"ha":1457,"x_min":0,"x_max":0,"o":"m 1428 494 b 1414 374 1428 453 1424 414 l 718 374 b 917 242 754 288 832 242 b 1126 346 989 242 1067 275 l 1363 157 b 1068 -4 1283 75 1178 22 l 1068 -190 l 768 -190 l 768 -7 b 376 374 579 36 418 164 l 339 374 b 18 653 140 374 18 482 b 53 822 18 704 29 761 l 307 781 b 276 678 288 744 276 708 b 374 582 276 625 306 585 b 904 994 419 856 664 994 b 1428 494 1167 994 1428 828 m 903 733 b 710 582 822 733 740 682 l 1088 582 b 903 733 1061 683 982 733 "},"Ӏ":{"ha":500,"x_min":0,"x_max":0,"o":"m 86 972 l 414 972 l 414 0 l 86 0 "},"Ӂ":{"ha":1583,"x_min":0,"x_max":0,"o":"m 793 1028 b 490 1267 572 1028 490 1113 l 708 1267 b 793 1178 708 1206 729 1178 b 881 1267 857 1178 881 1206 l 1099 1267 b 793 1028 1099 1113 1014 1028 m 1038 351 l 953 351 l 953 0 l 633 0 l 633 351 l 546 351 l 385 0 l 8 0 l 269 511 l 22 972 l 364 972 l 538 610 l 633 610 l 633 972 l 953 972 l 953 610 l 1043 610 l 1219 972 l 1561 972 l 1315 511 l 1575 0 l 1199 0 "},"Ӄ":{"ha":1082,"x_min":0,"x_max":0,"o":"m 779 511 b 1060 15 958 300 1060 157 b 725 -290 1060 -176 935 -290 b 521 -249 651 -290 585 -276 l 594 -26 b 651 -40 615 -35 636 -40 b 701 25 683 -40 701 -18 b 521 351 701 101 614 238 l 414 351 l 414 0 l 86 0 l 86 972 l 414 972 l 414 610 l 514 610 l 721 972 l 1063 972 "},"Ӈ":{"ha":1128,"x_min":0,"x_max":0,"o":"m 583 -28 b 649 -44 607 -39 629 -44 b 719 32 690 -44 719 -18 l 719 350 l 408 350 l 408 0 l 86 0 l 86 972 l 408 972 l 408 604 l 719 604 l 719 972 l 1042 972 l 1042 28 b 707 -287 1042 -187 883 -287 b 508 -246 642 -287 572 -274 "},"Ӊ":{"ha":1203,"x_min":0,"x_max":0,"o":"m 1183 254 l 1058 -190 l 803 -190 l 831 0 l 717 0 l 717 358 l 414 358 l 414 0 l 86 0 l 86 972 l 414 972 l 414 628 l 717 628 l 717 972 l 1044 972 l 1044 254 "},"Ӌ":{"ha":1056,"x_min":0,"x_max":0,"o":"m 969 972 l 969 0 l 767 0 l 767 -190 l 467 -190 l 467 254 l 647 254 l 647 379 b 474 350 583 360 528 350 b 36 719 188 350 36 478 l 36 972 l 358 972 l 358 756 b 515 610 358 657 410 610 b 647 631 567 610 611 617 l 647 972 "},"Ӎ":{"ha":1442,"x_min":0,"x_max":0,"o":"m 1428 254 l 1303 -190 l 1047 -190 l 1075 0 l 954 0 l 951 443 l 740 88 l 596 88 l 385 428 l 385 0 l 86 0 l 86 972 l 356 972 l 672 454 l 981 972 l 1250 972 l 1251 254 "},"Ӑ":{"ha":1181,"x_min":0,"x_max":0,"o":"m 589 1028 b 286 1267 368 1028 286 1113 l 504 1267 b 589 1178 504 1206 525 1178 b 676 1267 653 1178 676 1206 l 894 1267 b 589 1028 894 1113 810 1028 m 772 169 l 403 169 l 338 0 l 4 0 l 429 972 l 751 972 l 1176 0 l 838 0 m 682 406 l 588 650 l 493 406 "},"Ӓ":{"ha":1181,"x_min":0,"x_max":0,"o":"m 436 1040 b 311 1163 365 1040 311 1089 b 436 1286 311 1236 365 1286 b 561 1163 507 1286 561 1236 b 436 1040 561 1089 507 1040 m 744 1040 b 619 1163 674 1040 619 1089 b 744 1286 619 1236 674 1286 b 869 1163 815 1286 869 1236 b 744 1040 869 1089 815 1040 m 772 169 l 403 169 l 338 0 l 4 0 l 429 972 l 751 972 l 1176 0 l 838 0 m 682 406 l 588 650 l 493 406 "},"Ӕ":{"ha":1583,"x_min":0,"x_max":0,"o":"m 1536 247 l 1536 0 l 728 0 l 728 169 l 421 169 l 336 0 l 3 0 l 515 972 l 1518 972 l 1518 725 l 1050 725 l 1050 611 l 1461 611 l 1461 375 l 1050 375 l 1050 247 m 728 406 l 728 725 l 696 725 l 538 406 "},"Ӗ":{"ha":942,"x_min":0,"x_max":0,"o":"m 481 1028 b 178 1267 260 1028 178 1113 l 396 1267 b 481 1178 396 1206 417 1178 b 568 1267 544 1178 568 1206 l 786 1267 b 481 1028 786 1113 701 1028 m 894 247 l 894 0 l 86 0 l 86 972 l 876 972 l 876 725 l 408 725 l 408 611 l 819 611 l 819 375 l 408 375 l 408 247 "},"Ә":{"ha":1135,"x_min":0,"x_max":0,"o":"m 549 994 b 1101 486 829 994 1101 822 b 557 -22 1101 149 826 -22 b 29 478 292 -22 29 144 b 43 599 29 519 33 558 l 749 599 b 544 731 711 685 631 731 b 332 626 471 731 393 697 l 96 815 b 549 994 214 935 383 994 m 558 239 b 757 390 642 239 725 290 l 369 390 b 558 239 397 289 476 239 "},"Ӛ":{"ha":1135,"x_min":0,"x_max":0,"o":"m 414 1040 b 289 1163 343 1040 289 1089 b 414 1286 289 1236 343 1286 b 539 1163 485 1286 539 1236 b 414 1040 539 1089 485 1040 m 722 1040 b 597 1163 651 1040 597 1089 b 722 1286 597 1236 651 1286 b 847 1163 793 1286 847 1236 b 722 1040 847 1089 793 1040 m 549 994 b 1101 486 829 994 1101 822 b 557 -22 1101 149 826 -22 b 29 478 292 -22 29 144 b 43 599 29 519 33 558 l 749 599 b 544 731 711 685 631 731 b 332 626 471 731 393 697 l 96 815 b 549 994 214 935 383 994 m 558 239 b 757 390 642 239 725 290 l 369 390 b 558 239 397 289 476 239 "},"Ӝ":{"ha":1583,"x_min":0,"x_max":0,"o":"m 640 1040 b 515 1163 569 1040 515 1089 b 640 1286 515 1236 569 1286 b 765 1163 711 1286 765 1236 b 640 1040 765 1089 711 1040 m 949 1040 b 824 1163 878 1040 824 1089 b 949 1286 824 1236 878 1286 b 1074 1163 1019 1286 1074 1236 b 949 1040 1074 1089 1019 1040 m 1038 351 l 953 351 l 953 0 l 633 0 l 633 351 l 546 351 l 385 0 l 8 0 l 269 511 l 22 972 l 364 972 l 538 610 l 633 610 l 633 972 l 953 972 l 953 610 l 1043 610 l 1219 972 l 1561 972 l 1315 511 l 1575 0 l 1199 0 "},"Ӟ":{"ha":933,"x_min":0,"x_max":0,"o":"m 301 1040 b 176 1163 231 1040 176 1089 b 301 1286 176 1236 231 1286 b 426 1163 372 1286 426 1236 b 301 1040 426 1089 372 1040 m 610 1040 b 485 1163 539 1040 485 1089 b 610 1286 485 1236 539 1286 b 735 1163 681 1286 735 1236 b 610 1040 735 1089 681 1040 m 738 506 b 903 274 840 464 903 378 b 422 -24 903 85 685 -24 b 18 61 292 -24 150 3 l 114 288 b 394 231 207 250 310 231 b 572 318 496 231 572 258 b 476 376 572 363 529 376 l 214 376 l 214 613 l 449 613 b 533 671 504 613 533 635 b 394 746 533 721 475 746 b 139 682 318 746 222 724 l 43 925 b 393 999 153 975 276 999 b 864 708 643 999 864 892 b 738 506 864 619 815 547 "},"Ӡ":{"ha":908,"x_min":0,"x_max":0,"o":"m 633 589 b 878 313 793 550 878 446 b 417 -22 878 143 740 -22 b 22 65 281 -22 128 7 l 128 307 b 406 236 215 258 319 236 b 547 311 489 236 547 261 b 418 378 547 353 508 378 l 288 378 l 288 579 l 439 725 l 68 725 l 68 972 l 822 972 l 822 771 l 633 589 "},"Ӣ":{"ha":1138,"x_min":0,"x_max":0,"o":"m 278 1244 l 861 1244 l 861 1081 l 278 1081 m 86 972 l 408 972 l 408 467 l 743 972 l 1051 972 l 1051 0 l 729 0 l 729 504 l 396 0 l 86 0 "}}}
